<svg xmlns="http://www.w3.org/2000/svg" xmlns:xlink="http://www.w3.org/1999/xlink" viewBox="0 0 566.93 566.93">
    <defs>
        <clipPath id="clip-path">
            <rect x="49.94" y="90" width="255.9" height="387.49" style="fill:none"/>
        </clipPath>
    </defs>
    <rect x="-8.5" y="-8.5" width="583.94" height="583.94" style="fill:#fff"/>
    <g style="clip-path:url(#clip-path)" class="select-btn" >
        <rect x="49.94" y="90" width="255.9" height="387.49" class="select-area"/>
        <image x="49.94" y="90" width="255.9" height="387.49"  href='http://pic09.babytreeimg.com/contentplatform/20190213/FkPVLj4o6OkfVp9NmTp3oPCmI9ta_b.img' class="select-icon"/>
    </g>
    <path d="M335.63,250.46a28.68,28.68,0,0,1-3.4,1.58,11.43,11.43,0,0,1-4.28.82,5.7,5.7,0,0,1-1.94-.23.91.91,0,0,1-.59-.94,1.86,1.86,0,0,1,.09-.53,2.37,2.37,0,0,1,.21-.5.7.7,0,0,1,.29-.29c.12-.06.23,0,.35.15a1.39,1.39,0,0,0,1.06.53q.7.06,1.53.06a3.79,3.79,0,0,0,2.23-.85,4.58,4.58,0,0,0,1.47-2.14,20.13,20.13,0,0,0,.47-2.58q.23-1.76.38-4.22t.23-5.49q.09-3,.09-6.37,0-7.63-.41-11.88t-1.06-4.9a3.66,3.66,0,0,0-1.17-.56,7.21,7.21,0,0,0-1.44-.26q-.73-.06-1.44-.06a8.38,8.38,0,0,0-1.11.06.65.65,0,0,1-.65-.23.93.93,0,0,1-.23-.59q0-1.06.76-1.06.41,0,1.47.09l2.43.18q1.38.09,2.9.15t2.76.06a8.42,8.42,0,0,0,2.85-.47q1.32-.47,2.73-1.06a27.15,27.15,0,0,1,3.08-1.06,14.52,14.52,0,0,1,3.9-.47,27,27,0,0,1,5.16.47,14.32,14.32,0,0,1,4.17,1.44,7.85,7.85,0,0,1,2.79,2.49,6.26,6.26,0,0,1,1,3.58,9,9,0,0,1-1,4.25,13.36,13.36,0,0,1-2.49,3.37,17.89,17.89,0,0,1-3.17,2.49,19.47,19.47,0,0,1-3,1.55,36.75,36.75,0,0,1,4.75.73,19.53,19.53,0,0,1,4.81,1.7,11.29,11.29,0,0,1,3.73,3,7.3,7.3,0,0,1,1.5,4.69,10.27,10.27,0,0,1-.91,4.25,14.9,14.9,0,0,1-2.43,3.75,21.73,21.73,0,0,1-3.49,3.17,24.58,24.58,0,0,1-8.45,4,16.7,16.7,0,0,1-4.08.56,23.73,23.73,0,0,1-2.79-.21q-1.67-.21-3.43-.56t-3.43-.79A21.16,21.16,0,0,1,335.63,250.46ZM341.5,213q-.12.76-.23,2.11t-.23,3.14q-.12,1.79-.21,3.87t-.15,4.31q.06.18.65.26c.39.06.85.11,1.38.15s1.09.07,1.67.09l1.58,0a18.49,18.49,0,0,0,1.94-.09,6.9,6.9,0,0,0,1.44-.29,6.7,6.7,0,0,0,1.14-.5,5.91,5.91,0,0,0,1.06-.76,7,7,0,0,0,1.85-2.46,10.65,10.65,0,0,0,.85-4.69,10.89,10.89,0,0,0-.59-3.73,8.56,8.56,0,0,0-1.53-2.7,6,6,0,0,0-2.14-1.61,6.14,6.14,0,0,0-2.49-.53,8.81,8.81,0,0,0-1.58.18,8.5,8.5,0,0,0-1.82.56,5.77,5.77,0,0,0-1.61,1.06A3.21,3.21,0,0,0,341.5,213Zm-.82,25.46q.06,3.05.18,4.4t.23,2.05a4.93,4.93,0,0,0,.85,2,8,8,0,0,0,1.76,1.79,9,9,0,0,0,2.52,1.32,9.7,9.7,0,0,0,3.2.5,9.52,9.52,0,0,0,3.52-.65,7.25,7.25,0,0,0,2.85-2,10,10,0,0,0,1.91-3.55,17,17,0,0,0,.7-5.22,11.29,11.29,0,0,0-.88-4.69,7.92,7.92,0,0,0-2.49-3.14,10.34,10.34,0,0,0-3.9-1.73A22.74,22.74,0,0,0,346,229q-1.64,0-3.11,0t-2.17.09c0,.43-.06.88-.06,1.35v8Z"
          style="fill:#333"/>
    <path d="M390.89,233.44a27.26,27.26,0,0,0-.82-3.26,8.62,8.62,0,0,0-1.17-2.41,4.68,4.68,0,0,0-1.7-1.47,5.49,5.49,0,0,0-2.46-.5,5.93,5.93,0,0,0-2.38.47,8,8,0,0,0-1.88,1.11,6.29,6.29,0,0,0-1.23,1.29,2.87,2.87,0,0,0-.5,1,.48.48,0,0,1-.53.47,2.33,2.33,0,0,1-1.53-.59,1.77,1.77,0,0,1-.7-1.41,1.62,1.62,0,0,1,.12-.7q1.35-.76,3.29-1.64t4-1.64a38.55,38.55,0,0,1,4.14-1.26,15.87,15.87,0,0,1,3.7-.5,8.2,8.2,0,0,1,3.78.7,4.51,4.51,0,0,1,2,2,8.28,8.28,0,0,1,.79,3q.15,1.73.26,3.73.18,3,.47,5.78a31.06,31.06,0,0,0,.88,4.93,11.4,11.4,0,0,0,1.5,3.46,2.68,2.68,0,0,0,2.26,1.32,4.81,4.81,0,0,0,1.41-.23,11.83,11.83,0,0,0,1.47-.56c.47-.21.89-.43,1.26-.65l.73-.44a.6.6,0,0,1,.65.53,1.17,1.17,0,0,1-.12.53,7.62,7.62,0,0,1-.88.59q-.76.47-1.88,1.11t-2.46,1.38q-1.35.73-2.67,1.38a26.19,26.19,0,0,1-2.44,1.06,5.5,5.5,0,0,1-1.76.41,1.72,1.72,0,0,1-1.32-.62,5.41,5.41,0,0,1-1-1.64,14.92,14.92,0,0,1-.7-2.38q-.29-1.35-.53-2.82-1.06.88-2.7,2.08a32,32,0,0,1-3.58,2.26,28.63,28.63,0,0,1-4,1.79,11.43,11.43,0,0,1-3.9.73,7,7,0,0,1-2.76-.5,5.86,5.86,0,0,1-2-1.32,5.18,5.18,0,0,1-1.17-1.91,6.74,6.74,0,0,1-.38-2.26,4.29,4.29,0,0,1,1.14-3.08,14.28,14.28,0,0,1,3.55-2.49q1.11-.59,3.11-1.55l4.08-2q2.08-1,3.87-1.91T390.89,233.44Zm1.7,9.09q-.18-1-.35-2.17t-.35-2.23q-.18-1.06-.32-1.82t-.21-1l-2.11.82q-1.17.47-2.35,1t-2.23,1.11q-1.06.56-1.76,1a8.68,8.68,0,0,0-2.05,1.76,3.28,3.28,0,0,0-.7,2.11,4.75,4.75,0,0,0,1,3,3.68,3.68,0,0,0,3.11,1.29,7.16,7.16,0,0,0,2.32-.41,16.54,16.54,0,0,0,2.23-.94,16.12,16.12,0,0,0,1.79-1.06,8.43,8.43,0,0,0,1.06-.82q.47-.47.73-.79A1.2,1.2,0,0,0,392.59,242.54Z"
          style="fill:#333"/>
    <path d="M407.49,209.51q0-1.29.62-1.53a3.69,3.69,0,0,1,1.32-.23H413q1.61,0,2.93,0a23.3,23.3,0,0,0,2.46-.18,10.37,10.37,0,0,0,2.14-.5c.31-.12.48-.06.5.18s0,.45,0,.65a.62.62,0,0,1-.35.56,3.17,3.17,0,0,1-.79.32,7.08,7.08,0,0,1-.85.18l-.53.06a19.83,19.83,0,0,0-.41,2.67q-.24,2.08-.5,4.93t-.44,6q-.18,3.2-.18,6a20.62,20.62,0,0,1,1.76-1.64,22.84,22.84,0,0,1,2.9-2.08,21.29,21.29,0,0,1,3.73-1.79,12.21,12.21,0,0,1,4.28-.76,11.85,11.85,0,0,1,4.14.7,9.23,9.23,0,0,1,5.52,5.37,11.77,11.77,0,0,1,.79,4.43,12.53,12.53,0,0,1-.79,4.25,21.49,21.49,0,0,1-2.17,4.34,24.62,24.62,0,0,1-3.31,4.08,25.76,25.76,0,0,1-4.19,3.4,21.93,21.93,0,0,1-4.81,2.35,15.66,15.66,0,0,1-5.13.88,15.07,15.07,0,0,1-4.81-.65,11.19,11.19,0,0,1-3-1.47,6.27,6.27,0,0,1-1.58-1.55,6.4,6.4,0,0,1-.53-.91,19,19,0,0,0,.41-2.85q.23-2.32.44-5.69t.38-7.42q.18-4,.18-7.92,0-3.4-.12-5.72t-.32-3.81a12.93,12.93,0,0,0-.5-2.35,4.92,4.92,0,0,0-.65-1.32,2.19,2.19,0,0,0-1.53-.94Zm9.45,23.76q-.12,1-.18,2.41t-.06,2.82q0,1.41.06,2.52a13.13,13.13,0,0,0,.12,1.41,5.49,5.49,0,0,0,.82,1.88,7.88,7.88,0,0,0,1.7,1.85,9.54,9.54,0,0,0,2.44,1.41,8,8,0,0,0,3,.56,8.07,8.07,0,0,0,6.13-2.58q2.43-2.58,2.43-7.92a13.45,13.45,0,0,0-.85-5.07,9.79,9.79,0,0,0-2.14-3.34,8.36,8.36,0,0,0-2.79-1.85,7.56,7.56,0,0,0-2.73-.59,7.15,7.15,0,0,0-2.85.5,10.58,10.58,0,0,0-2,1.14,8.87,8.87,0,0,0-2.17,2.23A6.82,6.82,0,0,0,416.94,233.27Z"
          style="fill:#333"/>
    <path d="M446.16,269.11q.53-.59,1.58-1.94t2.32-3.05q1.26-1.7,2.58-3.64l2.49-3.67q1.17-1.73,2-3.17a12.83,12.83,0,0,0,1.09-2.14l-2-5.22q-1.06-2.76-2.2-5.46t-2.29-5.16a45.7,45.7,0,0,0-2.26-4.31,18.64,18.64,0,0,0-2.14-3,2.78,2.78,0,0,0-1.85-1.11,1.21,1.21,0,0,0-.53.15l-.53.26q-.18.12-.41-.29t0-.53q.24-.18,1.38-.88t2.55-1.5q1.41-.79,2.73-1.44a5.17,5.17,0,0,1,1.91-.65q.59,0,1.38,1.06a17,17,0,0,1,1.64,2.85q.85,1.79,1.79,4.08t1.88,4.78q.94,2.49,1.85,5t1.73,4.69q.76-1.17,2-3.34t2.32-4.63a49,49,0,0,0,1.91-4.87,13.41,13.41,0,0,0,.79-4,3.13,3.13,0,0,0-.82-2.43,2.67,2.67,0,0,0-1.82-.73q-.76,0-1.2,0a6.61,6.61,0,0,0-1,.15.77.77,0,0,1-.35-.15.48.48,0,0,1-.23-.44q0-.29,1.29-.65t3-.65q1.7-.29,3.34-.5a21.81,21.81,0,0,1,2.29-.21,3.12,3.12,0,0,1,2,.53,1.56,1.56,0,0,1,.65,1.23,18.7,18.7,0,0,1-1.5,3.67q-1.14,2.26-2.73,4.93t-3.37,5.51q-1.79,2.85-3.43,5.37t-3,4.52q-1.32,2-1.91,2.93-1.17,1.82-2.23,3.78T457,258.82q-.88,2-1.55,3.75a21,21,0,0,0-1,3.26q-.18.88.32,1.14a2,2,0,0,0,1.29.12,8.05,8.05,0,0,0,1.73-.56,6.83,6.83,0,0,0,1.58-.94q.29-.24.38-.09a.87.87,0,0,1,.09.44,1.82,1.82,0,0,1-.12.62.88.88,0,0,1-.29.44s-.49.18-1.35.53-1.9.73-3.11,1.14-2.49.79-3.84,1.14a14.31,14.31,0,0,1-3.55.53q-1.47,0-1.47-.94a.4.4,0,0,1,0-.18A.26.26,0,0,0,446.16,269.11Z"
          style="fill:#333"/>
    <path d="M436.18,297.53c.08-.08.15-.07.21,0a1,1,0,0,1,.12.41,1.83,1.83,0,0,1,0,.56.89.89,0,0,1-.23.47,25.66,25.66,0,0,1-2.93,2.35q-1.76,1.23-3.64,2.29-.53.29-1.47.76t-2.08.91a23.6,23.6,0,0,1-2.35.76,8.77,8.77,0,0,1-2.26.32,9.85,9.85,0,0,1-4-.82,10.35,10.35,0,0,1-3.29-2.26,10.24,10.24,0,0,1-2.2-3.43,11.65,11.65,0,0,1-.79-4.34,15.7,15.7,0,0,1,.7-4.75,25.31,25.31,0,0,1,1.61-4,28.42,28.42,0,0,1,1.73-3,17.57,17.57,0,0,0,1.11-1.79l-2-.09-1.73,0q-1.88,0-3.17,0a11.26,11.26,0,0,0-2.29.26,2.15,2.15,0,0,0-.88.47,5.33,5.33,0,0,1-.7.53l-.32-.32a.62.62,0,0,1-.21-.44.24.24,0,0,1,.06-.18,4.72,4.72,0,0,1,.76-.67q.76-.62,1.91-1.47l2.52-1.88q1.38-1,2.64-1.91l2.17-1.5a8.73,8.73,0,0,1,1.2-.73.78.78,0,0,1,.7.12q.35.24.23.35a5.21,5.21,0,0,0-.53.44q-.35.32-.23.56a6.06,6.06,0,0,0,2.23.94,29.86,29.86,0,0,0,3.58.67q2,.26,4.11.41t3.81.15q2.52,0,4-.15a19.31,19.31,0,0,0,2.52-.38,11.62,11.62,0,0,0,1.23-.35s.12.06.23.18a.56.56,0,0,1,.18.41q0,.12-.85.59t-1.73,1q-.53.29-1.26.76t-1.58.91a16.51,16.51,0,0,1-1.79.79,6.37,6.37,0,0,1-1.82.41q-.88.12-2.05.18t-2.46.09l-2.61.06-2.43,0-.56,1a9.94,9.94,0,0,0-.73,1.73,23.35,23.35,0,0,0-.65,2.41,13.77,13.77,0,0,0-.29,2.93,12.89,12.89,0,0,0,.73,4.43,10.48,10.48,0,0,0,2.05,3.49,9.39,9.39,0,0,0,7.07,3.11,9.49,9.49,0,0,0,2.38-.29,12.89,12.89,0,0,0,2.17-.76,15.92,15.92,0,0,0,1.91-1,15.73,15.73,0,0,0,1.53-1.09Z"
          style="fill:#333"/>
    <path d="M466.16,280.75q-.65.53-1.53,1.32t-1.85,1.52a14.43,14.43,0,0,1-2,1.26,4.13,4.13,0,0,1-1.94.53,2.82,2.82,0,0,1-1.47-.38,10.64,10.64,0,0,1-1.2-.82q-.56-.44-1.09-.82A1.88,1.88,0,0,0,454,283a3.36,3.36,0,0,0-2.67,1.29,10,10,0,0,0-1.76,3.29,23.51,23.51,0,0,0-1,4.34,33.15,33.15,0,0,0-.32,4.52,24.09,24.09,0,0,0,.15,3,6.81,6.81,0,0,0,.44,1.82,1.68,1.68,0,0,0,.79.91,2.8,2.8,0,0,0,1.2.23,6.38,6.38,0,0,0,1.64-.23q.18-.06.26.23a1.74,1.74,0,0,1,.09.47q0,.12-.18.26a.57.57,0,0,1-.23.15q-1.29.53-2.64,1.14l-2.23,1q-.82.35-2,.76a6,6,0,0,1-2,.41,3.62,3.62,0,0,1-1.55-.29q-.62-.29-.62-.59a1,1,0,0,1,.15-.53,2.8,2.8,0,0,0,.26-.88q.12-.88.26-2.08t.29-2.61q.15-1.41.23-2.9t.09-3q0-3.28-.21-5.57a14.48,14.48,0,0,0-.73-3.7,3.59,3.59,0,0,0-3.75-2.64h-.53a2,2,0,0,0-.47.06.31.31,0,0,1-.35-.35.56.56,0,0,1,.35-.53q.64-.41,2-1.2t2.79-1.53q1.44-.73,2.79-1.32a5.76,5.76,0,0,1,2-.59,1.81,1.81,0,0,1,1.29.5,3.1,3.1,0,0,1,.79,1.26,8.43,8.43,0,0,1,.38,1.73,15.86,15.86,0,0,1,.12,1.91q0,.7,0,1.47c0,.51,0,1.06,0,1.64a44.13,44.13,0,0,1,4.75-6q2.11-2.14,4-2.14a2.1,2.1,0,0,1,1.38.59q.67.59,1.44,1.32a14,14,0,0,0,1.58,1.32,2.89,2.89,0,0,0,1.7.59,2.63,2.63,0,0,0,1.11-.18l.59-.29c.31,0,.47.22.47.65Z"
          style="fill:#333"/>
    <path d="M492.91,298.82q-.65.7-2,1.94a24.82,24.82,0,0,1-3.26,2.46,22.13,22.13,0,0,1-4.25,2.11,14.08,14.08,0,0,1-5,.88,15.29,15.29,0,0,1-4.69-.73,12.3,12.3,0,0,1-4.11-2.23,10.75,10.75,0,0,1-2.9-3.81,13,13,0,0,1-1.09-5.54,25.44,25.44,0,0,1,.35-4.55,17.08,17.08,0,0,1,.94-3.34,12.05,12.05,0,0,1,1.32-2.46,18.66,18.66,0,0,1,1.5-1.85,12.85,12.85,0,0,1,2.29-2,22.25,22.25,0,0,1,2.9-1.7,16.91,16.91,0,0,1,3.29-1.2,14.1,14.1,0,0,1,3.49-.44,9.78,9.78,0,0,1,5,1.06,3.26,3.26,0,0,1,1.79,2.93,3.69,3.69,0,0,1-.7,2.17,12.78,12.78,0,0,0,1.5-.59l1.85-.85,1.67-.79a6.91,6.91,0,0,0,1-.53.28.28,0,0,1,.26-.09.18.18,0,0,1,.15.21,2.46,2.46,0,0,1-.29,1.26,2.54,2.54,0,0,1-.7.79q-.94.59-2.7,1.47t-3.9,1.85q-2.14,1-4.43,1.94L477.81,289l-3.52,1.55q-1.5.68-2,1a8.84,8.84,0,0,0,.79,3.73,9.32,9.32,0,0,0,2.2,3,10.18,10.18,0,0,0,3.37,2,12.22,12.22,0,0,0,4.31.73,15.24,15.24,0,0,0,3.81-.44,16,16,0,0,0,4.72-2,4.83,4.83,0,0,1,.73-.44.72.72,0,0,1,.47.21A.59.59,0,0,1,492.91,298.82Zm-20.65-9q1-.35,2.26-.85t2.46-1.09q1.2-.59,2.2-1.11a10.79,10.79,0,0,0,1.53-.94,3,3,0,0,0,1.06-2.58,4.48,4.48,0,0,0-.26-1.47,4.23,4.23,0,0,0-.79-1.38,4.1,4.1,0,0,0-1.29-1,3.76,3.76,0,0,0-1.7-.38,3.48,3.48,0,0,0-1.76.56,5.62,5.62,0,0,0-1.76,1.82,11.71,11.71,0,0,0-1.38,3.34A19.87,19.87,0,0,0,472.26,289.85Z"
          style="fill:#333"/>
    <path d="M523.07,298.82q-.65.7-2,1.94a24.82,24.82,0,0,1-3.26,2.46,22.13,22.13,0,0,1-4.25,2.11,14.08,14.08,0,0,1-5,.88,15.29,15.29,0,0,1-4.69-.73,12.3,12.3,0,0,1-4.11-2.23,10.75,10.75,0,0,1-2.9-3.81,13,13,0,0,1-1.09-5.54,25.44,25.44,0,0,1,.35-4.55,17.08,17.08,0,0,1,.94-3.34,12.05,12.05,0,0,1,1.32-2.46,18.66,18.66,0,0,1,1.5-1.85,12.85,12.85,0,0,1,2.29-2,22.25,22.25,0,0,1,2.9-1.7,16.91,16.91,0,0,1,3.29-1.2,14.1,14.1,0,0,1,3.49-.44,9.78,9.78,0,0,1,5,1.06,3.26,3.26,0,0,1,1.79,2.93,3.69,3.69,0,0,1-.7,2.17,12.78,12.78,0,0,0,1.5-.59l1.85-.85,1.67-.79a6.91,6.91,0,0,0,1-.53.28.28,0,0,1,.26-.09.18.18,0,0,1,.15.21,2.46,2.46,0,0,1-.29,1.26,2.54,2.54,0,0,1-.7.79q-.94.59-2.7,1.47t-3.9,1.85q-2.14,1-4.43,1.94L508,289l-3.52,1.55q-1.5.68-2,1a8.84,8.84,0,0,0,.79,3.73,9.32,9.32,0,0,0,2.2,3,10.18,10.18,0,0,0,3.37,2,12.22,12.22,0,0,0,4.31.73,15.24,15.24,0,0,0,3.81-.44,16,16,0,0,0,4.72-2,4.83,4.83,0,0,1,.73-.44.72.72,0,0,1,.47.21A.59.59,0,0,1,523.07,298.82Zm-20.65-9q1-.35,2.26-.85t2.46-1.09q1.2-.59,2.2-1.11a10.79,10.79,0,0,0,1.53-.94,3,3,0,0,0,1.06-2.58,4.48,4.48,0,0,0-.26-1.47,4.23,4.23,0,0,0-.79-1.38,4.1,4.1,0,0,0-1.29-1,3.76,3.76,0,0,0-1.7-.38,3.48,3.48,0,0,0-1.76.56,5.62,5.62,0,0,0-1.76,1.82,11.71,11.71,0,0,0-1.38,3.34A19.87,19.87,0,0,0,502.42,289.85Z"
          style="fill:#333"/>
    <path d="M352.91,332.23h-.63l1.37-6.57,0-.23a2.18,2.18,0,0,0,0-.33.32.32,0,0,0-.07-.21.22.22,0,0,0-.18-.08.64.64,0,0,0-.41.22,4.79,4.79,0,0,0-.57.74,15.22,15.22,0,0,0-1.17,2.21q-.5,1.11-.84,2.17a19.92,19.92,0,0,0-.57,2.08h-.54l1.51-7.07a2.64,2.64,0,0,0,.07-.52.42.42,0,0,0,0-.16.26.26,0,0,0-.09-.12.21.21,0,0,0-.13,0q-.31,0-.75.6a12,12,0,0,0-1,1.85q-.29.57-.55,1.19t-.48,1.15q-.21.53-.47,1.3-.38,1.12-.55,1.82h-.55l0-.09.28-1.11.26-1.13q.51-2.33.76-3.81a11.09,11.09,0,0,0,.2-1.67,1.22,1.22,0,0,0-.11-.58.35.35,0,0,0-.32-.21q-.5,0-.88,1.32a12.28,12.28,0,0,0-.37,1.78l-.49-.32a6.76,6.76,0,0,1,.37-1.52,3.4,3.4,0,0,1,.61-1.07,1,1,0,0,1,.72-.39.72.72,0,0,1,.65.44,2.58,2.58,0,0,1,.24,1.21,10.49,10.49,0,0,1-.12,1.47q0,.24-.21,1.22l-.26,1.42,0-.12a27.31,27.31,0,0,1,1.36-3,8.58,8.58,0,0,1,1-1.62,1.28,1.28,0,0,1,.87-.55.52.52,0,0,1,.41.19.73.73,0,0,1,.16.49,4.61,4.61,0,0,1-.12.89l-.76,3.61q.08-.24.39-.92a17.6,17.6,0,0,1,1.52-2.86q.63-.88,1.17-.88a.53.53,0,0,1,.43.19.73.73,0,0,1,.16.49,3.85,3.85,0,0,1-.11.75Z"
          style="fill:#333"/>
    <path d="M358.75,328.38l-.61,2.38a2.69,2.69,0,0,0-.1.61.65.65,0,0,0,.08.34.24.24,0,0,0,.21.14q.19,0,.63-.46l.09.09-.07.08a5.93,5.93,0,0,1-.53.56.53.53,0,0,1-.32.16.44.44,0,0,1-.36-.22.86.86,0,0,1-.15-.5,6.22,6.22,0,0,1,.16-.94l.05-.25a4.81,4.81,0,0,1-.65,1.07,1.81,1.81,0,0,1-1.3.86.71.71,0,0,1-.59-.27,1.11,1.11,0,0,1-.21-.72,2.79,2.79,0,0,1,.35-1.28,3.54,3.54,0,0,1,.87-1.1,1.59,1.59,0,0,1,1-.43.86.86,0,0,1,.77.38l.07-.25Zm-.75.83a.75.75,0,0,0-.26-.39.69.69,0,0,0-.43-.14,1,1,0,0,0-.61.26,2.62,2.62,0,0,0-.59.73,4.27,4.27,0,0,0-.35.82,2.59,2.59,0,0,0-.14.74.92.92,0,0,0,.13.52.41.41,0,0,0,.36.19,1,1,0,0,0,.63-.28,3.37,3.37,0,0,0,.65-.8,3.05,3.05,0,0,0,.31-.6q.11-.3.25-.83Z"
          style="fill:#333"/>
    <path d="M359.5,334.55l.32-.43a1.14,1.14,0,0,0,.85.4,1,1,0,0,0,.81-.4,3.37,3.37,0,0,0,.5-1.3l.3-1.35a1.91,1.91,0,0,1-1.3.84.69.69,0,0,1-.53-.21.79.79,0,0,1-.19-.56,2.53,2.53,0,0,1,.06-.51l.44-2.34.63-.27-.63,2.63a2.22,2.22,0,0,0-.08.48.5.5,0,0,0,.13.36.47.47,0,0,0,.35.14.93.93,0,0,0,.53-.21,4,4,0,0,0,.65-.64l.56-2.49.61-.27-1,3.83a8.9,8.9,0,0,1-.32,1.08,2.63,2.63,0,0,1-.35.65,1.91,1.91,0,0,1-1.56.82A1.26,1.26,0,0,1,359.5,334.55Z"
          style="fill:#333"/>
    <path d="M370.25,332.16l-.43.14.51-2.65,0-.23a1.61,1.61,0,0,0,0-.31c0-.19-.08-.29-.23-.29a.85.85,0,0,0-.52.29,4.22,4.22,0,0,0-.65.84,7.24,7.24,0,0,0-.38.68,7,7,0,0,0-.29.69q-.13.37-.26.84l-.4.14.67-3.61.63-.27-.57,2.36a6.36,6.36,0,0,1,1-1.66,1.51,1.51,0,0,1,1-.65q.49,0,.49.55a4,4,0,0,1-.1.67l-.21,1a9.29,9.29,0,0,1,1.07-1.71,1.2,1.2,0,0,1,.87-.5.5.5,0,0,1,.38.14.57.57,0,0,1,.14.41,3.65,3.65,0,0,1-.13.74l-.2.8-.06.25a3,3,0,0,0-.09.6.68.68,0,0,0,.07.34.21.21,0,0,0,.18.13q.21,0,.65-.48l.1.09-.06.07a5.85,5.85,0,0,1-.55.59.53.53,0,0,1-.33.15.41.41,0,0,1-.34-.21.89.89,0,0,1-.14-.51,3.65,3.65,0,0,1,.08-.62l.24-1.35,0-.23a1.65,1.65,0,0,0,0-.31.26.26,0,0,0-.07-.19.26.26,0,0,0-.2-.07.57.57,0,0,0-.32.12,1.83,1.83,0,0,0-.37.37,6.2,6.2,0,0,0-.44.65,8.84,8.84,0,0,0-.53,1A9.49,9.49,0,0,0,370.25,332.16Z"
          style="fill:#333"/>
    <path d="M374,334.55l.32-.43a1.14,1.14,0,0,0,.85.4,1,1,0,0,0,.81-.4,3.37,3.37,0,0,0,.5-1.3l.3-1.35a1.91,1.91,0,0,1-1.3.84.69.69,0,0,1-.53-.21.79.79,0,0,1-.19-.56,2.53,2.53,0,0,1,.06-.51l.44-2.34.63-.27-.63,2.63a2.22,2.22,0,0,0-.08.48.5.5,0,0,0,.13.36.47.47,0,0,0,.35.14.93.93,0,0,0,.53-.21,4,4,0,0,0,.65-.64l.56-2.49.61-.27-1,3.83a8.9,8.9,0,0,1-.32,1.08,2.63,2.63,0,0,1-.35.65,1.91,1.91,0,0,1-1.56.82A1.26,1.26,0,0,1,374,334.55Z"
          style="fill:#333"/>
    <path d="M383.86,323.39l.69-.33-1.88,8q1.17-2.62,2.3-2.62a.72.72,0,0,1,.41.12.79.79,0,0,1,.28.35,1.24,1.24,0,0,1,.1.5,3.06,3.06,0,0,1-.23,1.1,3.68,3.68,0,0,1-.59,1,1.82,1.82,0,0,1-1.41.78,1.33,1.33,0,0,1-.46-.08,2.29,2.29,0,0,1-.5-.27l-.46.27Zm-1.19,8.18a.92.92,0,0,0,.84.61,1,1,0,0,0,.73-.34,3,3,0,0,0,.6-1,5.1,5.1,0,0,0,.25-.79,3.23,3.23,0,0,0,.1-.68q0-.61-.43-.61a1,1,0,0,0-.65.35,4.58,4.58,0,0,0-.73,1A10.39,10.39,0,0,0,382.68,331.57Z"
          style="fill:#333"/>
    <path d="M390.64,328.38l-.61,2.38a2.69,2.69,0,0,0-.1.61.65.65,0,0,0,.08.34.24.24,0,0,0,.21.14q.19,0,.63-.46l.09.09-.07.08a5.93,5.93,0,0,1-.53.56.53.53,0,0,1-.32.16.44.44,0,0,1-.36-.22.86.86,0,0,1-.15-.5,6.22,6.22,0,0,1,.16-.94l.05-.25a4.81,4.81,0,0,1-.65,1.07,1.81,1.81,0,0,1-1.3.86.71.71,0,0,1-.59-.27,1.11,1.11,0,0,1-.21-.72,2.79,2.79,0,0,1,.35-1.28,3.54,3.54,0,0,1,.87-1.1,1.59,1.59,0,0,1,1-.43.86.86,0,0,1,.77.38l.07-.25Zm-.75.83a.75.75,0,0,0-.26-.39.69.69,0,0,0-.43-.14,1,1,0,0,0-.61.26,2.62,2.62,0,0,0-.59.73,4.27,4.27,0,0,0-.35.82,2.59,2.59,0,0,0-.14.74.92.92,0,0,0,.13.52.41.41,0,0,0,.36.19,1,1,0,0,0,.63-.28,3.37,3.37,0,0,0,.65-.8,3.05,3.05,0,0,0,.31-.6q.11-.3.25-.83Z"
          style="fill:#333"/>
    <path d="M393.69,323.39l.69-.33-1.88,8q1.17-2.62,2.3-2.62a.72.72,0,0,1,.41.12.79.79,0,0,1,.28.35,1.24,1.24,0,0,1,.1.5,3.06,3.06,0,0,1-.23,1.1,3.68,3.68,0,0,1-.59,1,1.82,1.82,0,0,1-1.41.78,1.33,1.33,0,0,1-.46-.08,2.29,2.29,0,0,1-.5-.27l-.46.27Zm-1.19,8.18a.92.92,0,0,0,.84.61,1,1,0,0,0,.73-.34,3,3,0,0,0,.6-1,5.1,5.1,0,0,0,.25-.79,3.23,3.23,0,0,0,.1-.68q0-.61-.43-.61a1,1,0,0,0-.65.35,4.58,4.58,0,0,0-.73,1A10.39,10.39,0,0,0,392.51,331.57Z"
          style="fill:#333"/>
    <path d="M396.22,334.55l.32-.43a1.14,1.14,0,0,0,.85.4,1,1,0,0,0,.81-.4,3.37,3.37,0,0,0,.5-1.3l.3-1.35a1.91,1.91,0,0,1-1.3.84.69.69,0,0,1-.53-.21.79.79,0,0,1-.19-.56A2.53,2.53,0,0,1,397,331l.44-2.34.63-.27-.63,2.63a2.22,2.22,0,0,0-.08.48.5.5,0,0,0,.13.36.47.47,0,0,0,.35.14.93.93,0,0,0,.53-.21,4,4,0,0,0,.65-.64l.56-2.49.61-.27-1,3.83a8.9,8.9,0,0,1-.32,1.08,2.63,2.63,0,0,1-.35.65,1.91,1.91,0,0,1-1.56.82A1.26,1.26,0,0,1,396.22,334.55Z"
          style="fill:#333"/>
    <path d="M408,328.38l-.61,2.38a2.69,2.69,0,0,0-.1.61.65.65,0,0,0,.08.34.24.24,0,0,0,.21.14q.19,0,.63-.46l.09.09-.07.08a5.93,5.93,0,0,1-.53.56.53.53,0,0,1-.32.16.44.44,0,0,1-.36-.22.86.86,0,0,1-.15-.5,6.22,6.22,0,0,1,.16-.94l.05-.25a4.81,4.81,0,0,1-.65,1.07,1.81,1.81,0,0,1-1.3.86.71.71,0,0,1-.59-.27,1.11,1.11,0,0,1-.21-.72,2.79,2.79,0,0,1,.35-1.28,3.54,3.54,0,0,1,.87-1.1,1.59,1.59,0,0,1,1-.43.86.86,0,0,1,.77.38l.07-.25Zm-.75.83a.75.75,0,0,0-.26-.39.69.69,0,0,0-.43-.14,1,1,0,0,0-.61.26,2.62,2.62,0,0,0-.59.73,4.27,4.27,0,0,0-.35.82,2.59,2.59,0,0,0-.14.74.92.92,0,0,0,.13.52.41.41,0,0,0,.36.19,1,1,0,0,0,.63-.28,3.37,3.37,0,0,0,.65-.8,3.05,3.05,0,0,0,.31-.6q.11-.3.25-.83Z"
          style="fill:#333"/>
    <path d="M411.79,323.06l-1.71,7.51-.06.25a2.7,2.7,0,0,0-.08.61.64.64,0,0,0,.08.33.22.22,0,0,0,.19.13q.2,0,.65-.48l.1.09-.06.07a6.24,6.24,0,0,1-.55.59.52.52,0,0,1-.33.15.41.41,0,0,1-.34-.22.87.87,0,0,1-.15-.5,3.53,3.53,0,0,1,.08-.62l1.5-7.58Z"
          style="fill:#333"/>
    <path d="M412.11,328.69l.59-.27v.17q0,.46,0,.86t.1,1.13q.09.86.14,1t.16.19.47-.46a7.69,7.69,0,0,0,.64-1.11l-.2-1.56.59-.27v.16q.05,1.39.11,2l0,.33,0,.27c0,.07,0,.14,0,.22l0,.17q.05.21.17.21t.81-.93a2.9,2.9,0,0,0,.54-1.45.78.78,0,0,0-.31-.69l.5-.46a1,1,0,0,1,.23.68,2.63,2.63,0,0,1-.25,1,7.74,7.74,0,0,1-.76,1.3,8,8,0,0,1-.57.72q-.29.33-.47.33a.23.23,0,0,1-.21-.13,1.39,1.39,0,0,1-.11-.45l-.14-1.17a7.06,7.06,0,0,1-.66,1.08q-.49.67-.78.67a.21.21,0,0,1-.2-.12,1.57,1.57,0,0,1-.12-.45Z"
          style="fill:#333"/>
    <path d="M421.47,328.38l-.61,2.38a2.69,2.69,0,0,0-.1.61.65.65,0,0,0,.08.34.24.24,0,0,0,.21.14q.19,0,.63-.46l.09.09-.07.08a5.93,5.93,0,0,1-.53.56.53.53,0,0,1-.32.16.44.44,0,0,1-.36-.22.86.86,0,0,1-.15-.5,6.22,6.22,0,0,1,.16-.94l.05-.25a4.81,4.81,0,0,1-.65,1.07,1.81,1.81,0,0,1-1.3.86A.71.71,0,0,1,418,332a1.11,1.11,0,0,1-.21-.72,2.79,2.79,0,0,1,.35-1.28,3.54,3.54,0,0,1,.87-1.1,1.59,1.59,0,0,1,1-.43.86.86,0,0,1,.77.38l.07-.25Zm-.75.83a.75.75,0,0,0-.26-.39.69.69,0,0,0-.43-.14,1,1,0,0,0-.61.26,2.62,2.62,0,0,0-.59.73,4.27,4.27,0,0,0-.35.82,2.59,2.59,0,0,0-.14.74.92.92,0,0,0,.13.52.41.41,0,0,0,.36.19,1,1,0,0,0,.63-.28,3.37,3.37,0,0,0,.65-.8,3.05,3.05,0,0,0,.31-.6q.11-.3.25-.83Z"
          style="fill:#333"/>
    <path d="M422.22,334.55l.32-.43a1.14,1.14,0,0,0,.85.4,1,1,0,0,0,.81-.4,3.37,3.37,0,0,0,.5-1.3l.3-1.35a1.91,1.91,0,0,1-1.3.84.69.69,0,0,1-.53-.21.79.79,0,0,1-.19-.56A2.53,2.53,0,0,1,423,331l.44-2.34.63-.27-.63,2.63a2.22,2.22,0,0,0-.08.48.5.5,0,0,0,.13.36.47.47,0,0,0,.35.14.93.93,0,0,0,.53-.21,4,4,0,0,0,.65-.64l.56-2.49.61-.27-1,3.83a8.9,8.9,0,0,1-.32,1.08,2.63,2.63,0,0,1-.35.65,1.91,1.91,0,0,1-1.56.82A1.26,1.26,0,0,1,422.22,334.55Z"
          style="fill:#333"/>
    <path d="M427,331.82l.36-.43a1,1,0,0,0,.91.68.79.79,0,0,0,.56-.21.65.65,0,0,0,.23-.49A.55.55,0,0,0,429,331a3.89,3.89,0,0,0-.53-.48,3.23,3.23,0,0,1-.52-.49.67.67,0,0,1-.13-.41,1,1,0,0,1,.18-.57,1.38,1.38,0,0,1,1.11-.58.81.81,0,0,1,.49.15.45.45,0,0,1,.2.37.41.41,0,0,1-.25.41.75.75,0,0,0-.23-.48.71.71,0,0,0-.49-.17.69.69,0,0,0-.47.17.51.51,0,0,0-.2.39.73.73,0,0,0,.34.54l.38.31a1.19,1.19,0,0,1,.55.89,1.15,1.15,0,0,1-.19.64,1.38,1.38,0,0,1-.52.47,1.45,1.45,0,0,1-.69.18A1.18,1.18,0,0,1,427,331.82Z"
          style="fill:#333"/>
    <path d="M433.85,330.38a4,4,0,0,0,.75-1.26.92.92,0,0,1-.53-.84.68.68,0,0,1,.12-.42.38.38,0,0,1,.31-.16.37.37,0,0,1,.32.18.8.8,0,0,1,.12.47,1.65,1.65,0,0,1-.07.45,1.29,1.29,0,0,0,.32,0,1,1,0,0,0,.66-.23h.31l0,.09a12.49,12.49,0,0,0-.77,1.69,4.08,4.08,0,0,0-.3,1.24.4.4,0,0,0,.08.25.23.23,0,0,0,.19.1q.27,0,.86-.57l.1.12a4.61,4.61,0,0,1-.57.5,1.06,1.06,0,0,1-.64.27.5.5,0,0,1-.4-.17.68.68,0,0,1-.15-.46,2.91,2.91,0,0,1,.38-1.24q.14-.28.35-.64t.54-.85l.06-.09a1.45,1.45,0,0,1-.41.28,1.19,1.19,0,0,1-.45.08,1,1,0,0,1-.25,0,4,4,0,0,1-.78,1.32Zm.89-1.65a1.76,1.76,0,0,0,0-.27.72.72,0,0,0-.08-.36.22.22,0,0,0-.19-.13.14.14,0,0,0-.11.06.24.24,0,0,0,0,.15Q434.34,328.49,434.74,328.73Z"
          style="fill:#333"/>
    <path d="M437.4,331a2.44,2.44,0,0,1,.32-1.17,2.8,2.8,0,0,1,.82-.95,1.72,1.72,0,0,1,1-.36,1.15,1.15,0,0,1,.88.36,1.32,1.32,0,0,1,.34.94,2.56,2.56,0,0,1-.31,1.21,2.81,2.81,0,0,1-.81,1,1.7,1.7,0,0,1-1,.37,1.15,1.15,0,0,1-.89-.37A1.41,1.41,0,0,1,437.4,331Zm2.79-1.43a1,1,0,0,0-.19-.65.59.59,0,0,0-.49-.25.9.9,0,0,0-.52.18,1.71,1.71,0,0,0-.46.51,3.89,3.89,0,0,0-.39.91,3.33,3.33,0,0,0-.15.92,1.25,1.25,0,0,0,.19.74.63.63,0,0,0,.54.26q.57,0,1-.79a3.94,3.94,0,0,0,.35-.91A3.76,3.76,0,0,0,440.19,329.55Z"
          style="fill:#333"/>
    <path d="M445.65,328.38l-.61,2.38a2.69,2.69,0,0,0-.1.61.65.65,0,0,0,.08.34.24.24,0,0,0,.21.14q.19,0,.63-.46l.09.09-.07.08a5.93,5.93,0,0,1-.53.56.53.53,0,0,1-.32.16.44.44,0,0,1-.36-.22.86.86,0,0,1-.15-.5,6.22,6.22,0,0,1,.16-.94l.05-.25a4.81,4.81,0,0,1-.65,1.07,1.81,1.81,0,0,1-1.3.86.71.71,0,0,1-.59-.27,1.11,1.11,0,0,1-.21-.72,2.79,2.79,0,0,1,.35-1.28,3.54,3.54,0,0,1,.87-1.1,1.59,1.59,0,0,1,1-.43.86.86,0,0,1,.77.38l.07-.25Zm-.75.83a.75.75,0,0,0-.26-.39.69.69,0,0,0-.43-.14,1,1,0,0,0-.61.26,2.62,2.62,0,0,0-.59.73,4.27,4.27,0,0,0-.35.82,2.59,2.59,0,0,0-.14.74.92.92,0,0,0,.13.52.41.41,0,0,0,.36.19,1,1,0,0,0,.63-.28,3.37,3.37,0,0,0,.65-.8,3.05,3.05,0,0,0,.31-.6q.11-.3.25-.83Z"
          style="fill:#333"/>
    <path d="M449.61,332.16l-.43.14.51-2.65,0-.23a1.61,1.61,0,0,0,0-.31c0-.19-.08-.29-.23-.29a.85.85,0,0,0-.52.29,4.22,4.22,0,0,0-.65.84,7.24,7.24,0,0,0-.38.68,7,7,0,0,0-.29.69q-.13.37-.26.84l-.4.14.67-3.61.63-.27-.57,2.36a6.36,6.36,0,0,1,1-1.66,1.51,1.51,0,0,1,1-.65q.49,0,.49.55a4,4,0,0,1-.1.67l-.21,1A9.29,9.29,0,0,1,451,329a1.2,1.2,0,0,1,.87-.5.5.5,0,0,1,.38.14.57.57,0,0,1,.14.41,3.65,3.65,0,0,1-.13.74l-.2.8-.06.25a3,3,0,0,0-.09.6.68.68,0,0,0,.07.34.21.21,0,0,0,.18.13q.21,0,.65-.48l.1.09-.06.07a5.85,5.85,0,0,1-.55.59.53.53,0,0,1-.33.15.41.41,0,0,1-.34-.21.89.89,0,0,1-.14-.51,3.65,3.65,0,0,1,.08-.62l.24-1.35,0-.23a1.65,1.65,0,0,0,0-.31.26.26,0,0,0-.07-.19.26.26,0,0,0-.2-.07.57.57,0,0,0-.32.12,1.83,1.83,0,0,0-.37.37,6.2,6.2,0,0,0-.44.65,8.84,8.84,0,0,0-.53,1A9.49,9.49,0,0,0,449.61,332.16Z"
          style="fill:#333"/>
    <path d="M458.24,328.42l-.57,2.14a3.41,3.41,0,0,0-.14.85.7.7,0,0,0,.07.34.21.21,0,0,0,.19.13q.2,0,.65-.48l.1.09-.06.07a6.24,6.24,0,0,1-.55.59.52.52,0,0,1-.33.15.41.41,0,0,1-.34-.21.89.89,0,0,1-.14-.51,3.82,3.82,0,0,1,.08-.62l.41-2.28Zm.19-2.55a.38.38,0,0,1,.27.65.38.38,0,0,1-.54-.54A.37.37,0,0,1,458.43,325.87Z"
          style="fill:#333"/>
    <path d="M459.59,332.3l.69-3.61.62-.27-.56,2.39a7.3,7.3,0,0,1,1.07-1.73,1.46,1.46,0,0,1,1-.59.51.51,0,0,1,.39.16.6.6,0,0,1,.15.43,1.8,1.8,0,0,1-.07.42l-.06.27-.2.79-.07.25a2.7,2.7,0,0,0-.1.6.68.68,0,0,0,.07.34.21.21,0,0,0,.19.13q.2,0,.65-.48l.1.09-.06.07a6.24,6.24,0,0,1-.55.59.52.52,0,0,1-.33.15.41.41,0,0,1-.34-.21.89.89,0,0,1-.14-.51,3.61,3.61,0,0,1,.08-.62l.25-1.38a3.42,3.42,0,0,0,.05-.46.28.28,0,0,0-.07-.21.26.26,0,0,0-.2-.07q-.45,0-1.11,1a6.09,6.09,0,0,0-.53.92,12,12,0,0,0-.47,1.25l-.06.18Z"
          style="fill:#333"/>
    <path d="M468.75,328.75l-.5,2.17a2.76,2.76,0,0,0-.08.51.6.6,0,0,0,.11.38.35.35,0,0,0,.29.14.55.55,0,0,0,.32-.1,3.34,3.34,0,0,0,.45-.42l.08-.08.1.1a4.08,4.08,0,0,1-.64.66.85.85,0,0,1-.5.19.64.64,0,0,1-.5-.21.77.77,0,0,1-.19-.54,3.79,3.79,0,0,1,.1-.72l.42-2.09h-.63l0-.22h.63l.36-1.76.63-.25-.46,2h1.06l0,.22Z"
          style="fill:#333"/>
    <path d="M470.53,332.3l1.73-8.91.68-.33-1.8,7.93,0-.06.15-.34a5.55,5.55,0,0,1,1-1.51,1.49,1.49,0,0,1,1-.59.52.52,0,0,1,.4.16.6.6,0,0,1,.15.43,1.82,1.82,0,0,1-.07.42l-.07.27-.2.79-.06.25a2.68,2.68,0,0,0-.1.6.68.68,0,0,0,.07.34.21.21,0,0,0,.19.13q.2,0,.65-.48l.1.09-.06.07a5.91,5.91,0,0,1-.55.59.53.53,0,0,1-.32.15.41.41,0,0,1-.35-.21.88.88,0,0,1-.14-.5A3.87,3.87,0,0,1,473,331l.25-1.38a2.68,2.68,0,0,0,.06-.46.28.28,0,0,0-.07-.21.26.26,0,0,0-.2-.07.89.89,0,0,0-.55.28,3.76,3.76,0,0,0-.63.78,7,7,0,0,0-.55,1.07,6.16,6.16,0,0,0-.35,1.17Z"
          style="fill:#333"/>
    <path d="M478,331.22l.12.1a3.05,3.05,0,0,1-.79.77,1.54,1.54,0,0,1-.83.24,1.09,1.09,0,0,1-.85-.35,1.34,1.34,0,0,1-.32-.93,2.59,2.59,0,0,1,.31-1.19,3.21,3.21,0,0,1,.78-1,1.44,1.44,0,0,1,.92-.39.63.63,0,0,1,.44.16.52.52,0,0,1,.17.4,1.4,1.4,0,0,1-.55,1,4.53,4.53,0,0,1-1.49.85.94.94,0,0,0,0,.12,1.07,1.07,0,0,0,.25.73.81.81,0,0,0,.64.28,1,1,0,0,0,.59-.19A2.86,2.86,0,0,0,478,331.22Zm-2.08-.5A3.49,3.49,0,0,0,477,330a2.39,2.39,0,0,0,.41-.56,1.19,1.19,0,0,0,.16-.54q0-.31-.28-.31t-.86.67A3.21,3.21,0,0,0,476,330.73Z"
          style="fill:#333"/>
    <path d="M482.26,331a2.44,2.44,0,0,1,.32-1.17,2.8,2.8,0,0,1,.82-.95,1.72,1.72,0,0,1,1-.36,1.15,1.15,0,0,1,.88.36,1.32,1.32,0,0,1,.34.94,2.56,2.56,0,0,1-.31,1.21,2.81,2.81,0,0,1-.81,1,1.7,1.7,0,0,1-1,.37,1.15,1.15,0,0,1-.89-.37A1.41,1.41,0,0,1,482.26,331Zm2.79-1.43a1,1,0,0,0-.19-.65.59.59,0,0,0-.49-.25.9.9,0,0,0-.52.18,1.71,1.71,0,0,0-.46.51,3.89,3.89,0,0,0-.39.91,3.33,3.33,0,0,0-.15.92,1.25,1.25,0,0,0,.19.74.63.63,0,0,0,.54.26q.57,0,1-.79a3.94,3.94,0,0,0,.35-.91A3.76,3.76,0,0,0,485,329.55Z"
          style="fill:#333"/>
    <path d="M489.57,331.26a3.29,3.29,0,0,1-.77.82,1.44,1.44,0,0,1-.83.26,1,1,0,0,1-.82-.35,1.31,1.31,0,0,1-.32-.91,2.63,2.63,0,0,1,.31-1.19,3.11,3.11,0,0,1,.78-1,1.47,1.47,0,0,1,.92-.4.69.69,0,0,1,.48.17.57.57,0,0,1,.18.45.75.75,0,0,1-.19.49.54.54,0,0,1-.41.23.24.24,0,0,1-.18-.08.7.7,0,0,0,.42-.7.4.4,0,0,0-.09-.28.33.33,0,0,0-.25-.1.78.78,0,0,0-.49.2,2.1,2.1,0,0,0-.46.54,3.16,3.16,0,0,0-.34.74,2.71,2.71,0,0,0-.12.8,1.25,1.25,0,0,0,.23.78.72.72,0,0,0,.6.3,1.09,1.09,0,0,0,.62-.2,2.87,2.87,0,0,0,.63-.62Z"
          style="fill:#333"/>
    <path d="M493.35,331.22l.12.1a3.05,3.05,0,0,1-.79.77,1.54,1.54,0,0,1-.83.24A1.09,1.09,0,0,1,491,332a1.34,1.34,0,0,1-.32-.93,2.59,2.59,0,0,1,.31-1.19,3.21,3.21,0,0,1,.78-1,1.44,1.44,0,0,1,.92-.39.63.63,0,0,1,.44.16.52.52,0,0,1,.17.4,1.4,1.4,0,0,1-.55,1,4.53,4.53,0,0,1-1.49.85.94.94,0,0,0,0,.12,1.07,1.07,0,0,0,.25.73.81.81,0,0,0,.64.28,1,1,0,0,0,.59-.19A2.86,2.86,0,0,0,493.35,331.22Zm-2.08-.5a3.49,3.49,0,0,0,1.08-.7,2.39,2.39,0,0,0,.41-.56,1.19,1.19,0,0,0,.16-.54q0-.31-.28-.31t-.86.67A3.21,3.21,0,0,0,491.27,330.73Z"
          style="fill:#333"/>
    <path d="M498.26,328.38l-.61,2.38a2.69,2.69,0,0,0-.1.61.65.65,0,0,0,.08.34.24.24,0,0,0,.21.14q.19,0,.63-.46l.09.09-.07.08a5.93,5.93,0,0,1-.53.56.53.53,0,0,1-.32.16.44.44,0,0,1-.36-.22.86.86,0,0,1-.15-.5,6.22,6.22,0,0,1,.16-.94l.05-.25a4.81,4.81,0,0,1-.65,1.07,1.81,1.81,0,0,1-1.3.86.71.71,0,0,1-.59-.27,1.11,1.11,0,0,1-.21-.72,2.79,2.79,0,0,1,.35-1.28,3.54,3.54,0,0,1,.87-1.1,1.59,1.59,0,0,1,1-.43.86.86,0,0,1,.77.38l.07-.25Zm-.75.83a.75.75,0,0,0-.26-.39.69.69,0,0,0-.43-.14,1,1,0,0,0-.61.26,2.62,2.62,0,0,0-.59.73,4.27,4.27,0,0,0-.35.82,2.59,2.59,0,0,0-.14.74.92.92,0,0,0,.13.52.41.41,0,0,0,.36.19,1,1,0,0,0,.63-.28,3.37,3.37,0,0,0,.65-.8,3.05,3.05,0,0,0,.31-.6q.11-.3.25-.83Z"
          style="fill:#333"/>
    <path d="M499.65,332.3l.69-3.61.62-.27-.56,2.39a7.3,7.3,0,0,1,1.07-1.73,1.46,1.46,0,0,1,1-.59.51.51,0,0,1,.39.16.6.6,0,0,1,.15.43,1.8,1.8,0,0,1-.07.42l-.06.27-.2.79-.07.25a2.7,2.7,0,0,0-.1.6.68.68,0,0,0,.07.34.21.21,0,0,0,.19.13q.2,0,.65-.48l.1.09-.06.07a6.24,6.24,0,0,1-.55.59.52.52,0,0,1-.33.15.41.41,0,0,1-.34-.21.89.89,0,0,1-.14-.51,3.61,3.61,0,0,1,.08-.62l.25-1.38a3.42,3.42,0,0,0,.05-.46.28.28,0,0,0-.07-.21.26.26,0,0,0-.2-.07q-.45,0-1.11,1a6.09,6.09,0,0,0-.53.92,12,12,0,0,0-.47,1.25l-.06.18Z"
          style="fill:#333"/>
    <path d="M507.56,331a2.44,2.44,0,0,1,.32-1.17,2.8,2.8,0,0,1,.82-.95,1.72,1.72,0,0,1,1-.36,1.15,1.15,0,0,1,.88.36,1.32,1.32,0,0,1,.34.94,2.56,2.56,0,0,1-.31,1.21,2.81,2.81,0,0,1-.81,1,1.7,1.7,0,0,1-1,.37,1.15,1.15,0,0,1-.89-.37A1.41,1.41,0,0,1,507.56,331Zm2.79-1.43a1,1,0,0,0-.19-.65.59.59,0,0,0-.49-.25.9.9,0,0,0-.52.18,1.71,1.71,0,0,0-.46.51,3.89,3.89,0,0,0-.39.91,3.33,3.33,0,0,0-.15.92,1.25,1.25,0,0,0,.19.74.63.63,0,0,0,.54.26q.57,0,1-.79a3.94,3.94,0,0,0,.35-.91A3.76,3.76,0,0,0,510.35,329.55Z"
          style="fill:#333"/>
    <path d="M512.94,328.75h-.64l0-.22H513l.61-2.86a8.16,8.16,0,0,1,.32-1.13,3,3,0,0,1,.39-.73,1.68,1.68,0,0,1,1.39-.75,1.4,1.4,0,0,1,.51.09l-.23.59a.79.79,0,0,0-.66-.36.61.61,0,0,0-.5.24,2.09,2.09,0,0,0-.33.78l-1,4.13h1l0,.22h-1.06l-.89,3.7a6.46,6.46,0,0,1-.34,1.11,2.58,2.58,0,0,1-.45.68,1.53,1.53,0,0,1-1.14.57,1.31,1.31,0,0,1-.53-.1l.32-.47a.92.92,0,0,0,.59.22.77.77,0,0,0,.72-.51,6.7,6.7,0,0,0,.37-1.25Z"
          style="fill:#333"/>
    <path d="M520.36,323.06l-1.71,7.51-.06.25a2.7,2.7,0,0,0-.08.61.64.64,0,0,0,.08.33.22.22,0,0,0,.19.13q.2,0,.65-.48l.1.09-.06.07a6.24,6.24,0,0,1-.55.59.52.52,0,0,1-.33.15.41.41,0,0,1-.34-.22.87.87,0,0,1-.15-.5,3.53,3.53,0,0,1,.08-.62l1.5-7.58Z"
          style="fill:#333"/>
    <path d="M520.51,331a2.44,2.44,0,0,1,.32-1.17,2.8,2.8,0,0,1,.82-.95,1.72,1.72,0,0,1,1-.36,1.15,1.15,0,0,1,.88.36,1.32,1.32,0,0,1,.34.94,2.56,2.56,0,0,1-.31,1.21,2.81,2.81,0,0,1-.81,1,1.7,1.7,0,0,1-1,.37,1.15,1.15,0,0,1-.89-.37A1.41,1.41,0,0,1,520.51,331Zm2.79-1.43a1,1,0,0,0-.19-.65.59.59,0,0,0-.49-.25.9.9,0,0,0-.52.18,1.71,1.71,0,0,0-.46.51,3.89,3.89,0,0,0-.39.91,3.33,3.33,0,0,0-.15.92,1.25,1.25,0,0,0,.19.74.63.63,0,0,0,.54.26q.57,0,1-.79a3.94,3.94,0,0,0,.35-.91A3.76,3.76,0,0,0,523.3,329.55Z"
          style="fill:#333"/>
    <path d="M525.26,328.69l.59-.27v.17q0,1,.11,2,.05.55.09.81a1.17,1.17,0,0,0,.09.35.16.16,0,0,0,.14.09q.24,0,.86-.92a2.69,2.69,0,0,0,.55-1.49,1.17,1.17,0,0,0-.06-.4.92.92,0,0,0-.22-.32l.49-.46a1.17,1.17,0,0,1,.23.73,4.37,4.37,0,0,1-1,2.29,5.79,5.79,0,0,1-.66.77,1.9,1.9,0,0,1-.26.21.38.38,0,0,1-.2.06.24.24,0,0,1-.23-.12,1.34,1.34,0,0,1-.11-.47Z"
          style="fill:#333"/>
    <path d="M531.82,331.22l.12.1a3.05,3.05,0,0,1-.79.77,1.54,1.54,0,0,1-.83.24,1.09,1.09,0,0,1-.85-.35,1.34,1.34,0,0,1-.32-.93,2.59,2.59,0,0,1,.31-1.19,3.21,3.21,0,0,1,.78-1,1.44,1.44,0,0,1,.92-.39.63.63,0,0,1,.44.16.52.52,0,0,1,.17.4,1.4,1.4,0,0,1-.55,1,4.53,4.53,0,0,1-1.49.85.94.94,0,0,0,0,.12,1.07,1.07,0,0,0,.25.73.81.81,0,0,0,.64.28,1,1,0,0,0,.59-.19A2.86,2.86,0,0,0,531.82,331.22Zm-2.08-.5a3.49,3.49,0,0,0,1.08-.7,2.39,2.39,0,0,0,.41-.56,1.19,1.19,0,0,0,.16-.54q0-.31-.28-.31t-.86.67A3.21,3.21,0,0,0,529.74,330.73Z"
          style="fill:#333"/>
    <path d="M396.42,342.82l.36-.43a1,1,0,0,0,.91.68.79.79,0,0,0,.56-.21.65.65,0,0,0,.23-.49.55.55,0,0,0-.11-.35,3.89,3.89,0,0,0-.53-.48,3.23,3.23,0,0,1-.52-.49.67.67,0,0,1-.13-.41,1,1,0,0,1,.18-.57,1.38,1.38,0,0,1,1.11-.58.81.81,0,0,1,.49.15.45.45,0,0,1,.2.37.41.41,0,0,1-.25.41.75.75,0,0,0-.23-.48.71.71,0,0,0-.49-.17.69.69,0,0,0-.47.17.51.51,0,0,0-.2.39.73.73,0,0,0,.34.54l.38.31a1.19,1.19,0,0,1,.55.89,1.15,1.15,0,0,1-.19.64,1.38,1.38,0,0,1-.52.47,1.45,1.45,0,0,1-.69.18A1.18,1.18,0,0,1,396.42,342.82Z"
          style="fill:#333"/>
    <path d="M400.28,342a2.44,2.44,0,0,1,.32-1.17,2.8,2.8,0,0,1,.82-.95,1.72,1.72,0,0,1,1-.36,1.15,1.15,0,0,1,.88.36,1.32,1.32,0,0,1,.34.94,2.56,2.56,0,0,1-.31,1.21,2.81,2.81,0,0,1-.81,1,1.7,1.7,0,0,1-1,.37,1.15,1.15,0,0,1-.89-.37A1.41,1.41,0,0,1,400.28,342Zm2.79-1.43a1,1,0,0,0-.19-.65.59.59,0,0,0-.49-.25.9.9,0,0,0-.52.18,1.71,1.71,0,0,0-.46.51,3.89,3.89,0,0,0-.39.91,3.33,3.33,0,0,0-.15.92,1.25,1.25,0,0,0,.19.74.63.63,0,0,0,.54.26q.57,0,1-.79a3.94,3.94,0,0,0,.35-.91A3.76,3.76,0,0,0,403.07,340.55Z"
          style="fill:#333"/>
    <path d="M408.53,339.38l-.61,2.38a2.69,2.69,0,0,0-.1.61.65.65,0,0,0,.08.34.24.24,0,0,0,.21.14q.19,0,.63-.46l.09.09-.07.08a5.93,5.93,0,0,1-.53.56.53.53,0,0,1-.32.16.44.44,0,0,1-.36-.22.86.86,0,0,1-.15-.5,6.22,6.22,0,0,1,.16-.94l.05-.25a4.81,4.81,0,0,1-.65,1.07,1.81,1.81,0,0,1-1.3.86.71.71,0,0,1-.59-.27,1.11,1.11,0,0,1-.21-.72,2.79,2.79,0,0,1,.35-1.28,3.54,3.54,0,0,1,.87-1.1,1.59,1.59,0,0,1,1-.43.86.86,0,0,1,.77.38l.07-.25Zm-.75.83a.75.75,0,0,0-.26-.39.69.69,0,0,0-.43-.14,1,1,0,0,0-.61.26,2.62,2.62,0,0,0-.59.73,4.27,4.27,0,0,0-.35.82,2.59,2.59,0,0,0-.14.74.92.92,0,0,0,.13.52.41.41,0,0,0,.36.19,1,1,0,0,0,.63-.28,3.37,3.37,0,0,0,.65-.8,3.05,3.05,0,0,0,.31-.6q.11-.3.25-.83Z"
          style="fill:#333"/>
    <path d="M409.86,341.38a4,4,0,0,0,.75-1.26.92.92,0,0,1-.53-.84.68.68,0,0,1,.12-.42.38.38,0,0,1,.31-.16.37.37,0,0,1,.32.18.8.8,0,0,1,.12.47,1.65,1.65,0,0,1-.07.45,1.29,1.29,0,0,0,.32,0,1,1,0,0,0,.66-.23h.31l0,.09a12.49,12.49,0,0,0-.77,1.69,4.08,4.08,0,0,0-.3,1.24.4.4,0,0,0,.08.25.23.23,0,0,0,.19.1q.27,0,.86-.57l.1.12a4.61,4.61,0,0,1-.57.5,1.06,1.06,0,0,1-.64.27.5.5,0,0,1-.4-.17.68.68,0,0,1-.15-.46,2.91,2.91,0,0,1,.38-1.24q.14-.28.35-.64t.54-.85l.06-.09a1.45,1.45,0,0,1-.41.28,1.19,1.19,0,0,1-.45.08,1,1,0,0,1-.25,0,4,4,0,0,1-.78,1.32Zm.89-1.65a1.76,1.76,0,0,0,0-.27.72.72,0,0,0-.08-.36.22.22,0,0,0-.19-.13.14.14,0,0,0-.11.06.24.24,0,0,0,0,.15Q410.35,339.49,410.76,339.73Z"
          style="fill:#333"/>
    <path d="M417.7,339.42l-.57,2.14a3.41,3.41,0,0,0-.14.85.7.7,0,0,0,.07.34.21.21,0,0,0,.19.13q.2,0,.65-.48l.1.09-.06.07a6.24,6.24,0,0,1-.55.59.52.52,0,0,1-.33.15.41.41,0,0,1-.34-.21.89.89,0,0,1-.14-.51,3.82,3.82,0,0,1,.08-.62l.41-2.28Zm.19-2.55a.38.38,0,0,1,.27.65.38.38,0,0,1-.54-.54A.37.37,0,0,1,417.89,336.87Z"
          style="fill:#333"/>
    <path d="M419.05,343.3l.69-3.61.62-.27-.56,2.39a7.3,7.3,0,0,1,1.07-1.73,1.46,1.46,0,0,1,1-.59.51.51,0,0,1,.39.16.6.6,0,0,1,.15.43,1.8,1.8,0,0,1-.07.42l-.06.27-.2.79-.07.25a2.7,2.7,0,0,0-.1.6.68.68,0,0,0,.07.34.21.21,0,0,0,.19.13q.2,0,.65-.48l.1.09-.06.07a6.24,6.24,0,0,1-.55.59.52.52,0,0,1-.33.15.41.41,0,0,1-.34-.21.89.89,0,0,1-.14-.51,3.61,3.61,0,0,1,.08-.62l.25-1.38a3.42,3.42,0,0,0,.05-.46.28.28,0,0,0-.07-.21.26.26,0,0,0-.2-.07q-.45,0-1.11,1a6.09,6.09,0,0,0-.53.92,12,12,0,0,0-.47,1.25l-.06.18Z"
          style="fill:#333"/>
    <path d="M428.2,339.75l-.5,2.17a2.76,2.76,0,0,0-.08.51.6.6,0,0,0,.11.38.35.35,0,0,0,.29.14.55.55,0,0,0,.32-.1,3.34,3.34,0,0,0,.45-.42l.08-.08.1.1a4.08,4.08,0,0,1-.64.66.85.85,0,0,1-.5.19.64.64,0,0,1-.5-.21.77.77,0,0,1-.19-.54,3.79,3.79,0,0,1,.1-.72l.42-2.09H427l0-.22h.63l.36-1.76.63-.25-.46,2h1.06l0,.22Z"
          style="fill:#333"/>
    <path d="M430,343.3l1.73-8.91.68-.33L430.6,342l0-.06.15-.34a5.55,5.55,0,0,1,1-1.51,1.49,1.49,0,0,1,1-.59.52.52,0,0,1,.4.16.6.6,0,0,1,.15.43,1.82,1.82,0,0,1-.07.42l-.07.27-.2.79-.06.25a2.68,2.68,0,0,0-.1.6.68.68,0,0,0,.07.34.21.21,0,0,0,.19.13q.2,0,.65-.48l.1.09-.06.07a5.91,5.91,0,0,1-.55.59.53.53,0,0,1-.32.15.41.41,0,0,1-.35-.21.88.88,0,0,1-.14-.5,3.87,3.87,0,0,1,.08-.62l.25-1.38a2.68,2.68,0,0,0,.06-.46.28.28,0,0,0-.07-.21.26.26,0,0,0-.2-.07.89.89,0,0,0-.55.28,3.76,3.76,0,0,0-.63.78,7,7,0,0,0-.55,1.07,6.16,6.16,0,0,0-.35,1.17Z"
          style="fill:#333"/>
    <path d="M437.5,342.22l.12.1a3.05,3.05,0,0,1-.79.77,1.54,1.54,0,0,1-.83.24,1.09,1.09,0,0,1-.85-.35,1.34,1.34,0,0,1-.32-.93,2.59,2.59,0,0,1,.31-1.19,3.21,3.21,0,0,1,.78-1,1.44,1.44,0,0,1,.92-.39.63.63,0,0,1,.44.16.52.52,0,0,1,.17.4,1.4,1.4,0,0,1-.55,1,4.53,4.53,0,0,1-1.49.85.94.94,0,0,0,0,.12,1.07,1.07,0,0,0,.25.73.81.81,0,0,0,.64.28,1,1,0,0,0,.59-.19A2.86,2.86,0,0,0,437.5,342.22Zm-2.08-.5a3.49,3.49,0,0,0,1.08-.7,2.39,2.39,0,0,0,.41-.56,1.19,1.19,0,0,0,.16-.54q0-.31-.28-.31t-.86.67A3.21,3.21,0,0,0,435.42,341.73Z"
          style="fill:#333"/>
    <path d="M441.69,343.3l1.73-8.91.68-.33L442.3,342l0-.06.15-.34a5.55,5.55,0,0,1,1-1.51,1.49,1.49,0,0,1,1-.59.52.52,0,0,1,.4.16.6.6,0,0,1,.15.43,1.82,1.82,0,0,1-.07.42l-.07.27-.2.79-.06.25a2.68,2.68,0,0,0-.1.6.68.68,0,0,0,.07.34.21.21,0,0,0,.19.13q.2,0,.65-.48l.1.09-.06.07a5.91,5.91,0,0,1-.55.59.53.53,0,0,1-.32.15.41.41,0,0,1-.35-.21.88.88,0,0,1-.14-.5,3.87,3.87,0,0,1,.08-.62l.25-1.38a2.68,2.68,0,0,0,.06-.46.28.28,0,0,0-.07-.21.26.26,0,0,0-.2-.07.89.89,0,0,0-.55.28,3.76,3.76,0,0,0-.63.78,7,7,0,0,0-.55,1.07,6.16,6.16,0,0,0-.35,1.17Z"
          style="fill:#333"/>
    <path d="M450.21,339.38l-.61,2.38a2.69,2.69,0,0,0-.1.61.65.65,0,0,0,.08.34.24.24,0,0,0,.21.14q.19,0,.63-.46l.09.09-.07.08a5.93,5.93,0,0,1-.53.56.53.53,0,0,1-.32.16.44.44,0,0,1-.36-.22.86.86,0,0,1-.15-.5,6.22,6.22,0,0,1,.16-.94l.05-.25a4.81,4.81,0,0,1-.65,1.07,1.81,1.81,0,0,1-1.3.86.71.71,0,0,1-.59-.27,1.11,1.11,0,0,1-.21-.72,2.79,2.79,0,0,1,.35-1.28,3.54,3.54,0,0,1,.87-1.1,1.59,1.59,0,0,1,1-.43.86.86,0,0,1,.77.38l.07-.25Zm-.75.83a.75.75,0,0,0-.26-.39.69.69,0,0,0-.43-.14,1,1,0,0,0-.61.26,2.62,2.62,0,0,0-.59.73,4.27,4.27,0,0,0-.35.82,2.59,2.59,0,0,0-.14.74.92.92,0,0,0,.13.52.41.41,0,0,0,.36.19,1,1,0,0,0,.63-.28,3.37,3.37,0,0,0,.65-.8,3.05,3.05,0,0,0,.31-.6q.11-.3.25-.83Z"
          style="fill:#333"/>
    <path d="M451.09,345.82l1.23-6.13.63-.27-.43,1.87a5.47,5.47,0,0,1,.91-1.4,1.3,1.3,0,0,1,.93-.43.75.75,0,0,1,.62.29,1.23,1.23,0,0,1,.23.79,2.9,2.9,0,0,1-.21,1,3.34,3.34,0,0,1-.58,1,1.92,1.92,0,0,1-1.48.81,1.27,1.27,0,0,1-.83-.27l-.67,2.72Zm1.12-3.15a.84.84,0,0,0,.77.53q.72,0,1.25-1.17a3.91,3.91,0,0,0,.44-1.58.93.93,0,0,0-.13-.53.42.42,0,0,0-.37-.19,1.16,1.16,0,0,0-.82.51,5.34,5.34,0,0,0-.7,1.13q-.11.25-.21.53t-.18.57Z"
          style="fill:#333"/>
    <path d="M456,345.82l1.23-6.13.63-.27-.43,1.87a5.47,5.47,0,0,1,.91-1.4,1.3,1.3,0,0,1,.93-.43.75.75,0,0,1,.62.29,1.23,1.23,0,0,1,.23.79,2.9,2.9,0,0,1-.21,1,3.34,3.34,0,0,1-.58,1,1.92,1.92,0,0,1-1.48.81,1.27,1.27,0,0,1-.83-.27l-.67,2.72Zm1.12-3.15a.84.84,0,0,0,.77.53q.72,0,1.25-1.17a3.91,3.91,0,0,0,.44-1.58.93.93,0,0,0-.13-.53.42.42,0,0,0-.37-.19,1.16,1.16,0,0,0-.82.51,5.34,5.34,0,0,0-.7,1.13q-.11.25-.21.53t-.18.57Z"
          style="fill:#333"/>
    <path d="M460.71,345.55l.32-.43a1.14,1.14,0,0,0,.85.4,1,1,0,0,0,.81-.4,3.37,3.37,0,0,0,.5-1.3l.3-1.35a1.91,1.91,0,0,1-1.3.84.69.69,0,0,1-.53-.21.79.79,0,0,1-.19-.56,2.53,2.53,0,0,1,.06-.51l.44-2.34.63-.27L462,342a2.22,2.22,0,0,0-.08.48.5.5,0,0,0,.13.36.47.47,0,0,0,.35.14.93.93,0,0,0,.53-.21,4,4,0,0,0,.65-.64l.56-2.49.61-.27-1,3.83a8.9,8.9,0,0,1-.32,1.08,2.63,2.63,0,0,1-.35.65,1.91,1.91,0,0,1-1.56.82A1.26,1.26,0,0,1,460.71,345.55Z"
          style="fill:#333"/>
    <path d="M468.48,342.82l.36-.43a1,1,0,0,0,.91.68.79.79,0,0,0,.56-.21.65.65,0,0,0,.23-.49.55.55,0,0,0-.11-.35,3.89,3.89,0,0,0-.53-.48,3.23,3.23,0,0,1-.52-.49.67.67,0,0,1-.13-.41,1,1,0,0,1,.18-.57,1.38,1.38,0,0,1,1.11-.58.81.81,0,0,1,.49.15.45.45,0,0,1,.2.37.41.41,0,0,1-.25.41.75.75,0,0,0-.23-.48.71.71,0,0,0-.49-.17.69.69,0,0,0-.47.17.51.51,0,0,0-.2.39.73.73,0,0,0,.34.54l.38.31a1.19,1.19,0,0,1,.55.89,1.15,1.15,0,0,1-.19.64,1.38,1.38,0,0,1-.52.47,1.45,1.45,0,0,1-.69.18A1.18,1.18,0,0,1,468.48,342.82Z"
          style="fill:#333"/>
    <path d="M474.76,334.06,473,341.76a4.56,4.56,0,0,1,.36-.68,5.57,5.57,0,0,1,.48-.64,3.86,3.86,0,0,1,.51-.5,2.46,2.46,0,0,1,.64-.38,2.35,2.35,0,0,1,.73-.14l-.12.52-.29,0a1.89,1.89,0,0,0-1.43.78,11.36,11.36,0,0,0,.57,1.29q.17.33.3.53a1.31,1.31,0,0,0,.23.29.33.33,0,0,0,.21.09q.25,0,.63-.4l.05-.06.08.1q-.66.79-1,.79a.53.53,0,0,1-.38-.18,2.79,2.79,0,0,1-.41-.61,12.09,12.09,0,0,1-.67-1.42,5.72,5.72,0,0,0-.78,2l-.42.14,1.75-8.9Z"
          style="fill:#333"/>
    <path d="M476.29,345.55l.32-.43a1.14,1.14,0,0,0,.85.4,1,1,0,0,0,.81-.4,3.37,3.37,0,0,0,.5-1.3l.3-1.35a1.91,1.91,0,0,1-1.3.84.69.69,0,0,1-.53-.21.79.79,0,0,1-.19-.56,2.53,2.53,0,0,1,.06-.51l.44-2.34.63-.27-.63,2.63a2.22,2.22,0,0,0-.08.48.5.5,0,0,0,.13.36.47.47,0,0,0,.35.14.93.93,0,0,0,.53-.21,4,4,0,0,0,.65-.64l.56-2.49.61-.27-1,3.83a8.9,8.9,0,0,1-.32,1.08,2.63,2.63,0,0,1-.35.65,1.91,1.91,0,0,1-1.56.82A1.26,1.26,0,0,1,476.29,345.55Z"
          style="fill:#333"/>
    <path d="M384.57,345.39l.69-.33-1.88,8q1.17-2.62,2.3-2.62a.72.72,0,0,1,.41.12.79.79,0,0,1,.28.35,1.24,1.24,0,0,1,.1.5,3.06,3.06,0,0,1-.23,1.1,3.68,3.68,0,0,1-.59,1,1.82,1.82,0,0,1-1.41.78,1.33,1.33,0,0,1-.46-.08,2.29,2.29,0,0,1-.5-.27l-.46.27Zm-1.19,8.18a.92.92,0,0,0,.84.61,1,1,0,0,0,.73-.34,3,3,0,0,0,.6-1,5.1,5.1,0,0,0,.25-.79,3.23,3.23,0,0,0,.1-.68q0-.61-.43-.61a1,1,0,0,0-.65.35,4.58,4.58,0,0,0-.73,1A10.39,10.39,0,0,0,383.38,353.57Z"
          style="fill:#333"/>
    <path d="M390.33,353.22l.12.1a3.05,3.05,0,0,1-.79.77,1.54,1.54,0,0,1-.83.24A1.09,1.09,0,0,1,388,354a1.34,1.34,0,0,1-.32-.93,2.59,2.59,0,0,1,.31-1.19,3.21,3.21,0,0,1,.78-1,1.44,1.44,0,0,1,.92-.39.63.63,0,0,1,.44.16.52.52,0,0,1,.17.4,1.4,1.4,0,0,1-.55,1,4.53,4.53,0,0,1-1.49.85.94.94,0,0,0,0,.12,1.07,1.07,0,0,0,.25.73.81.81,0,0,0,.64.28,1,1,0,0,0,.59-.19A2.86,2.86,0,0,0,390.33,353.22Zm-2.08-.5a3.49,3.49,0,0,0,1.08-.7,2.39,2.39,0,0,0,.41-.56,1.19,1.19,0,0,0,.16-.54q0-.31-.28-.31t-.86.67A3.21,3.21,0,0,0,388.25,352.73Z"
          style="fill:#333"/>
    <path d="M394.19,353.82l.36-.43a1,1,0,0,0,.91.68.79.79,0,0,0,.56-.21.65.65,0,0,0,.23-.49.55.55,0,0,0-.11-.35,3.89,3.89,0,0,0-.53-.48,3.23,3.23,0,0,1-.52-.49.67.67,0,0,1-.13-.41,1,1,0,0,1,.18-.57,1.38,1.38,0,0,1,1.11-.58.81.81,0,0,1,.49.15.45.45,0,0,1,.2.37.41.41,0,0,1-.25.41.75.75,0,0,0-.23-.48.71.71,0,0,0-.49-.17.69.69,0,0,0-.47.17.51.51,0,0,0-.2.39.73.73,0,0,0,.34.54l.38.31a1.19,1.19,0,0,1,.55.89,1.15,1.15,0,0,1-.19.64,1.38,1.38,0,0,1-.52.47,1.45,1.45,0,0,1-.69.18A1.18,1.18,0,0,1,394.19,353.82Z"
          style="fill:#333"/>
    <path d="M401.73,350.38l-.61,2.38a2.69,2.69,0,0,0-.1.61.65.65,0,0,0,.08.34.24.24,0,0,0,.21.14q.19,0,.63-.46l.09.09-.07.08a5.93,5.93,0,0,1-.53.56.53.53,0,0,1-.32.16.44.44,0,0,1-.36-.22.86.86,0,0,1-.15-.5,6.22,6.22,0,0,1,.16-.94l.05-.25a4.81,4.81,0,0,1-.65,1.07,1.81,1.81,0,0,1-1.3.86.71.71,0,0,1-.59-.27,1.11,1.11,0,0,1-.21-.72,2.79,2.79,0,0,1,.35-1.28,3.54,3.54,0,0,1,.87-1.1,1.59,1.59,0,0,1,1-.43.86.86,0,0,1,.77.38l.07-.25Zm-.75.83a.75.75,0,0,0-.26-.39.69.69,0,0,0-.43-.14,1,1,0,0,0-.61.26,2.62,2.62,0,0,0-.59.73,4.27,4.27,0,0,0-.35.82,2.59,2.59,0,0,0-.14.74.92.92,0,0,0,.13.52.41.41,0,0,0,.36.19,1,1,0,0,0,.63-.28,3.37,3.37,0,0,0,.65-.8,3.05,3.05,0,0,0,.31-.6q.11-.3.25-.83Z"
          style="fill:#333"/>
    <path d="M403.87,350.75h-.64l0-.22h.65l.61-2.86a8.16,8.16,0,0,1,.32-1.13,3,3,0,0,1,.39-.73,1.68,1.68,0,0,1,1.39-.75,1.4,1.4,0,0,1,.51.09l-.23.59a.79.79,0,0,0-.66-.36.61.61,0,0,0-.5.24,2.09,2.09,0,0,0-.33.78l-1,4.13h1l0,.22h-1.06l-.89,3.7a6.46,6.46,0,0,1-.34,1.11,2.58,2.58,0,0,1-.45.68,1.53,1.53,0,0,1-1.14.57,1.31,1.31,0,0,1-.53-.1l.32-.47a.92.92,0,0,0,.59.22.77.77,0,0,0,.72-.51,6.7,6.7,0,0,0,.37-1.25Z"
          style="fill:#333"/>
    <path d="M408.53,353.22l.12.1a3.05,3.05,0,0,1-.79.77,1.54,1.54,0,0,1-.83.24,1.09,1.09,0,0,1-.85-.35,1.34,1.34,0,0,1-.32-.93,2.59,2.59,0,0,1,.31-1.19,3.21,3.21,0,0,1,.78-1,1.44,1.44,0,0,1,.92-.39.63.63,0,0,1,.44.16.52.52,0,0,1,.17.4,1.4,1.4,0,0,1-.55,1,4.53,4.53,0,0,1-1.49.85.94.94,0,0,0,0,.12,1.07,1.07,0,0,0,.25.73.81.81,0,0,0,.64.28,1,1,0,0,0,.59-.19A2.86,2.86,0,0,0,408.53,353.22Zm-2.08-.5a3.49,3.49,0,0,0,1.08-.7,2.39,2.39,0,0,0,.41-.56,1.19,1.19,0,0,0,.16-.54q0-.31-.28-.31t-.86.67A3.21,3.21,0,0,0,406.44,352.73Z"
          style="fill:#333"/>
    <path d="M416.41,350.38l-.61,2.38a2.69,2.69,0,0,0-.1.61.65.65,0,0,0,.08.34.24.24,0,0,0,.21.14q.19,0,.63-.46l.09.09-.07.08a5.93,5.93,0,0,1-.53.56.53.53,0,0,1-.32.16.44.44,0,0,1-.36-.22.86.86,0,0,1-.15-.5,6.22,6.22,0,0,1,.16-.94l.05-.25a4.81,4.81,0,0,1-.65,1.07,1.81,1.81,0,0,1-1.3.86A.71.71,0,0,1,413,354a1.11,1.11,0,0,1-.21-.72,2.79,2.79,0,0,1,.35-1.28,3.54,3.54,0,0,1,.87-1.1,1.59,1.59,0,0,1,1-.43.86.86,0,0,1,.77.38l.07-.25Zm-.75.83a.75.75,0,0,0-.26-.39.69.69,0,0,0-.43-.14,1,1,0,0,0-.61.26,2.62,2.62,0,0,0-.59.73,4.27,4.27,0,0,0-.35.82,2.59,2.59,0,0,0-.14.74.92.92,0,0,0,.13.52.41.41,0,0,0,.36.19,1,1,0,0,0,.63-.28,3.37,3.37,0,0,0,.65-.8,3.05,3.05,0,0,0,.31-.6q.11-.3.25-.83Z"
          style="fill:#333"/>
    <path d="M417.81,354.3l.69-3.61.62-.27-.56,2.39a7.3,7.3,0,0,1,1.07-1.73,1.46,1.46,0,0,1,1-.59.51.51,0,0,1,.39.16.6.6,0,0,1,.15.43,1.8,1.8,0,0,1-.07.42l-.06.27-.2.79-.07.25a2.7,2.7,0,0,0-.1.6.68.68,0,0,0,.07.34.21.21,0,0,0,.19.13q.2,0,.65-.48l.1.09-.06.07a6.24,6.24,0,0,1-.55.59.52.52,0,0,1-.33.15.41.41,0,0,1-.34-.21.89.89,0,0,1-.14-.51,3.61,3.61,0,0,1,.08-.62l.25-1.38a3.42,3.42,0,0,0,.05-.46.28.28,0,0,0-.07-.21.26.26,0,0,0-.2-.07q-.45,0-1.11,1a6.09,6.09,0,0,0-.53.92,12,12,0,0,0-.47,1.25l-.06.18Z"
          style="fill:#333"/>
    <path d="M427.47,345.06l-1.73,7.51a4.46,4.46,0,0,0-.14.83.68.68,0,0,0,.07.34.23.23,0,0,0,.21.13.65.65,0,0,0,.41-.25l.19-.19h0l.1.09-.05.06-.25.28-.21.21a1.35,1.35,0,0,1-.24.21.33.33,0,0,1-.17,0,.42.42,0,0,1-.36-.22.91.91,0,0,1-.14-.51,3.77,3.77,0,0,1,.09-.62l.07-.37a4.11,4.11,0,0,1-.53.89,1.76,1.76,0,0,1-1.28.85A.71.71,0,0,1,423,354a1.15,1.15,0,0,1-.21-.73,2.84,2.84,0,0,1,.34-1.31,3.38,3.38,0,0,1,.86-1.09,1.66,1.66,0,0,1,1-.43,1.24,1.24,0,0,1,.72.23l1.06-5.32Zm-1.82,6a.51.51,0,0,0-.24-.28.76.76,0,0,0-.39-.11,1,1,0,0,0-.63.27,2.88,2.88,0,0,0-.61.77,4,4,0,0,0-.34.81,2.76,2.76,0,0,0-.13.8.85.85,0,0,0,.13.5.43.43,0,0,0,.37.19.93.93,0,0,0,.59-.28,3.5,3.5,0,0,0,.63-.81,3.55,3.55,0,0,0,.34-.74q.15-.5.21-.79Z"
          style="fill:#333"/>
    <path d="M430.6,354.3l1.73-8.91.68-.33-1.8,7.93,0-.06.15-.34a5.55,5.55,0,0,1,1-1.51,1.49,1.49,0,0,1,1-.59.52.52,0,0,1,.4.16.6.6,0,0,1,.15.43,1.82,1.82,0,0,1-.07.42l-.07.27-.2.79-.06.25a2.68,2.68,0,0,0-.1.6.68.68,0,0,0,.07.34.21.21,0,0,0,.19.13q.2,0,.65-.48l.1.09-.06.07a5.91,5.91,0,0,1-.55.59.53.53,0,0,1-.32.15.41.41,0,0,1-.35-.21.88.88,0,0,1-.14-.5,3.87,3.87,0,0,1,.08-.62l.25-1.38a2.68,2.68,0,0,0,.06-.46.28.28,0,0,0-.07-.21.26.26,0,0,0-.2-.07.89.89,0,0,0-.55.28,3.76,3.76,0,0,0-.63.78,7,7,0,0,0-.55,1.07,6.16,6.16,0,0,0-.35,1.17Z"
          style="fill:#333"/>
    <path d="M439.12,350.38l-.61,2.38a2.69,2.69,0,0,0-.1.61.65.65,0,0,0,.08.34.24.24,0,0,0,.21.14q.19,0,.63-.46l.09.09-.07.08a5.93,5.93,0,0,1-.53.56.53.53,0,0,1-.32.16.44.44,0,0,1-.36-.22.86.86,0,0,1-.15-.5,6.22,6.22,0,0,1,.16-.94l.05-.25a4.81,4.81,0,0,1-.65,1.07,1.81,1.81,0,0,1-1.3.86.71.71,0,0,1-.59-.27,1.11,1.11,0,0,1-.21-.72,2.79,2.79,0,0,1,.35-1.28,3.54,3.54,0,0,1,.87-1.1,1.59,1.59,0,0,1,1-.43.86.86,0,0,1,.77.38l.07-.25Zm-.75.83a.75.75,0,0,0-.26-.39.69.69,0,0,0-.43-.14,1,1,0,0,0-.61.26,2.62,2.62,0,0,0-.59.73,4.27,4.27,0,0,0-.35.82,2.59,2.59,0,0,0-.14.74.92.92,0,0,0,.13.52.41.41,0,0,0,.36.19,1,1,0,0,0,.63-.28,3.37,3.37,0,0,0,.65-.8,3.05,3.05,0,0,0,.31-.6q.11-.3.25-.83Z"
          style="fill:#333"/>
    <path d="M440,356.82l1.23-6.13.63-.27-.43,1.87a5.47,5.47,0,0,1,.91-1.4,1.3,1.3,0,0,1,.93-.43.75.75,0,0,1,.62.29,1.23,1.23,0,0,1,.23.79,2.9,2.9,0,0,1-.21,1,3.34,3.34,0,0,1-.58,1,1.92,1.92,0,0,1-1.48.81,1.27,1.27,0,0,1-.83-.27l-.67,2.72Zm1.12-3.15a.84.84,0,0,0,.77.53q.72,0,1.25-1.17a3.91,3.91,0,0,0,.44-1.58.93.93,0,0,0-.13-.53.42.42,0,0,0-.37-.19,1.16,1.16,0,0,0-.82.51,5.34,5.34,0,0,0-.7,1.13q-.11.25-.21.53t-.18.57Z"
          style="fill:#333"/>
    <path d="M444.88,356.82l1.23-6.13.63-.27-.43,1.87a5.47,5.47,0,0,1,.91-1.4,1.3,1.3,0,0,1,.93-.43.75.75,0,0,1,.62.29,1.23,1.23,0,0,1,.23.79,2.9,2.9,0,0,1-.21,1,3.34,3.34,0,0,1-.58,1,1.92,1.92,0,0,1-1.48.81,1.27,1.27,0,0,1-.83-.27l-.67,2.72Zm1.12-3.15a.84.84,0,0,0,.77.53q.72,0,1.25-1.17a3.91,3.91,0,0,0,.44-1.58.93.93,0,0,0-.13-.53.42.42,0,0,0-.37-.19,1.16,1.16,0,0,0-.82.51,5.34,5.34,0,0,0-.7,1.13q-.11.25-.21.53t-.18.57Z"
          style="fill:#333"/>
    <path d="M449.62,356.55l.32-.43a1.14,1.14,0,0,0,.85.4,1,1,0,0,0,.81-.4,3.37,3.37,0,0,0,.5-1.3l.3-1.35a1.91,1.91,0,0,1-1.3.84.69.69,0,0,1-.53-.21.79.79,0,0,1-.19-.56,2.53,2.53,0,0,1,.06-.51l.44-2.34.63-.27-.63,2.63a2.22,2.22,0,0,0-.08.48.5.5,0,0,0,.13.36.47.47,0,0,0,.35.14.93.93,0,0,0,.53-.21,4,4,0,0,0,.65-.64l.56-2.49.61-.27-1,3.83a8.9,8.9,0,0,1-.32,1.08,2.63,2.63,0,0,1-.35.65,1.91,1.91,0,0,1-1.56.82A1.26,1.26,0,0,1,449.62,356.55Z"
          style="fill:#333"/>
    <path d="M459.88,352.1l-.06.29h-1.59l.06-.29Z" style="fill:#333"/>
    <path d="M467.21,353.22l.12.1a3.05,3.05,0,0,1-.79.77,1.54,1.54,0,0,1-.83.24,1.09,1.09,0,0,1-.85-.35,1.34,1.34,0,0,1-.32-.93,2.59,2.59,0,0,1,.31-1.19,3.21,3.21,0,0,1,.78-1,1.44,1.44,0,0,1,.92-.39.63.63,0,0,1,.44.16.52.52,0,0,1,.17.4,1.4,1.4,0,0,1-.55,1,4.53,4.53,0,0,1-1.49.85.94.94,0,0,0,0,.12,1.07,1.07,0,0,0,.25.73.81.81,0,0,0,.64.28,1,1,0,0,0,.59-.19A2.86,2.86,0,0,0,467.21,353.22Zm-2.08-.5a3.49,3.49,0,0,0,1.08-.7,2.39,2.39,0,0,0,.41-.56,1.19,1.19,0,0,0,.16-.54q0-.31-.28-.31t-.86.67A3.21,3.21,0,0,0,465.13,352.73Z"
          style="fill:#333"/>
    <path d="M469.69,350.75l-.5,2.17a2.76,2.76,0,0,0-.08.51.6.6,0,0,0,.11.38.35.35,0,0,0,.29.14.55.55,0,0,0,.32-.1,3.34,3.34,0,0,0,.45-.42l.08-.08.1.1a4.08,4.08,0,0,1-.64.66.85.85,0,0,1-.5.19.64.64,0,0,1-.5-.21.77.77,0,0,1-.19-.54,3.79,3.79,0,0,1,.1-.72l.42-2.09h-.63l0-.22h.63l.36-1.76.63-.25-.46,2h1.06l0,.22Z"
          style="fill:#333"/>
    <path d="M474.17,353.22l.12.1a3.05,3.05,0,0,1-.79.77,1.54,1.54,0,0,1-.83.24,1.09,1.09,0,0,1-.85-.35,1.34,1.34,0,0,1-.32-.93,2.59,2.59,0,0,1,.31-1.19,3.21,3.21,0,0,1,.78-1,1.44,1.44,0,0,1,.92-.39.63.63,0,0,1,.44.16.52.52,0,0,1,.17.4,1.4,1.4,0,0,1-.55,1,4.53,4.53,0,0,1-1.49.85.94.94,0,0,0,0,.12,1.07,1.07,0,0,0,.25.73.81.81,0,0,0,.64.28,1,1,0,0,0,.59-.19A2.86,2.86,0,0,0,474.17,353.22Zm-2.08-.5a3.49,3.49,0,0,0,1.08-.7,2.39,2.39,0,0,0,.41-.56,1.19,1.19,0,0,0,.16-.54q0-.31-.28-.31t-.86.67A3.21,3.21,0,0,0,472.08,352.73Z"
          style="fill:#333"/>
    <path d="M475.4,352.38a4,4,0,0,0,.75-1.26.92.92,0,0,1-.53-.84.68.68,0,0,1,.12-.42.38.38,0,0,1,.31-.16.37.37,0,0,1,.32.18.8.8,0,0,1,.12.47,1.65,1.65,0,0,1-.07.45,1.29,1.29,0,0,0,.32,0,1,1,0,0,0,.66-.23h.31l0,.09a12.49,12.49,0,0,0-.77,1.69,4.08,4.08,0,0,0-.3,1.24.4.4,0,0,0,.08.25.23.23,0,0,0,.19.1q.27,0,.86-.57l.1.12a4.61,4.61,0,0,1-.57.5,1.06,1.06,0,0,1-.64.27.5.5,0,0,1-.4-.17.68.68,0,0,1-.15-.46,2.91,2.91,0,0,1,.38-1.24q.14-.28.35-.64t.54-.85l.06-.09a1.45,1.45,0,0,1-.41.28,1.19,1.19,0,0,1-.45.08,1,1,0,0,1-.25,0,4,4,0,0,1-.78,1.32Zm.89-1.65a1.76,1.76,0,0,0,0-.27.72.72,0,0,0-.08-.36.22.22,0,0,0-.19-.13.14.14,0,0,0-.11.06.24.24,0,0,0,0,.15Q475.89,350.49,476.3,350.73Z"
          style="fill:#333"/>
    <path d="M479,354.3l.69-3.61.62-.27-.56,2.39a7.3,7.3,0,0,1,1.07-1.73,1.46,1.46,0,0,1,1-.59.51.51,0,0,1,.39.16.6.6,0,0,1,.15.43,1.8,1.8,0,0,1-.07.42l-.06.27-.2.79-.07.25a2.7,2.7,0,0,0-.1.6.68.68,0,0,0,.07.34.21.21,0,0,0,.19.13q.2,0,.65-.48l.1.09-.06.07a6.24,6.24,0,0,1-.55.59.52.52,0,0,1-.33.15.41.41,0,0,1-.34-.21.89.89,0,0,1-.14-.51,3.61,3.61,0,0,1,.08-.62l.25-1.38a3.42,3.42,0,0,0,.05-.46.28.28,0,0,0-.07-.21.26.26,0,0,0-.2-.07q-.45,0-1.11,1a6.09,6.09,0,0,0-.53.92,12,12,0,0,0-.47,1.25l-.06.18Z"
          style="fill:#333"/>
    <path d="M485.25,350.42l-.57,2.14a3.41,3.41,0,0,0-.14.85.7.7,0,0,0,.07.34.21.21,0,0,0,.19.13q.2,0,.65-.48l.1.09-.06.07a6.24,6.24,0,0,1-.55.59.52.52,0,0,1-.33.15.41.41,0,0,1-.34-.21.89.89,0,0,1-.14-.51,3.82,3.82,0,0,1,.08-.62l.41-2.28Zm.19-2.55a.38.38,0,0,1,.27.65.38.38,0,0,1-.54-.54A.37.37,0,0,1,485.44,347.87Z"
          style="fill:#333"/>
    <path d="M487.78,350.75l-.5,2.17a2.76,2.76,0,0,0-.08.51.6.6,0,0,0,.11.38.35.35,0,0,0,.29.14.55.55,0,0,0,.32-.1,3.34,3.34,0,0,0,.45-.42l.08-.08.1.1a4.08,4.08,0,0,1-.64.66.85.85,0,0,1-.5.19.64.64,0,0,1-.5-.21.77.77,0,0,1-.19-.54,3.79,3.79,0,0,1,.1-.72l.42-2.09h-.63l0-.22h.63l.36-1.76.63-.25-.46,2h1.06l0,.22Z"
          style="fill:#333"/>
    <path d="M489,356.55l.32-.43a1.14,1.14,0,0,0,.85.4,1,1,0,0,0,.81-.4,3.37,3.37,0,0,0,.5-1.3l.3-1.35a1.91,1.91,0,0,1-1.3.84.69.69,0,0,1-.53-.21.79.79,0,0,1-.19-.56,2.53,2.53,0,0,1,.06-.51l.44-2.34.63-.27-.63,2.63a2.22,2.22,0,0,0-.08.48.5.5,0,0,0,.13.36.47.47,0,0,0,.35.14.93.93,0,0,0,.53-.21,4,4,0,0,0,.65-.64l.56-2.49.61-.27-1,3.83a8.9,8.9,0,0,1-.32,1.08,2.63,2.63,0,0,1-.35.65,1.91,1.91,0,0,1-1.56.82A1.26,1.26,0,0,1,489,356.55Z"
          style="fill:#333"/>
    <path d="M495.26,353.25a.53.53,0,1,1,0,1.06.53.53,0,0,1-.38-.15.54.54,0,0,1,0-.76A.53.53,0,0,1,495.26,353.25Zm1.92-7.26-1.65,6.64-.18.08,1-6.34Z"
          style="fill:#333"/>
    <path d="M527.32,126.42a14.27,14.27,0,0,1,1.78,14.29,13.7,13.7,0,0,1-22.86,3.48l.87-1c5.78,5.88,15.81,5.53,20-2.19a12.42,12.42,0,0,0-.49-12.57c-2.44-4-6.91-7.24-11.73-5.71-1,.3-1.33-1.15-.41-1.5a1.84,1.84,0,0,1,.24-.08c7-11.61,3.72-27.17-8.41-33.88C495,81,479.61,84.56,474.43,96.85l-1.09-.48c4.16-13.5,21.49-16.92,33.08-11,12.83,6.5,17.35,23,10.44,35.35C521,120.37,524.92,123.1,527.32,126.42Z"
          style="fill:#1d1d1b"/>
    <path d="M526.59,128.42a12.42,12.42,0,0,1,.49,12.57c-4.16,7.72-14.19,8.07-20,2.19-.17-.17-.34-.36-.51-.55a.53.53,0,0,0-.51-.17.8.8,0,0,0-1.46.43,11.51,11.51,0,0,1-10.84,11.54c-5.73.39-12.63-3-14.07-8.94a.84.84,0,0,0-1.61,0c-1.21,4.85-6.16,8.5-11.24,7.36s-7.65-6.1-7.55-10.89a.46.46,0,0,0-.74-.36.35.35,0,0,0-.11,0l-.29,0c-3.36.34-7.07.79-10.28-.4-3.91-1.45-6.19-5.16-7.25-9-2.05-7.48.7-16.27,9-17.94a.6.6,0,0,0,.37-.24.58.58,0,0,0,.16-.95c-5-4.37-3.53-15.44,1.36-19.32,6.73-5.34,17.09-3.5,20.74,4.34a.77.77,0,0,0,1.24.14.53.53,0,0,0,.48-.37c.12-.35.26-.68.4-1C479.61,84.56,495,81,506.28,87.25c12.13,6.72,15.41,22.27,8.41,33.88a1.84,1.84,0,0,0-.24.08c-.92.35-.56,1.8.41,1.5C519.68,121.18,524.15,124.43,526.59,128.42Z"
          style="fill:#fff"/>
    <path d="M506.6,142.63c.17.19.34.37.51.55l-.87,1c-.32,6.11-5.44,11.09-11.5,11.84s-13.08-2.36-15.81-7.9c-2.14,4.43-7.1,7.41-12.12,6.42a10.94,10.94,0,0,1-8.54-12l-.1-1,.29,0a.35.35,0,0,1,.11,0,.46.46,0,0,1,.74.36c-.1,4.79,2.55,9.76,7.55,10.89s10-2.5,11.24-7.36a.84.84,0,0,1,1.61,0c1.44,5.91,8.33,9.33,14.07,8.94a11.51,11.51,0,0,0,10.84-11.54.8.8,0,0,1,1.46-.43A.53.53,0,0,1,506.6,142.63Z"
          style="fill:#1d1d1b"/>
    <path d="M524.48,119.06a15.51,15.51,0,0,0-2.47-1.16q.45-1.29.78-2.62"
          style="fill:none;stroke:#3c3c3b;stroke-miterlimit:10;stroke-width:0.910924077033997px"/>
    <path d="M523.62,109.53a30.08,30.08,0,0,0-1.27-10.11A28.35,28.35,0,0,0,508,82.15,30.11,30.11,0,0,0,494.47,79a27.08,27.08,0,0,0-18.12,6.41"
          style="fill:none;stroke:#3c3c3b;stroke-miterlimit:10;stroke-width:0.910924077033997px;stroke-dasharray:5.8230791091918945,5.8230791091918945"/>
    <path d="M474.3,87.47a21.78,21.78,0,0,0-1.66,2.17A16.17,16.17,0,0,0,470.42,88"
          style="fill:none;stroke:#3c3c3b;stroke-miterlimit:10;stroke-width:0.910924077033997px"/>
    <path d="M465.87,86.14a20.36,20.36,0,0,0-5.25-.67,19.91,19.91,0,0,0-12.33,4.08c-3.65,2.89-6.2,8.45-6.48,14.18a20.61,20.61,0,0,0,0,2.59"
          style="fill:none;stroke:#3c3c3b;stroke-miterlimit:10;stroke-width:0.910924077033997px;stroke-dasharray:4.953868389129639,4.953868389129639"/>
    <path d="M442.18,108.77a15.33,15.33,0,0,0,.81,2.61,15.15,15.15,0,0,0-2.21,1.6"
          style="fill:none;stroke:#3c3c3b;stroke-miterlimit:10;stroke-width:0.910924077033997px"/>
    <path d="M437.55,116.88a18.34,18.34,0,0,0-1,1.83,22.33,22.33,0,0,0-1.35,13.73c.72,3.33,2.78,9.41,8.42,12.67a15.72,15.72,0,0,0,6,2"
          style="fill:none;stroke:#3c3c3b;stroke-miterlimit:10;stroke-width:0.910924077033997px;stroke-dasharray:5.081678867340088,5.081678867340088"/>
    <path d="M452.22,147.2a22.49,22.49,0,0,0,2.73-.22,14.31,14.31,0,0,0,.85,2.59"
          style="fill:none;stroke:#3c3c3b;stroke-miterlimit:10;stroke-width:0.910924077033997px"/>
    <path d="M458.54,153.76a14.14,14.14,0,0,0,7.6,4.31,13.71,13.71,0,0,0,2.62.25,14.32,14.32,0,0,0,5.89-1.28"
          style="fill:none;stroke:#3c3c3b;stroke-miterlimit:10;stroke-width:0.910924077033997px;stroke-dasharray:5.023205280303955,5.023205280303955"/>
    <path d="M476.85,155.81A15.37,15.37,0,0,0,479,154.1a18.76,18.76,0,0,0,2.09,1.75"
          style="fill:none;stroke:#3c3c3b;stroke-miterlimit:10;stroke-width:0.910924077033997px"/>
    <path d="M486.16,158.52a20.33,20.33,0,0,0,6.81,1.2,18.12,18.12,0,0,0,2.2-.13,16.94,16.94,0,0,0,9.78-4.72"
          style="fill:none;stroke:#3c3c3b;stroke-miterlimit:10;stroke-width:0.910924077033997px;stroke-dasharray:5.770005226135254,5.770005226135254"/>
    <path d="M506.83,152.68a16.3,16.3,0,0,0,1.41-2.34,17.16,17.16,0,0,0,2.49,1.12"
          style="fill:none;stroke:#3c3c3b;stroke-miterlimit:10;stroke-width:0.910924077033997px"/>
    <path d="M516.45,152.46h.07a17.29,17.29,0,0,0,15.86-10.31,17.92,17.92,0,0,0-2.16-17.82,19.57,19.57,0,0,0-3.35-3.6"
          style="fill:none;stroke:#3c3c3b;stroke-miterlimit:10;stroke-width:0.910924077033997px;stroke-dasharray:5.836042404174805,5.836042404174805"/>
    <path d="M473.34,96.38l1.09.48c-.14.33-.27.66-.4,1a.53.53,0,0,1-.48.37.77.77,0,0,1-1.24-.14c-3.65-7.83-14-9.68-20.74-4.34-4.89,3.88-6.37,15-1.36,19.32a.58.58,0,0,1-.16.95.6.6,0,0,1-.37.24c-8.32,1.67-11.08,10.46-9,17.94,1.06,3.85,3.34,7.57,7.25,9,3.21,1.18,6.92.74,10.28.4l.1,1c-4.19,1.27-8.89,1.7-12.85-.58-3.7-2.14-5.83-6.28-6.71-10.33-1.66-7.64,1.43-16.8,9.59-18.62-5.19-5-3-16.6,2.18-20.71C457.28,87,469.62,88,473.34,96.38Z"
          style="fill:#1d1d1b"/>
    <path d="M530.57,497.1c.41,2.67-1.66,4.39-4.07,5.06a38,38,0,0,1-11.13.95c-3.15-.1-7.06-.15-9.94-1.62-2.45-1.25-3-3.72-2.81-6.24l.69.05A8.18,8.18,0,0,0,504,499a5,5,0,0,0,3.25,2.24,32.87,32.87,0,0,0,7.46.94,49.5,49.5,0,0,0,7.86-.29c2.58-.3,7.54-.86,7.21-4.47a.47.47,0,0,1-.19-.37c-.54-13.36-1-26.74-1.68-40.09-.67-12.36-2.05-24.89-6.78-36.43-3.84-9.37-9.89-17.74-18.34-23.45a57.56,57.56,0,0,0-28.26-9.34c-19.07-1.28-38.89,6.43-49.38,22.94-5.3,8.34-8.09,18-10,27.59-.94,4.63-1.68,9.29-2.4,14a45.65,45.65,0,0,1-2.92,11.63c-1.36,3.08-3.48,6-6.68,7.33a10.73,10.73,0,0,1-10.61-1.73c-4.44-3.32-7-8.41-8.3-13.86a30.74,30.74,0,0,1-1-6.27c-.08-1.49-.08-3-.05-4.49s.36-3.44-.45-4.81a4.83,4.83,0,0,0-3.48-2l.13-.69a10.67,10.67,0,0,1,1.45.37c3.38,1.14,3.25,4.13,3.18,7.17a41.29,41.29,0,0,0,1,10.64,30,30,0,0,0,2.59,6.75c2.43,4.55,7,9.4,12.66,8.79,10.52-1.13,11.12-16.47,12.4-24.27,3-18.19,7.79-37.46,23.25-49.14,14.56-11,34.72-13.63,52-8.6a51.85,51.85,0,0,1,23.91,14.42c6.36,7,10.5,15.68,13,24.7,3,10.71,3.77,21.9,4.27,33,.53,12,1,24,1.46,35.95C530.57,497.05,530.57,497.07,530.57,497.1Z"
          style="fill:#1d1d1b"/>
    <path d="M529.76,497.4c.33,3.61-4.63,4.16-7.21,4.47a49.5,49.5,0,0,1-7.86.29,32.87,32.87,0,0,1-7.46-.94A5,5,0,0,1,504,499a8.18,8.18,0,0,1-.67-3.68.33.33,0,0,0,0-.15c.9-9.41,1.36-21.37-7.68-27.26-4.43-2.88-10.4-2.4-15.46-2.52s-10.43-.52-15.22,1.53a19.86,19.86,0,0,0-9.55,8.7c-2.52,4.65-2.59,10-2.76,15.17-.09,2.84,0,6-1.42,8.54s-4.33,3.54-7.06,4a36.26,36.26,0,0,1-9.13.24c-2.88-.28-6.43-.71-9-2.26-3.25-2-2.49-6.19-2.46-9.47q0-5.35.13-10.71c.1-7.13.45-14.28.32-21.4a.35.35,0,0,0-.44-.36.37.37,0,0,0-.48.25c-1.77,5.57-3.79,11.07-7.66,15.57a20.36,20.36,0,0,1-14.6,7.44c-11.39.46-20.53-7.89-25-17.75-2.81-6.25-3.72-12.84-4.53-19.56-.07-2.54.3-5.09,2.6-6.54a8,8,0,0,1,5.21-.77,4.83,4.83,0,0,1,3.48,2c.81,1.38.49,3.29.45,4.81s0,3,.05,4.49a30.74,30.74,0,0,0,1,6.27c1.26,5.45,3.86,10.54,8.3,13.86a10.73,10.73,0,0,0,10.61,1.73c3.2-1.33,5.31-4.24,6.68-7.33a45.65,45.65,0,0,0,2.92-11.63c.72-4.67,1.46-9.33,2.4-14,2-9.61,4.75-19.25,10-27.59,10.49-16.51,30.31-24.22,49.38-22.94a57.56,57.56,0,0,1,28.26,9.34c8.45,5.71,14.5,14.08,18.34,23.45,4.73,11.54,6.12,24.07,6.78,36.43.72,13.35,1.13,26.73,1.68,40.09A.47.47,0,0,0,529.76,497.4Zm-54.38-61.1a84,84,0,0,0-.45-17.4c-.59-4.59-1.7-9.33-4.77-12.94-5.54-6.49-16.49-5.55-22.52-.14-4.16,3.73-4,9.06-4,14.23-.06,5.75-.07,11.52.29,17.26a.26.26,0,0,0,0,.08,11.94,11.94,0,0,0,.11,1.35c0,.46.07.92.1,1.38a.31.31,0,0,0,.22.28,22.69,22.69,0,0,0,5.24,9c3.05,3.44,7.18,6.18,11.9,6.27C471.7,455.83,474.74,444.44,475.38,436.3Zm-41.26-9.89a4.65,4.65,0,0,0,.26-3.82,3,3,0,0,0-2.45-1.76,2.51,2.51,0,0,0-2.4,1.63,5,5,0,0,0,.49,4.05c.19.4.78.11.69-.29-.26-1.14-1-4.6,1.31-4.24,2,.3,1.57,2.73,1,4C432.82,426.56,433.85,427,434.12,426.41Z"
          style="fill:#facce5"/>
    <path d="M495.68,467.9c9,5.89,8.57,17.85,7.68,27.26a.33.33,0,0,1,0,.15l-.69-.05c0-.18,0-.36.05-.54a.33.33,0,0,1,0-.13c.48-6.41,1-13.42-1.94-19.33a16.43,16.43,0,0,0-5.57-6.51c-2.83-1.84-6.05-2-9.33-2.16s-6.35-.24-9.53-.25a31.37,31.37,0,0,0-8.72.7,18.92,18.92,0,0,0-11.49,9.28c-2.81,5.36-2.29,11.58-2.65,17.42-.27,4.46-1.65,8.26-6.17,9.78-4.78,1.61-10.44,1.35-15.34.48-4.21-.75-8.82-2-9.2-6.94-.22-3,0-6.13,0-9.16s.07-6.19.11-9.28c.08-5.4,0-10.83.3-16.23-1.75,5.65-4.48,11.17-8.79,15.25-8.63,8.18-21.54,7.19-30.31-.28-9.31-7.92-13.11-21-13.51-32.87a.33.33,0,0,1,.09-.26,7.78,7.78,0,0,1,1.87-5.23c1.65-1.81,4.41-2.15,6.81-1.71l-.13.69a8,8,0,0,0-5.21.77c-2.3,1.45-2.67,4-2.6,6.54.81,6.72,1.72,13.31,4.53,19.56,4.43,9.86,13.58,18.21,25,17.75a20.36,20.36,0,0,0,14.6-7.44c3.87-4.49,5.88-10,7.66-15.57a.37.37,0,0,1,.48-.25.35.35,0,0,1,.44.36c.14,7.13-.21,14.28-.32,21.4q-.08,5.35-.13,10.71c0,3.28-.79,7.48,2.46,9.47,2.53,1.55,6.08,2,9,2.26a36.26,36.26,0,0,0,9.13-.24c2.74-.44,5.66-1.37,7.06-4s1.33-5.7,1.42-8.54c.17-5.16.24-10.52,2.76-15.17a19.86,19.86,0,0,1,9.55-8.7c4.78-2,10.13-1.65,15.22-1.53S491.25,465,495.68,467.9Z"
          style="fill:#1d1d1b"/>
    <path d="M474.93,418.9a84,84,0,0,1,.45,17.4c-.64,8.14-3.68,19.53-13.92,19.34-4.73-.09-8.85-2.83-11.9-6.27a22.69,22.69,0,0,1-5.24-9,.31.31,0,0,1-.22-.28c0-.46-.07-.92-.1-1.38a11.94,11.94,0,0,1-.11-1.35.26.26,0,0,1,0-.08c-.36-5.74-.35-11.51-.29-17.26.05-5.17-.12-10.5,4-14.23,6-5.41,17-6.35,22.52.14C473.23,409.57,474.34,414.31,474.93,418.9Zm-8.54,34.57c8.3-4.43,8.42-16.37,8.35-24.5a64.84,64.84,0,0,0-1.48-14.28c-1-4.26-3.09-8.63-7.07-10.84-6.7-3.71-18.68-.29-21,7.48a27.42,27.42,0,0,0-.64,7.31q0,3.34,0,6.69c0,4.1.11,8.21.13,12.31C445.8,446.64,456.7,458.64,466.4,453.47Z"
          style="fill:#1d1d1b"/>
    <path d="M474.75,429c.07,8.13-.05,20.07-8.35,24.5-9.69,5.17-20.59-6.83-21.7-15.82,0-4.1-.12-8.21-.13-12.31q0-3.35,0-6.69a27.42,27.42,0,0,1,.64-7.31c2.28-7.77,14.25-11.19,21-7.48,4,2.21,6.06,6.58,7.07,10.84A64.84,64.84,0,0,1,474.75,429Z"
          style="fill:#fff"/>
    <path d="M383.36,436.5a7.19,7.19,0,0,0-1.48-.77l0-.19-1.64-.3"
          style="fill:none;stroke:#3c3c3b;stroke-miterlimit:10;stroke-width:0.55554292782098px"/>
    <path d="M379.27,435.05l-1.64-.31,0,.19h-.11a11.07,11.07,0,0,0-1.56.11"
          style="fill:none;stroke:#3c3c3b;stroke-miterlimit:10;stroke-width:0.55554292782098px"/>
    <path d="M372.85,436a7.36,7.36,0,0,0-1.9,1.48,9.69,9.69,0,0,0-2.42,6.19,2.58,2.58,0,0,0-.11.85c.49,14.59,5.69,27.15,14.27,34.45A26.78,26.78,0,0,0,400,485.54a22.78,22.78,0,0,0,15.95-6.33,28.6,28.6,0,0,0,3-3.35"
          style="fill:none;stroke:#3c3c3b;stroke-miterlimit:10;stroke-width:0.55554292782098px;stroke-dasharray:3.2482638359069824,3.2482638359069824"/>
    <path d="M419.87,474.55q.47-.68.91-1.4,0,.49,0,1v.69"
          style="fill:none;stroke:#3c3c3b;stroke-miterlimit:10;stroke-width:0.55554292782098px"/>
    <path d="M420.73,478.13v.45q-.07,4.64-.11,9.29c0,.9,0,1.83-.06,2.73a64.79,64.79,0,0,0,0,6.61c.53,7,7.59,8.31,11,8.92a44.26,44.26,0,0,0,7.74.73,27.26,27.26,0,0,0,8.67-1.28c7.08-2.39,7.51-9.4,7.65-11.71.08-1.26.12-2.54.15-3.78.14-4.61.27-9,2.25-12.76a16.76,16.76,0,0,1,10.15-8.19,22.74,22.74,0,0,1,6.2-.63h1.92c3.16,0,6.33.1,9.44.25s5.91.29,8.24,1.81a14.16,14.16,0,0,1,4.81,5.65c2,4,2.23,8.67,2,13.39"
          style="fill:none;stroke:#3c3c3b;stroke-miterlimit:10;stroke-width:0.55554292782098px;stroke-dasharray:3.302982807159424,3.302982807159424"/>
    <path d="M500.76,491.25q-.05.83-.11,1.66h0l-.13,1.66"
          style="fill:none;stroke:#3c3c3b;stroke-miterlimit:10;stroke-width:0.55554292782098px"/>
    <path d="M500.42,495.59l-.1,1.66h.15a9.45,9.45,0,0,0,.3,1.64"
          style="fill:none;stroke:#3c3c3b;stroke-miterlimit:10;stroke-width:0.55554292782098px"/>
    <path d="M502.32,501.81a7.25,7.25,0,0,0,2.12,1.62c3.19,1.62,7.21,1.74,10.44,1.84h.42c.87,0,1.66,0,2.42,0a34.45,34.45,0,0,0,9.37-1.07c3.87-1.09,6.07-3.93,5.66-7.28v0q-.24-5.81-.46-11.62c-.31-8-.64-16.22-1-24.34-.48-10.82-1.22-22.32-4.35-33.46-2.91-10.33-7.45-18.94-13.52-25.58a53.88,53.88,0,0,0-24.91-15,64.6,64.6,0,0,0-18-2.54c-13.37,0-26.13,4.08-35.94,11.49-15.87,12-21,31.37-24.08,50.53-.16,1-.32,2.12-.48,3.3-1.32,9.67-3.07,18.42-10,19.16a6.9,6.9,0,0,1-.72,0c-4.18,0-7.8-4-9.79-7.7a27.83,27.83,0,0,1-2.39-6.23,38.8,38.8,0,0,1-.89-10.08v-.15c0-2.13.12-5-1.61-7.12"
          style="fill:none;stroke:#3c3c3b;stroke-miterlimit:10;stroke-width:0.55554292782098px;stroke-dasharray:3.314950942993164,3.314950942993164"/>
    <path d="M434.39,422.59a4.65,4.65,0,0,1-.26,3.82c-.27.59-1.3.15-1-.44.53-1.26.91-3.69-1-4-2.29-.36-1.57,3.1-1.31,4.24.09.4-.5.69-.69.29a5,5,0,0,1-.49-4.05,2.51,2.51,0,0,1,2.4-1.63A3,3,0,0,1,434.39,422.59Z"
          style="fill:#1d1d1b"/>
    <path d="M344.47,524.45c3.92,0,7.67,3.36,7.29,7.5s-4.95,6.94-8.86,6c.13,4.68-3.75,9.2-8.59,9.24s-8.61-4.23-8.73-8.8a5,5,0,0,1-6.83-1.74c-1.38-2.58.13-5.61,2.53-6.85a4.5,4.5,0,0,1-2.23-5.66,4.29,4.29,0,0,1,6.28-1.72,3,3,0,0,1,2.85-3.47c1.86-.12,3.15,1.34,3.76,3,2.27-3.1,5.84-5.79,9.85-4.23A4.89,4.89,0,0,1,344.47,524.45Zm6.21,8c.91-4-3.23-7.68-7.08-7a.49.49,0,0,1-.47-.81c2.71-2.87-.4-6.56-3.68-6.53s-5.63,2.54-7.28,5.06a.48.48,0,0,1-.87-.11,4.06,4.06,0,0,0-1.79-2.91,2.22,2.22,0,0,0-3.38,2.15c0,.26-.2.39-.43.39.16.18-.08.44-.29.33-1.9-1-4.58-.64-5.53,1.49s.76,4.4,2.84,4.79a.46.46,0,0,1,0,.87c-2.48.58-4.31,3.31-3.24,5.79a4,4,0,0,0,6.26,1.08.48.48,0,0,1,.8.33c-.41,4.4,3.17,8.86,7.75,8.81s8-4.58,7.56-9a.49.49,0,0,1,.62-.47A6.33,6.33,0,0,0,350.68,532.49Z"
          style="fill:#1d1d1b"/>
    <path d="M349.09,523.25a10.2,10.2,0,0,0-1.68-.72,7.07,7.07,0,0,0-.17-1.82"
          style="fill:none;stroke:#3c3c3b;stroke-miterlimit:10;stroke-width:0.608770608901978px"/>
    <path d="M345.77,517.7a7.48,7.48,0,0,0-3.13-2.28,8.91,8.91,0,0,0-3.23-.62,9.41,9.41,0,0,0-4.42,1.15"
          style="fill:none;stroke:#3c3c3b;stroke-miterlimit:10;stroke-width:0.608770608901978px;stroke-dasharray:3.3820931911468506,3.3820931911468506"/>
    <path d="M333.56,516.84a14.26,14.26,0,0,0-1.41,1.17,6,6,0,0,0-1.52-1"
          style="fill:none;stroke:#3c3c3b;stroke-miterlimit:10;stroke-width:0.608770608901978px"/>
    <path d="M328.61,516.53H328a5.55,5.55,0,0,0-2.44.73"
          style="fill:none;stroke:#3c3c3b;stroke-miterlimit:10;stroke-width:0.608770608901978px;stroke-dasharray:2.0939738750457764,2.0939738750457764"/>
    <path d="M324.73,517.88a5.31,5.31,0,0,0-1.15,1.41l-.61,0a7,7,0,0,0-1.21.1"
          style="fill:none;stroke:#3c3c3b;stroke-miterlimit:10;stroke-width:0.608770608901978px"/>
    <path d="M318.37,521a6.35,6.35,0,0,0-2,5.19"
          style="fill:none;stroke:#3c3c3b;stroke-miterlimit:10;stroke-width:0.608770608901978px;stroke-dasharray:3.8402011394500732,3.8402011394500732"/>
    <path d="M316.77,528.09a7,7,0,0,0,.87,1.61,8.08,8.08,0,0,0-1,1.53"
          style="fill:none;stroke:#3c3c3b;stroke-miterlimit:10;stroke-width:0.608770608901978px"/>
    <path d="M315.91,535.55a6.79,6.79,0,0,0,.73,2.2,6.91,6.91,0,0,0,3.09,2.95"
          style="fill:none;stroke:#3c3c3b;stroke-miterlimit:10;stroke-width:0.608770608901978px;stroke-dasharray:4.445440292358398,4.445440292358398"/>
    <path d="M321.86,541.35a7.67,7.67,0,0,0,1.16.09l.67,0a11.54,11.54,0,0,0,.67,1.7"
          style="fill:none;stroke:#3c3c3b;stroke-miterlimit:10;stroke-width:0.608770608901978px"/>
    <path d="M326.46,546.11a10.87,10.87,0,0,0,7.78,3.43h.09a10.74,10.74,0,0,0,7.66-3.4,12,12,0,0,0,1.71-2.26"
          style="fill:none;stroke:#3c3c3b;stroke-miterlimit:10;stroke-width:0.608770608901978px;stroke-dasharray:3.683267593383789,3.683267593383789"/>
    <path d="M344.5,542.23a11.5,11.5,0,0,0,.53-1.75,10,10,0,0,0,1.81-.26"
          style="fill:none;stroke:#3c3c3b;stroke-miterlimit:10;stroke-width:0.608770608901978px"/>
    <path d="M349.78,539a9.1,9.1,0,0,0,4.35-6.83,8.85,8.85,0,0,0-2.35-6.83,9.89,9.89,0,0,0-1.33-1.22"
          style="fill:none;stroke:#3c3c3b;stroke-miterlimit:10;stroke-width:0.608770608901978px;stroke-dasharray:3.2051076889038086,3.2051076889038086"/>
    <path d="M343.6,525.47c3.86-.66,8,3,7.08,7a6.33,6.33,0,0,1-8.19,4.27.49.49,0,0,0-.62.47c.49,4.38-3,8.91-7.56,9s-8.16-4.41-7.75-8.81a.48.48,0,0,0-.8-.33,4,4,0,0,1-6.26-1.08c-1.08-2.48.76-5.21,3.24-5.79a.46.46,0,0,0,0-.87c-2.08-.39-3.78-2.68-2.84-4.79s3.63-2.46,5.53-1.49c.21.11.45-.15.29-.33.23,0,.46-.13.43-.39a2.22,2.22,0,0,1,3.38-2.15,4.06,4.06,0,0,1,1.79,2.91.48.48,0,0,0,.87.11c1.64-2.52,4-5,7.28-5.06s6.39,3.66,3.68,6.53A.49.49,0,0,0,343.6,525.47Z"
          style="fill:#fff"/>
</svg>