<svg xmlns="http://www.w3.org/2000/svg" xmlns:xlink="http://www.w3.org/1999/xlink" viewBox="0 0 566.93 566.93">
    <defs>
        <clipPath id="clip-path-16">
            <rect x="42.83" y="265.93" width="189.08" height="252" style="fill:none"/>
        </clipPath>
        <clipPath id="clip-path-16-2">
            <rect x="253.91" y="49" width="258" height="392" style="fill:none"/>
        </clipPath>
    </defs>
    <rect x="-8.5" y="-8.5" width="583.94" height="583.94" style="fill:#fff"/>
    <path d="M256,455.4l.55-.32q.58,1.06,1.34,1.06a1.22,1.22,0,0,0,.85-.32,1,1,0,0,0,.35-.78,1.21,1.21,0,0,0-.3-.75,5.45,5.45,0,0,0-1-.9,7.76,7.76,0,0,1-.93-.77,1.68,1.68,0,0,1-.35-.55,1.63,1.63,0,0,1-.11-.59,1.44,1.44,0,0,1,.45-1.07A1.53,1.53,0,0,1,258,450a1.62,1.62,0,0,1,.93.27,3,3,0,0,1,.77.79l-.52.4a3.25,3.25,0,0,0-.52-.57,1,1,0,0,0-.66-.22.9.9,0,0,0-.64.23.78.78,0,0,0-.25.59,1,1,0,0,0,.22.63,6.66,6.66,0,0,0,1,.84,5.36,5.36,0,0,1,1.13,1.06,1.71,1.71,0,0,1,.36,1,1.62,1.62,0,0,1-.54,1.22,1.78,1.78,0,0,1-1.26.52A2.18,2.18,0,0,1,256,455.4Z"
          style="fill:#666"/>
    <path d="M264.3,456.6l.92-6.46h.1l2.63,5.3,2.61-5.3h.1l.93,6.46h-.64l-.63-4.62L268,456.6h-.16l-2.31-4.66-.63,4.66Z"
          style="fill:#666"/>
    <path d="M278.93,449.88l3,6.72h-.69l-1-2.21h-2.79l-1,2.21h-.72l3.05-6.72Zm-.08,1.43-1.11,2.43h2.2Z"
          style="fill:#666"/>
    <path d="M286.36,450.14H287V456h2.48v.62h-3.14Z" style="fill:#666"/>
    <path d="M293.94,450.14h.66V456h2.48v.62h-3.14Z" style="fill:#666"/>
    <path d="M307.19,456.6v-6.46h1.34a7.29,7.29,0,0,1,2,.2,2.86,2.86,0,0,1,1.11.64,2.93,2.93,0,0,1,.72,1.07,4,4,0,0,1,.25,1.47,3.35,3.35,0,0,1-.39,1.58,2.68,2.68,0,0,1-1.06,1.12,4,4,0,0,1-1.93.38Zm.62-.61h.75a8.68,8.68,0,0,0,1.7-.12,2.06,2.06,0,0,0,.92-.46,2.27,2.27,0,0,0,.6-.84,2.93,2.93,0,0,0,.21-1.13,2.88,2.88,0,0,0-.24-1.18,2.3,2.3,0,0,0-.68-.89,2.41,2.41,0,0,0-1-.47,9.49,9.49,0,0,0-1.76-.12h-.46Z"
          style="fill:#666"/>
    <path d="M317.34,450.14h1.29a7.59,7.59,0,0,1,1.48.09,1.78,1.78,0,0,1,.68.31,1.49,1.49,0,0,1,.45.56,1.74,1.74,0,0,1,.16.76,1.58,1.58,0,0,1-.58,1.3,2.44,2.44,0,0,1-1.66.44l2.33,3h-.8l-2.32-3H318v3h-.65Zm.65.63V453h1.12a2.16,2.16,0,0,0,1.22-.26,1.1,1.1,0,0,0,0-1.68,2.18,2.18,0,0,0-1.2-.26Z"
          style="fill:#666"/>
    <path d="M326.2,450.14h3.71v.64h-3.06v2h3v.63h-3V456h3v.64H326.2Z" style="fill:#666"/>
    <path d="M337.08,449.88l3,6.72h-.69l-1-2.21h-2.79l-1,2.21h-.72l3.05-6.72Zm-.08,1.43-1.11,2.43h2.2Z"
          style="fill:#666"/>
    <path d="M344.22,456.6l.92-6.46h.1l2.63,5.3,2.61-5.3h.1l.93,6.46h-.64l-.63-4.62-2.29,4.63h-.16l-2.31-4.66-.63,4.66Z"
          style="fill:#666"/>
    <path d="M355.54,455.4l.55-.32q.58,1.06,1.34,1.06a1.22,1.22,0,0,0,.85-.32,1,1,0,0,0,.35-.78,1.21,1.21,0,0,0-.3-.75,5.45,5.45,0,0,0-1-.9,7.76,7.76,0,0,1-.93-.77,1.68,1.68,0,0,1-.35-.55,1.63,1.63,0,0,1-.11-.59,1.44,1.44,0,0,1,.45-1.07,1.53,1.53,0,0,1,1.12-.44,1.62,1.62,0,0,1,.93.27,3,3,0,0,1,.77.79l-.52.4a3.25,3.25,0,0,0-.52-.57,1,1,0,0,0-.66-.22.9.9,0,0,0-.64.23.78.78,0,0,0-.25.59,1,1,0,0,0,.22.63,6.66,6.66,0,0,0,1,.84A5.36,5.36,0,0,1,359,454a1.71,1.71,0,0,1,.36,1,1.62,1.62,0,0,1-.54,1.22,1.78,1.78,0,0,1-1.26.52A2.18,2.18,0,0,1,355.54,455.4Z"
          style="fill:#666"/>
    <path d="M372.42,449.88l3,6.72h-.69l-1-2.21h-2.79l-1,2.21h-.72l3.05-6.72Zm-.08,1.43-1.11,2.43h2.2Z"
          style="fill:#666"/>
    <path d="M379.86,456.6v-6.46H380l4.29,4.95v-4.95h.64v6.46h-.14l-4.27-4.89v4.89Z" style="fill:#666"/>
    <path d="M389.93,456.6v-6.46h1.34a7.29,7.29,0,0,1,2,.2,2.86,2.86,0,0,1,1.11.64,2.93,2.93,0,0,1,.72,1.07,4,4,0,0,1,.25,1.47,3.35,3.35,0,0,1-.39,1.58,2.68,2.68,0,0,1-1.06,1.12,4,4,0,0,1-1.93.38Zm.62-.61h.75a8.68,8.68,0,0,0,1.7-.12,2.06,2.06,0,0,0,.92-.46,2.27,2.27,0,0,0,.6-.84,2.93,2.93,0,0,0,.21-1.13,2.88,2.88,0,0,0-.24-1.18,2.3,2.3,0,0,0-.68-.89,2.41,2.41,0,0,0-1-.47,9.49,9.49,0,0,0-1.76-.12h-.46Z"
          style="fill:#666"/>
    <path d="M412,451.22l-.49.48a4,4,0,0,0-1.18-.8,3.3,3.3,0,0,0-1.33-.28,2.86,2.86,0,0,0-1.37.37,2.75,2.75,0,0,0-1.07,1,2.55,2.55,0,0,0-.38,1.35,2.69,2.69,0,0,0,.85,2,2.91,2.91,0,0,0,2.13.84,2.63,2.63,0,0,0,1.67-.54,2.2,2.2,0,0,0,.83-1.48h-2.06v-.62h2.79a3.26,3.26,0,0,1-.92,2.4,3.22,3.22,0,0,1-2.33.86,3.53,3.53,0,0,1-2.65-1,3.31,3.31,0,0,1-1-2.39,3.27,3.27,0,0,1,1-2.38,3.49,3.49,0,0,1,2.6-1A4.13,4.13,0,0,1,412,451.22Z"
          style="fill:#666"/>
    <path d="M417,450.14h1.29a7.59,7.59,0,0,1,1.48.09,1.78,1.78,0,0,1,.68.31,1.49,1.49,0,0,1,.45.56,1.74,1.74,0,0,1,.16.76,1.58,1.58,0,0,1-.58,1.3,2.44,2.44,0,0,1-1.66.44l2.33,3h-.8l-2.32-3h-.37v3H417Zm.65.63V453h1.12a2.16,2.16,0,0,0,1.22-.26,1.1,1.1,0,0,0,0-1.68,2.18,2.18,0,0,0-1.2-.26Z"
          style="fill:#666"/>
    <path d="M425.88,450.14h3.71v.64h-3.06v2h3v.63h-3V456h3v.64h-3.68Z" style="fill:#666"/>
    <path d="M436.76,449.88l3,6.72h-.69l-1-2.21h-2.79l-1,2.21h-.72l3.05-6.72Zm-.08,1.43-1.11,2.43h2.2Z"
          style="fill:#666"/>
    <path d="M443.56,450.77v-.63h3.55v.63h-1.44v5.83H445v-5.83Z" style="fill:#666"/>
    <path d="M456.76,450.14h.67l1.31,4.81,1.85-4.81h.13l1.84,4.81,1.34-4.81h.66l-1.85,6.62h-.13l-1.92-5-2,5h-.12Z"
          style="fill:#666"/>
    <path d="M469.09,450.14h.65v6.46h-.65Z" style="fill:#666"/>
    <path d="M474,455.4l.55-.32q.58,1.06,1.34,1.06a1.22,1.22,0,0,0,.85-.32,1,1,0,0,0,.35-.78,1.21,1.21,0,0,0-.3-.75,5.45,5.45,0,0,0-1-.9,7.76,7.76,0,0,1-.93-.77,1.68,1.68,0,0,1-.35-.55,1.63,1.63,0,0,1-.11-.59,1.44,1.44,0,0,1,.45-1.07,1.53,1.53,0,0,1,1.12-.44,1.62,1.62,0,0,1,.93.27,3,3,0,0,1,.77.79l-.52.4a3.25,3.25,0,0,0-.52-.57,1,1,0,0,0-.66-.22.9.9,0,0,0-.64.23.78.78,0,0,0-.25.59,1,1,0,0,0,.22.63,6.66,6.66,0,0,0,1,.84A5.36,5.36,0,0,1,477.4,454a1.71,1.71,0,0,1,.36,1,1.62,1.62,0,0,1-.54,1.22,1.78,1.78,0,0,1-1.26.52A2.18,2.18,0,0,1,474,455.4Z"
          style="fill:#666"/>
    <path d="M482.53,456.6v-6.46h1.34a7.29,7.29,0,0,1,2,.2A2.86,2.86,0,0,1,487,451a2.93,2.93,0,0,1,.72,1.07,4,4,0,0,1,.25,1.47,3.35,3.35,0,0,1-.39,1.58,2.68,2.68,0,0,1-1.06,1.12,4,4,0,0,1-1.93.38Zm.62-.61h.75a8.68,8.68,0,0,0,1.7-.12,2.06,2.06,0,0,0,.92-.46,2.27,2.27,0,0,0,.6-.84,2.93,2.93,0,0,0,.21-1.13,2.88,2.88,0,0,0-.24-1.18,2.3,2.3,0,0,0-.68-.89,2.41,2.41,0,0,0-1-.47,9.49,9.49,0,0,0-1.76-.12h-.46Z"
          style="fill:#666"/>
    <path d="M492.37,453.4a3.44,3.44,0,0,1,.45-1.73,3.28,3.28,0,0,1,1.23-1.24,3.36,3.36,0,0,1,1.71-.45,3.46,3.46,0,0,1,1.72.45,3.25,3.25,0,0,1,1.25,1.23,3.46,3.46,0,0,1,0,3.42,3.28,3.28,0,0,1-1.24,1.24,3.39,3.39,0,0,1-1.71.45,3.44,3.44,0,0,1-1.71-.45,3.26,3.26,0,0,1-1.25-1.23A3.31,3.31,0,0,1,492.37,453.4Zm6.14,0a2.74,2.74,0,0,0-2.75-2.76,2.59,2.59,0,0,0-1.94.81,2.72,2.72,0,0,0-.78,2,2.73,2.73,0,1,0,5.46,0Z"
          style="fill:#666"/>
    <path d="M503.6,456.6l.92-6.46h.1l2.63,5.3,2.61-5.3h.1l.93,6.46h-.64l-.63-4.62-2.29,4.63h-.16l-2.31-4.66-.63,4.66Z"
          style="fill:#666"/>
    <path d="M105.33,208.1a7.52,7.52,0,0,1-.87.41,2.93,2.93,0,0,1-1.1.21,1.49,1.49,0,0,1-.5-.06.24.24,0,0,1-.15-.24.47.47,0,0,1,0-.13.62.62,0,0,1,.05-.13.19.19,0,0,1,.07-.07s.06,0,.09,0a.35.35,0,0,0,.27.13l.39,0a1,1,0,0,0,.57-.22,1.17,1.17,0,0,0,.38-.55,5.1,5.1,0,0,0,.12-.66q.06-.45.1-1.08c0-.42,0-.89.06-1.4s0-1.06,0-1.63q0-1.95-.1-3a2.9,2.9,0,0,0-.27-1.25.94.94,0,0,0-.3-.14,1.88,1.88,0,0,0-.37-.07l-.37,0-.29,0a.17.17,0,0,1-.17-.06.24.24,0,0,1-.06-.15c0-.18.06-.27.19-.27l.38,0,.62,0,.74,0,.71,0a2.16,2.16,0,0,0,.73-.12l.7-.27a7,7,0,0,1,.79-.27,3.7,3.7,0,0,1,1-.12,6.88,6.88,0,0,1,1.32.12,3.65,3.65,0,0,1,1.06.37,2,2,0,0,1,.71.64,1.61,1.61,0,0,1,.26.92,2.31,2.31,0,0,1-.25,1.09,3.43,3.43,0,0,1-.64.86,4.62,4.62,0,0,1-.81.64,5,5,0,0,1-.77.4,9.5,9.5,0,0,1,1.22.19,5,5,0,0,1,1.23.44,2.88,2.88,0,0,1,1,.77,1.86,1.86,0,0,1,.38,1.2,2.62,2.62,0,0,1-.23,1.09,3.82,3.82,0,0,1-.62,1,5.58,5.58,0,0,1-.89.81,6.29,6.29,0,0,1-2.16,1,4.23,4.23,0,0,1-1,.14,6,6,0,0,1-.71-.05c-.29,0-.58-.08-.88-.14l-.88-.2A5.42,5.42,0,0,1,105.33,208.1Zm1.5-9.57c0,.13,0,.31-.06.54s0,.5-.06.8,0,.63-.05,1,0,.72,0,1.1c0,0,.06.05.17.07l.35,0,.43,0h.4l.5,0a1.79,1.79,0,0,0,.37-.08,1.62,1.62,0,0,0,.29-.13,1.47,1.47,0,0,0,.27-.19,1.78,1.78,0,0,0,.47-.63,2.72,2.72,0,0,0,.22-1.2,2.79,2.79,0,0,0-.15-1,2.18,2.18,0,0,0-.39-.69,1.54,1.54,0,0,0-1.19-.55,2.32,2.32,0,0,0-.4,0,2.22,2.22,0,0,0-.47.14,1.5,1.5,0,0,0-.41.27A.82.82,0,0,0,106.83,198.53Zm-.21,6.51q0,.78,0,1.13t.06.52a1.26,1.26,0,0,0,.22.5,2,2,0,0,0,.45.46,2.29,2.29,0,0,0,.65.34,2.48,2.48,0,0,0,.82.13,2.45,2.45,0,0,0,.9-.16,1.87,1.87,0,0,0,.73-.52,2.57,2.57,0,0,0,.49-.91,4.34,4.34,0,0,0,.18-1.33,2.89,2.89,0,0,0-.23-1.2,2,2,0,0,0-.64-.8,2.66,2.66,0,0,0-1-.44,5.82,5.82,0,0,0-1.31-.14h-.79l-.56,0c0,.11,0,.22,0,.34V205Z"
          style="fill:#333"/>
    <path d="M119.46,203.75a7.11,7.11,0,0,0-.21-.83,2.24,2.24,0,0,0-.3-.62,1.22,1.22,0,0,0-.44-.37,1.41,1.41,0,0,0-.63-.13,1.53,1.53,0,0,0-.61.12,2,2,0,0,0-.48.29,1.63,1.63,0,0,0-.31.33.73.73,0,0,0-.13.26.12.12,0,0,1-.14.12.59.59,0,0,1-.39-.15.46.46,0,0,1-.18-.36.42.42,0,0,1,0-.18q.34-.19.84-.42t1-.42a9.36,9.36,0,0,1,1.06-.32,4,4,0,0,1,.94-.13,2.09,2.09,0,0,1,1,.18,1.15,1.15,0,0,1,.5.51,2.1,2.1,0,0,1,.2.77c0,.29,0,.61.07,1q0,.76.12,1.48a7.89,7.89,0,0,0,.23,1.26,2.93,2.93,0,0,0,.38.89.69.69,0,0,0,.58.34,1.26,1.26,0,0,0,.36-.06l.38-.14.32-.17.19-.11a.15.15,0,0,1,.17.13.3.3,0,0,1,0,.13l-.22.15-.48.29-.63.35-.68.35a6.74,6.74,0,0,1-.62.27,1.42,1.42,0,0,1-.45.1.44.44,0,0,1-.34-.16,1.39,1.39,0,0,1-.25-.42,3.82,3.82,0,0,1-.18-.61c0-.23-.1-.47-.13-.72q-.27.23-.69.53a8.13,8.13,0,0,1-.92.58,7.24,7.24,0,0,1-1,.46,2.92,2.92,0,0,1-1,.19,1.79,1.79,0,0,1-.71-.13,1.51,1.51,0,0,1-.5-.34,1.33,1.33,0,0,1-.3-.49,1.71,1.71,0,0,1-.1-.58,1.1,1.1,0,0,1,.29-.79,3.64,3.64,0,0,1,.91-.64l.79-.4,1-.5,1-.49Q119.25,203.89,119.46,203.75Zm.43,2.33q0-.25-.09-.56t-.09-.57q0-.27-.08-.47l-.05-.25-.54.21-.6.26-.57.29a5.11,5.11,0,0,0-.45.26,2.22,2.22,0,0,0-.53.45.84.84,0,0,0-.18.54,1.22,1.22,0,0,0,.25.77.94.94,0,0,0,.79.33,1.83,1.83,0,0,0,.59-.11,4.34,4.34,0,0,0,.57-.24,4.11,4.11,0,0,0,.46-.27,2.18,2.18,0,0,0,.27-.21l.19-.2A.31.31,0,0,0,119.9,206.08Z"
          style="fill:#333"/>
    <path d="M123.71,197.63c0-.22.05-.35.16-.39a1,1,0,0,1,.34-.06h1.67a5.9,5.9,0,0,0,.63,0,2.59,2.59,0,0,0,.55-.13c.08,0,.12,0,.13,0s0,.12,0,.17a.16.16,0,0,1-.09.14.79.79,0,0,1-.2.08l-.22,0-.14,0a5.12,5.12,0,0,0-.1.68q-.06.53-.13,1.26c0,.49-.08,1-.11,1.54s0,1.06,0,1.54a5.39,5.39,0,0,1,.45-.42,5.73,5.73,0,0,1,.74-.53,5.37,5.37,0,0,1,1-.46,3.12,3.12,0,0,1,1.09-.19,3,3,0,0,1,1.06.18,2.36,2.36,0,0,1,1.41,1.37,3,3,0,0,1,.2,1.13,3.2,3.2,0,0,1-.2,1.09,5.49,5.49,0,0,1-.56,1.11,6.24,6.24,0,0,1-.85,1,6.58,6.58,0,0,1-1.07.87,5.63,5.63,0,0,1-1.23.6,4,4,0,0,1-1.31.22,3.87,3.87,0,0,1-1.23-.16,2.88,2.88,0,0,1-.77-.37,1.61,1.61,0,0,1-.4-.4,1.59,1.59,0,0,1-.14-.23,4.8,4.8,0,0,0,.1-.73q.06-.59.11-1.46t.1-1.9q0-1,0-2t0-1.46q0-.59-.08-1a3.35,3.35,0,0,0-.13-.6,1.26,1.26,0,0,0-.17-.34.56.56,0,0,0-.39-.24Zm2.42,6.07q0,.25,0,.62t0,.72q0,.36,0,.64a3.23,3.23,0,0,0,0,.36,1.39,1.39,0,0,0,.21.48,2,2,0,0,0,.44.47,2.42,2.42,0,0,0,.62.36,2,2,0,0,0,.77.14,2.06,2.06,0,0,0,1.57-.66,2.86,2.86,0,0,0,.62-2,3.44,3.44,0,0,0-.22-1.3,2.51,2.51,0,0,0-.55-.85,2.15,2.15,0,0,0-.71-.47,1.94,1.94,0,0,0-.7-.15,1.83,1.83,0,0,0-.73.13,2.69,2.69,0,0,0-.52.29,2.25,2.25,0,0,0-.55.57A1.74,1.74,0,0,0,126.12,203.71Z"
          style="fill:#333"/>
    <path d="M133.59,212.87l.41-.5.59-.78c.21-.29.44-.6.66-.93l.64-.94q.3-.44.52-.81a3.3,3.3,0,0,0,.28-.55l-.51-1.34q-.27-.7-.56-1.39t-.58-1.32a11.52,11.52,0,0,0-.58-1.1,4.67,4.67,0,0,0-.55-.76.71.71,0,0,0-.47-.29.3.3,0,0,0-.13,0l-.14.07s-.06,0-.1-.08,0-.11,0-.13l.35-.22.65-.38.7-.37a1.33,1.33,0,0,1,.49-.17q.15,0,.35.27a4.31,4.31,0,0,1,.42.73c.15.31.3.65.46,1s.32.8.48,1.22l.47,1.28q.23.65.44,1.2.19-.3.5-.86t.59-1.18a12.56,12.56,0,0,0,.49-1.25,3.42,3.42,0,0,0,.2-1,.8.8,0,0,0-.21-.62.68.68,0,0,0-.46-.19h-.31l-.25,0-.09,0a.12.12,0,0,1-.06-.11s.11-.1.33-.17.47-.12.76-.17l.85-.13.58-.05a.8.8,0,0,1,.51.13.4.4,0,0,1,.17.32,4.79,4.79,0,0,1-.38.94q-.29.58-.7,1.26t-.86,1.41l-.88,1.37-.76,1.16-.49.75c-.2.31-.39.63-.57,1s-.34.67-.49,1-.28.65-.4,1a5.3,5.3,0,0,0-.25.83c0,.15,0,.25.08.29a.51.51,0,0,0,.33,0,2.11,2.11,0,0,0,.44-.14,1.75,1.75,0,0,0,.4-.24s.08,0,.1,0a.22.22,0,0,1,0,.11.47.47,0,0,1,0,.16.22.22,0,0,1-.07.11l-.35.13-.79.29q-.47.16-1,.29a3.67,3.67,0,0,1-.91.13q-.37,0-.37-.24a.1.1,0,0,1,0,0Z"
          style="fill:#333"/>
    <path d="M149.48,206.33s0,0,.05,0a.26.26,0,0,1,0,.11.48.48,0,0,1,0,.14.22.22,0,0,1-.06.12,6.48,6.48,0,0,1-.75.6q-.45.31-.93.58l-.37.2q-.24.12-.53.23t-.6.2a2.25,2.25,0,0,1-.58.08,2.52,2.52,0,0,1-1-.21,2.6,2.6,0,0,1-1.4-1.46,3,3,0,0,1-.2-1.11,4,4,0,0,1,.18-1.21,6.44,6.44,0,0,1,.41-1,7.17,7.17,0,0,1,.44-.76,4.57,4.57,0,0,0,.29-.46l-.52,0h-1.25a2.83,2.83,0,0,0-.58.07.55.55,0,0,0-.23.12l-.18.13-.08-.08a.16.16,0,0,1-.05-.11.06.06,0,0,1,0,0l.19-.17.49-.37.65-.48.68-.49.55-.38a2.13,2.13,0,0,1,.31-.19.2.2,0,0,1,.18,0c.06,0,.08.07.06.09l-.14.11c-.06.05-.08.1-.06.14a1.56,1.56,0,0,0,.57.24,7.6,7.6,0,0,0,.92.17q.51.07,1,.11c.36,0,.68,0,1,0s.77,0,1,0a5,5,0,0,0,.65-.1l.31-.09.06,0a.14.14,0,0,1,0,.11s-.07.07-.22.15l-.44.25-.32.2-.4.23a4.32,4.32,0,0,1-.46.2,1.64,1.64,0,0,1-.46.1l-.53,0-.63,0h-1.29l-.14.25a2.56,2.56,0,0,0-.19.44,6,6,0,0,0-.16.61,3.51,3.51,0,0,0-.08.75,3.3,3.3,0,0,0,.19,1.13,2.69,2.69,0,0,0,.52.89,2.46,2.46,0,0,0,2.42.72,3.3,3.3,0,0,0,.56-.2,4.13,4.13,0,0,0,.49-.26,4.2,4.2,0,0,0,.39-.28Z"
          style="fill:#333"/>
    <path d="M157.14,202l-.39.34c-.15.14-.31.26-.47.39a3.69,3.69,0,0,1-.5.32,1,1,0,0,1-.5.14.72.72,0,0,1-.37-.1,2.78,2.78,0,0,1-.31-.21l-.28-.21a.48.48,0,0,0-.28-.1.86.86,0,0,0-.68.33,2.57,2.57,0,0,0-.45.84,6,6,0,0,0-.25,1.11,8.46,8.46,0,0,0-.08,1.15,6.2,6.2,0,0,0,0,.76,1.75,1.75,0,0,0,.11.46.43.43,0,0,0,.2.23.7.7,0,0,0,.31.06,1.59,1.59,0,0,0,.42-.06s.05,0,.07.06a.44.44,0,0,1,0,.12s0,0,0,.07l-.06,0-.67.29-.57.26-.5.2a1.52,1.52,0,0,1-.5.11.93.93,0,0,1-.4-.08c-.1,0-.16-.1-.16-.15a.25.25,0,0,1,0-.13.74.74,0,0,0,.07-.23l.07-.53q0-.31.07-.67c0-.24,0-.49.06-.74s0-.51,0-.76q0-.84-.05-1.42a3.72,3.72,0,0,0-.19-.95.92.92,0,0,0-1-.67h-.14l-.12,0a.08.08,0,0,1-.09-.09.14.14,0,0,1,.09-.13l.51-.31.71-.39.71-.34a1.47,1.47,0,0,1,.51-.15.46.46,0,0,1,.33.13.8.8,0,0,1,.2.32,2.12,2.12,0,0,1,.1.44,4,4,0,0,1,0,.49c0,.12,0,.25,0,.38s0,.27,0,.42a11.33,11.33,0,0,1,1.21-1.54,1.5,1.5,0,0,1,1-.55.53.53,0,0,1,.35.15l.37.34a3.55,3.55,0,0,0,.4.34.74.74,0,0,0,.44.15.69.69,0,0,0,.29,0l.15-.08c.08,0,.12.06.12.17Z"
          style="fill:#333"/>
    <path d="M164,206.66c-.11.12-.28.29-.51.5a6.31,6.31,0,0,1-.83.63,5.63,5.63,0,0,1-1.09.54,3.61,3.61,0,0,1-1.27.22,3.91,3.91,0,0,1-1.2-.19,3.15,3.15,0,0,1-1-.57,2.75,2.75,0,0,1-.74-1,3.32,3.32,0,0,1-.28-1.42,6.49,6.49,0,0,1,.09-1.16,4.39,4.39,0,0,1,.24-.86,3.09,3.09,0,0,1,.34-.63,4.74,4.74,0,0,1,.38-.47,3.28,3.28,0,0,1,.58-.51,5.74,5.74,0,0,1,.74-.43,4.33,4.33,0,0,1,.84-.31,3.65,3.65,0,0,1,.89-.11,2.5,2.5,0,0,1,1.27.27.83.83,0,0,1,.46.75.94.94,0,0,1-.18.55,3.09,3.09,0,0,0,.38-.15l.47-.22.43-.2.25-.13a.07.07,0,0,1,.07,0s0,0,0,.05a.64.64,0,0,1-.08.32.64.64,0,0,1-.18.2q-.24.15-.69.38l-1,.47-1.13.5-1.1.47-.9.4-.52.25a2.26,2.26,0,0,0,.2,1,2.36,2.36,0,0,0,.56.77,2.6,2.6,0,0,0,.86.52,3.13,3.13,0,0,0,1.1.19,3.89,3.89,0,0,0,1-.11,4.2,4.2,0,0,0,.73-.25,4.09,4.09,0,0,0,.47-.26l.19-.11a.19.19,0,0,1,.12.05A.15.15,0,0,1,164,206.66Zm-5.28-2.29.58-.22.63-.28.56-.29a2.72,2.72,0,0,0,.39-.24.76.76,0,0,0,.27-.66,1.15,1.15,0,0,0-.07-.37,1.09,1.09,0,0,0-.2-.35,1,1,0,0,0-.33-.25,1,1,0,0,0-.44-.1.89.89,0,0,0-.45.14,1.44,1.44,0,0,0-.45.46,3,3,0,0,0-.35.86A5.08,5.08,0,0,0,158.7,204.37Z"
          style="fill:#333"/>
    <path d="M171.69,206.66c-.11.12-.28.29-.51.5a6.31,6.31,0,0,1-.83.63,5.63,5.63,0,0,1-1.09.54,3.61,3.61,0,0,1-1.27.22,3.91,3.91,0,0,1-1.2-.19,3.15,3.15,0,0,1-1-.57,2.75,2.75,0,0,1-.74-1,3.32,3.32,0,0,1-.28-1.42,6.49,6.49,0,0,1,.09-1.16,4.39,4.39,0,0,1,.24-.86,3.09,3.09,0,0,1,.34-.63,4.74,4.74,0,0,1,.38-.47,3.28,3.28,0,0,1,.58-.51,5.74,5.74,0,0,1,.74-.43,4.33,4.33,0,0,1,.84-.31,3.65,3.65,0,0,1,.89-.11,2.5,2.5,0,0,1,1.27.27.83.83,0,0,1,.46.75.94.94,0,0,1-.18.55,3.09,3.09,0,0,0,.38-.15l.47-.22.43-.2.25-.13a.07.07,0,0,1,.07,0s0,0,0,.05a.64.64,0,0,1-.08.32.64.64,0,0,1-.18.2q-.24.15-.69.38l-1,.47-1.13.5-1.1.47-.9.4-.52.25a2.26,2.26,0,0,0,.2,1,2.36,2.36,0,0,0,.56.77,2.6,2.6,0,0,0,.86.52,3.13,3.13,0,0,0,1.1.19,3.89,3.89,0,0,0,1-.11,4.2,4.2,0,0,0,.73-.25,4.09,4.09,0,0,0,.47-.26l.19-.11a.19.19,0,0,1,.12.05A.15.15,0,0,1,171.69,206.66Zm-5.28-2.29.58-.22.63-.28.56-.29a2.72,2.72,0,0,0,.39-.24.76.76,0,0,0,.27-.66,1.15,1.15,0,0,0-.07-.37,1.09,1.09,0,0,0-.2-.35,1,1,0,0,0-.33-.25,1,1,0,0,0-.44-.1.89.89,0,0,0-.45.14,1.44,1.44,0,0,0-.45.46,3,3,0,0,0-.35.86A5.08,5.08,0,0,0,166.41,204.37Z"
          style="fill:#333"/>
    <path d="M94.44,223.24h-.31l.68-3.27,0-.11a1.05,1.05,0,0,0,0-.16.16.16,0,0,0,0-.1.11.11,0,0,0-.09,0,.32.32,0,0,0-.2.11,2.46,2.46,0,0,0-.28.37,7.59,7.59,0,0,0-.58,1.1q-.25.55-.42,1.08a10,10,0,0,0-.28,1h-.27l.75-3.52a1.32,1.32,0,0,0,0-.26.21.21,0,0,0,0-.08.12.12,0,0,0,0-.06l-.06,0c-.1,0-.23.1-.37.3a6.07,6.07,0,0,0-.52.92c-.09.19-.19.38-.27.59s-.17.4-.24.57-.15.39-.23.65-.22.67-.27.91h-.27v0l.14-.55.13-.56q.26-1.16.38-1.89a5.53,5.53,0,0,0,.1-.83.6.6,0,0,0-.06-.29.17.17,0,0,0-.16-.1q-.25,0-.44.65a6.11,6.11,0,0,0-.18.89l-.24-.16a3.38,3.38,0,0,1,.18-.75,1.68,1.68,0,0,1,.3-.53.49.49,0,0,1,.36-.2.36.36,0,0,1,.33.22,1.28,1.28,0,0,1,.12.6,5.17,5.17,0,0,1-.06.73q0,.12-.1.61l-.13.71,0-.06a13.65,13.65,0,0,1,.68-1.5,4.27,4.27,0,0,1,.52-.81.64.64,0,0,1,.43-.27.26.26,0,0,1,.2.1.37.37,0,0,1,.08.24,2.29,2.29,0,0,1-.06.44l-.38,1.79q0-.12.19-.46a8.72,8.72,0,0,1,.76-1.42c.21-.29.4-.44.58-.44a.27.27,0,0,1,.21.09.36.36,0,0,1,.08.24,1.92,1.92,0,0,1-.06.37Z"
          style="fill:#333"/>
    <path d="M97.34,221.32l-.3,1.19a1.34,1.34,0,0,0,0,.3.32.32,0,0,0,0,.17.12.12,0,0,0,.1.07c.06,0,.17-.08.31-.23l0,0,0,0a2.78,2.78,0,0,1-.26.28.27.27,0,0,1-.16.08.22.22,0,0,1-.18-.11.43.43,0,0,1-.08-.25,3.07,3.07,0,0,1,.08-.47l0-.12a2.39,2.39,0,0,1-.32.54.9.9,0,0,1-.64.43.36.36,0,0,1-.29-.13.55.55,0,0,1-.11-.36,1.38,1.38,0,0,1,.17-.64,1.74,1.74,0,0,1,.43-.55.79.79,0,0,1,.5-.21.43.43,0,0,1,.38.19l0-.12Zm-.37.41a.37.37,0,0,0-.13-.19.34.34,0,0,0-.21-.07.49.49,0,0,0-.3.13A1.3,1.3,0,0,0,96,222a2.08,2.08,0,0,0-.17.41,1.3,1.3,0,0,0-.07.37.46.46,0,0,0,.06.26.2.2,0,0,0,.18.09.49.49,0,0,0,.31-.14,1.7,1.7,0,0,0,.32-.4,1.53,1.53,0,0,0,.15-.3c0-.1.08-.24.12-.42Z"
          style="fill:#333"/>
    <path d="M97.72,224.38l.16-.21a.57.57,0,0,0,.42.2.48.48,0,0,0,.4-.2,1.67,1.67,0,0,0,.25-.65l.15-.67a1,1,0,0,1-.64.42.34.34,0,0,1-.26-.1.39.39,0,0,1-.1-.28,1.29,1.29,0,0,1,0-.26l.22-1.16.31-.13-.31,1.3a1.1,1.1,0,0,0,0,.24.25.25,0,0,0,.07.18.23.23,0,0,0,.18.07.46.46,0,0,0,.26-.11,2,2,0,0,0,.32-.32l.28-1.24.3-.13-.47,1.9a4.47,4.47,0,0,1-.16.54,1.3,1.3,0,0,1-.18.32,1,1,0,0,1-.77.41A.63.63,0,0,1,97.72,224.38Z"
          style="fill:#333"/>
    <path d="M103.06,223.2l-.21.07.26-1.32,0-.11a.82.82,0,0,0,0-.16c0-.09,0-.14-.11-.14a.42.42,0,0,0-.26.14,2.08,2.08,0,0,0-.32.42,3.78,3.78,0,0,0-.19.34,3.5,3.5,0,0,0-.15.35c0,.12-.09.26-.13.42l-.2.07.33-1.79.31-.13-.28,1.18a3.14,3.14,0,0,1,.5-.82.75.75,0,0,1,.5-.32q.24,0,.24.28a2,2,0,0,1,0,.33l-.11.48a4.61,4.61,0,0,1,.53-.85.6.6,0,0,1,.43-.25.25.25,0,0,1,.19.07.28.28,0,0,1,.07.2,1.82,1.82,0,0,1-.06.37l-.1.4,0,.13a1.51,1.51,0,0,0,0,.3.34.34,0,0,0,0,.17.1.1,0,0,0,.09.06c.07,0,.18-.08.32-.24l0,0,0,0a2.91,2.91,0,0,1-.27.29.26.26,0,0,1-.16.08.2.2,0,0,1-.17-.1.44.44,0,0,1-.07-.25,1.84,1.84,0,0,1,0-.31l.12-.67,0-.12a.82.82,0,0,0,0-.16.13.13,0,0,0,0-.09.13.13,0,0,0-.1,0,.29.29,0,0,0-.16.06.94.94,0,0,0-.18.18,3,3,0,0,0-.22.32,4.42,4.42,0,0,0-.26.51A4.67,4.67,0,0,0,103.06,223.2Z"
          style="fill:#333"/>
    <path d="M104.93,224.38l.16-.21a.57.57,0,0,0,.42.2.48.48,0,0,0,.4-.2,1.67,1.67,0,0,0,.25-.65l.15-.67a1,1,0,0,1-.64.42.34.34,0,0,1-.26-.1.39.39,0,0,1-.1-.28,1.29,1.29,0,0,1,0-.26l.22-1.16.31-.13-.31,1.3a1.1,1.1,0,0,0,0,.24.25.25,0,0,0,.07.18.23.23,0,0,0,.18.07A.46.46,0,0,0,106,223a2,2,0,0,0,.32-.32l.28-1.24.3-.13-.47,1.9a4.47,4.47,0,0,1-.16.54,1.3,1.3,0,0,1-.18.32,1,1,0,0,1-.77.41A.63.63,0,0,1,104.93,224.38Z"
          style="fill:#333"/>
    <path d="M109.82,218.84l.34-.17-.93,4q.58-1.3,1.14-1.3a.36.36,0,0,1,.2.06.4.4,0,0,1,.14.18.62.62,0,0,1,0,.25,1.51,1.51,0,0,1-.12.54,1.84,1.84,0,0,1-.29.51.91.91,0,0,1-.7.38.66.66,0,0,1-.23,0,1.1,1.1,0,0,1-.25-.13l-.23.14Zm-.59,4.07a.46.46,0,0,0,.42.3A.5.5,0,0,0,110,223a1.46,1.46,0,0,0,.3-.49,2.58,2.58,0,0,0,.12-.39,1.61,1.61,0,0,0,0-.34q0-.3-.21-.3a.51.51,0,0,0-.32.17,2.28,2.28,0,0,0-.36.49A5.08,5.08,0,0,0,109.24,222.91Z"
          style="fill:#333"/>
    <path d="M113.19,221.32l-.3,1.19a1.34,1.34,0,0,0,0,.3.32.32,0,0,0,0,.17.12.12,0,0,0,.1.07c.06,0,.17-.08.31-.23l0,0,0,0a2.78,2.78,0,0,1-.26.28.27.27,0,0,1-.16.08.22.22,0,0,1-.18-.11.43.43,0,0,1-.08-.25,3.07,3.07,0,0,1,.08-.47l0-.12a2.39,2.39,0,0,1-.32.54.9.9,0,0,1-.64.43.36.36,0,0,1-.29-.13.55.55,0,0,1-.11-.36,1.38,1.38,0,0,1,.17-.64,1.74,1.74,0,0,1,.43-.55.79.79,0,0,1,.5-.21.43.43,0,0,1,.38.19l0-.12Zm-.37.41a.37.37,0,0,0-.13-.19.34.34,0,0,0-.21-.07.49.49,0,0,0-.3.13,1.3,1.3,0,0,0-.29.37,2.08,2.08,0,0,0-.17.41,1.3,1.3,0,0,0-.07.37.46.46,0,0,0,.06.26.2.2,0,0,0,.18.09.49.49,0,0,0,.31-.14,1.7,1.7,0,0,0,.32-.4,1.53,1.53,0,0,0,.15-.3c0-.1.08-.24.12-.42Z"
          style="fill:#333"/>
    <path d="M114.71,218.84l.34-.17-.93,4q.58-1.3,1.14-1.3a.36.36,0,0,1,.2.06.4.4,0,0,1,.14.18.62.62,0,0,1,0,.25,1.51,1.51,0,0,1-.12.54,1.84,1.84,0,0,1-.29.51.91.91,0,0,1-.7.38.66.66,0,0,1-.23,0,1.1,1.1,0,0,1-.25-.13l-.23.14Zm-.59,4.07a.46.46,0,0,0,.42.3.5.5,0,0,0,.36-.17,1.46,1.46,0,0,0,.3-.49,2.58,2.58,0,0,0,.12-.39,1.61,1.61,0,0,0,0-.34q0-.3-.21-.3a.51.51,0,0,0-.32.17,2.28,2.28,0,0,0-.36.49A5.08,5.08,0,0,0,114.12,222.91Z"
          style="fill:#333"/>
    <path d="M116,224.38l.16-.21a.57.57,0,0,0,.42.2.48.48,0,0,0,.4-.2,1.67,1.67,0,0,0,.25-.65l.15-.67a1,1,0,0,1-.64.42.34.34,0,0,1-.26-.1.39.39,0,0,1-.1-.28,1.29,1.29,0,0,1,0-.26l.22-1.16.31-.13-.31,1.3a1.1,1.1,0,0,0,0,.24.25.25,0,0,0,.07.18.23.23,0,0,0,.18.07.46.46,0,0,0,.26-.11,2,2,0,0,0,.32-.32l.28-1.24.3-.13-.47,1.9a4.47,4.47,0,0,1-.16.54,1.3,1.3,0,0,1-.18.32,1,1,0,0,1-.77.41A.63.63,0,0,1,116,224.38Z"
          style="fill:#333"/>
    <path d="M121.83,221.32l-.3,1.19a1.34,1.34,0,0,0,0,.3.32.32,0,0,0,0,.17.12.12,0,0,0,.1.07c.06,0,.17-.08.31-.23l0,0,0,0a2.78,2.78,0,0,1-.26.28.27.27,0,0,1-.16.08.22.22,0,0,1-.18-.11.43.43,0,0,1-.08-.25,3.07,3.07,0,0,1,.08-.47l0-.12a2.39,2.39,0,0,1-.32.54.9.9,0,0,1-.64.43.36.36,0,0,1-.29-.13.55.55,0,0,1-.11-.36,1.38,1.38,0,0,1,.17-.64,1.74,1.74,0,0,1,.43-.55.79.79,0,0,1,.5-.21.43.43,0,0,1,.38.19l0-.12Zm-.37.41a.37.37,0,0,0-.13-.19.34.34,0,0,0-.21-.07.49.49,0,0,0-.3.13,1.3,1.3,0,0,0-.29.37,2.08,2.08,0,0,0-.17.41,1.3,1.3,0,0,0-.07.37.46.46,0,0,0,.06.26.2.2,0,0,0,.18.09.49.49,0,0,0,.31-.14,1.7,1.7,0,0,0,.32-.4,1.53,1.53,0,0,0,.15-.3c0-.1.08-.24.12-.42Z"
          style="fill:#333"/>
    <path d="M123.7,218.67l-.85,3.73,0,.13a1.33,1.33,0,0,0,0,.3.32.32,0,0,0,0,.16.11.11,0,0,0,.09.06c.07,0,.17-.08.32-.24l.05,0,0,0a3.15,3.15,0,0,1-.27.29.26.26,0,0,1-.16.08.21.21,0,0,1-.17-.11.43.43,0,0,1-.07-.25,1.76,1.76,0,0,1,0-.31l.75-3.77Z"
          style="fill:#333"/>
    <path d="M123.86,221.47l.29-.13v.08c0,.15,0,.3,0,.43s0,.32,0,.56.05.46.07.52,0,.09.08.09.13-.08.23-.23a3.85,3.85,0,0,0,.32-.55l-.1-.78.29-.13v.08c0,.46,0,.79.05,1l0,.16v.33c0,.07,0,.11.08.11s.21-.15.4-.46a1.44,1.44,0,0,0,.27-.72.39.39,0,0,0-.16-.34l.25-.23a.49.49,0,0,1,.11.34,1.3,1.3,0,0,1-.13.51,3.83,3.83,0,0,1-.38.64,4.06,4.06,0,0,1-.28.36c-.1.11-.17.16-.23.16a.11.11,0,0,1-.11-.07A.67.67,0,0,1,125,223l-.07-.58a3.52,3.52,0,0,1-.33.54c-.16.22-.29.33-.39.33a.11.11,0,0,1-.1-.06.81.81,0,0,1-.06-.22Z"
          style="fill:#333"/>
    <path d="M128.51,221.32l-.3,1.19a1.34,1.34,0,0,0,0,.3.32.32,0,0,0,0,.17.12.12,0,0,0,.1.07c.06,0,.17-.08.31-.23l0,0,0,0a2.78,2.78,0,0,1-.26.28.27.27,0,0,1-.16.08.22.22,0,0,1-.18-.11.43.43,0,0,1-.08-.25,3.07,3.07,0,0,1,.08-.47l0-.12a2.39,2.39,0,0,1-.32.54.9.9,0,0,1-.64.43.36.36,0,0,1-.29-.13.55.55,0,0,1-.11-.36,1.38,1.38,0,0,1,.17-.64,1.74,1.74,0,0,1,.43-.55.79.79,0,0,1,.5-.21.43.43,0,0,1,.38.19l0-.12Zm-.37.41a.37.37,0,0,0-.13-.19.34.34,0,0,0-.21-.07.49.49,0,0,0-.3.13,1.3,1.3,0,0,0-.29.37,2.08,2.08,0,0,0-.17.41,1.3,1.3,0,0,0-.07.37.46.46,0,0,0,.06.26.2.2,0,0,0,.18.09.49.49,0,0,0,.31-.14,1.7,1.7,0,0,0,.32-.4,1.53,1.53,0,0,0,.15-.3c0-.1.08-.24.12-.42Z"
          style="fill:#333"/>
    <path d="M128.89,224.38l.16-.21a.57.57,0,0,0,.42.2.48.48,0,0,0,.4-.2,1.67,1.67,0,0,0,.25-.65l.15-.67a1,1,0,0,1-.64.42.34.34,0,0,1-.26-.1.39.39,0,0,1-.1-.28,1.29,1.29,0,0,1,0-.26l.22-1.16.31-.13-.31,1.3a1.1,1.1,0,0,0,0,.24.25.25,0,0,0,.07.18.23.23,0,0,0,.18.07A.46.46,0,0,0,130,223a2,2,0,0,0,.32-.32l.28-1.24.3-.13-.47,1.9a4.47,4.47,0,0,1-.16.54,1.3,1.3,0,0,1-.18.32,1,1,0,0,1-.77.41A.63.63,0,0,1,128.89,224.38Z"
          style="fill:#333"/>
    <path d="M131.27,223l.18-.21a.48.48,0,0,0,.45.34.4.4,0,0,0,.28-.11.32.32,0,0,0,.11-.24.27.27,0,0,0-.06-.17,1.88,1.88,0,0,0-.26-.24,1.61,1.61,0,0,1-.26-.24.34.34,0,0,1-.07-.21.49.49,0,0,1,.09-.28.68.68,0,0,1,.55-.29.41.41,0,0,1,.24.07.22.22,0,0,1,.1.19.2.2,0,0,1-.13.2.37.37,0,0,0-.11-.24.36.36,0,0,0-.24-.09.34.34,0,0,0-.23.09.26.26,0,0,0-.1.2.36.36,0,0,0,.17.27l.19.15a.59.59,0,0,1,.28.44.57.57,0,0,1-.1.32.69.69,0,0,1-.26.23.72.72,0,0,1-.34.09A.59.59,0,0,1,131.27,223Z"
          style="fill:#333"/>
    <path d="M134.67,222.32a2,2,0,0,0,.37-.63.46.46,0,0,1-.26-.42.34.34,0,0,1,.06-.21A.19.19,0,0,1,135,221a.19.19,0,0,1,.16.09.4.4,0,0,1,.06.23.82.82,0,0,1,0,.22l.16,0a.47.47,0,0,0,.33-.12h.16l0,0a6.11,6.11,0,0,0-.38.84,2,2,0,0,0-.15.62.2.2,0,0,0,0,.13.12.12,0,0,0,.09,0c.09,0,.23-.09.43-.28l.05.06a2.37,2.37,0,0,1-.28.25.53.53,0,0,1-.32.13.25.25,0,0,1-.2-.08A.34.34,0,0,1,135,223a1.46,1.46,0,0,1,.19-.62c0-.09.1-.2.17-.32l.27-.42,0,0a.71.71,0,0,1-.21.14.58.58,0,0,1-.23,0l-.12,0a2,2,0,0,1-.39.65Zm.44-.82a.87.87,0,0,0,0-.14.37.37,0,0,0,0-.18.11.11,0,0,0-.1-.06.07.07,0,0,0-.06,0,.12.12,0,0,0,0,.08C134.91,221.32,135,221.41,135.11,221.49Z"
          style="fill:#333"/>
    <path d="M136.43,222.61a1.21,1.21,0,0,1,.16-.58,1.39,1.39,0,0,1,.41-.47.85.85,0,0,1,.51-.18.57.57,0,0,1,.44.18.65.65,0,0,1,.17.46,1.27,1.27,0,0,1-.15.6,1.4,1.4,0,0,1-.4.48.85.85,0,0,1-.51.19.57.57,0,0,1-.44-.19A.7.7,0,0,1,136.43,222.61Zm1.39-.71a.52.52,0,0,0-.1-.32.29.29,0,0,0-.24-.13.45.45,0,0,0-.26.09.85.85,0,0,0-.23.26,1.93,1.93,0,0,0-.19.45,1.65,1.65,0,0,0-.08.46.62.62,0,0,0,.09.37.31.31,0,0,0,.27.13c.19,0,.35-.13.5-.39a1.94,1.94,0,0,0,.17-.45A1.87,1.87,0,0,0,137.82,221.9Z"
          style="fill:#333"/>
    <path d="M140.53,221.32l-.3,1.19a1.34,1.34,0,0,0,0,.3.32.32,0,0,0,0,.17.12.12,0,0,0,.1.07c.06,0,.17-.08.31-.23l0,0,0,0a2.78,2.78,0,0,1-.26.28.27.27,0,0,1-.16.08.22.22,0,0,1-.18-.11.43.43,0,0,1-.08-.25,3.07,3.07,0,0,1,.08-.47l0-.12a2.39,2.39,0,0,1-.32.54.9.9,0,0,1-.64.43.36.36,0,0,1-.29-.13.55.55,0,0,1-.11-.36,1.38,1.38,0,0,1,.17-.64,1.74,1.74,0,0,1,.43-.55.79.79,0,0,1,.5-.21.43.43,0,0,1,.38.19l0-.12Zm-.37.41a.37.37,0,0,0-.13-.19.34.34,0,0,0-.21-.07.49.49,0,0,0-.3.13,1.3,1.3,0,0,0-.29.37,2.08,2.08,0,0,0-.17.41,1.3,1.3,0,0,0-.07.37.46.46,0,0,0,.06.26.2.2,0,0,0,.18.09.49.49,0,0,0,.31-.14,1.7,1.7,0,0,0,.32-.4,1.53,1.53,0,0,0,.15-.3c0-.1.08-.24.12-.42Z"
          style="fill:#333"/>
    <path d="M142.5,223.2l-.21.07.26-1.32,0-.11a.82.82,0,0,0,0-.16c0-.09,0-.14-.11-.14a.42.42,0,0,0-.26.14,2.08,2.08,0,0,0-.32.42,3.78,3.78,0,0,0-.19.34,3.5,3.5,0,0,0-.15.35c0,.12-.09.26-.13.42l-.2.07.33-1.79.31-.13-.28,1.18a3.14,3.14,0,0,1,.5-.82.75.75,0,0,1,.5-.32q.24,0,.24.28a2,2,0,0,1,0,.33l-.11.48a4.61,4.61,0,0,1,.53-.85.6.6,0,0,1,.43-.25.25.25,0,0,1,.19.07.28.28,0,0,1,.07.2,1.82,1.82,0,0,1-.06.37l-.1.4,0,.13a1.51,1.51,0,0,0,0,.3.34.34,0,0,0,0,.17.1.1,0,0,0,.09.06c.07,0,.18-.08.32-.24l0,0,0,0a2.91,2.91,0,0,1-.27.29.26.26,0,0,1-.16.08.2.2,0,0,1-.17-.1.44.44,0,0,1-.07-.25,1.84,1.84,0,0,1,0-.31l.12-.67,0-.12a.82.82,0,0,0,0-.16.13.13,0,0,0,0-.09.13.13,0,0,0-.1,0,.29.29,0,0,0-.16.06.94.94,0,0,0-.18.18,3,3,0,0,0-.22.32,4.42,4.42,0,0,0-.26.51A4.67,4.67,0,0,0,142.5,223.2Z"
          style="fill:#333"/>
    <path d="M146.79,221.34l-.28,1.07a1.68,1.68,0,0,0-.07.42.35.35,0,0,0,0,.17.11.11,0,0,0,.09.06c.07,0,.17-.08.32-.24l.05,0,0,0a3.15,3.15,0,0,1-.27.29.26.26,0,0,1-.16.08.2.2,0,0,1-.17-.1.44.44,0,0,1-.07-.25,1.92,1.92,0,0,1,0-.31l.2-1.13Zm.09-1.27a.18.18,0,0,1,.14.05.2.2,0,0,1,0,.27.18.18,0,0,1-.13.05.19.19,0,0,1-.13-.06.18.18,0,0,1-.06-.13.18.18,0,0,1,.06-.13A.19.19,0,0,1,146.88,220.07Z"
          style="fill:#333"/>
    <path d="M147.46,223.27l.34-1.79.31-.13-.28,1.19a3.61,3.61,0,0,1,.53-.86.72.72,0,0,1,.51-.29.25.25,0,0,1,.19.08.3.3,0,0,1,.07.21.89.89,0,0,1,0,.21l0,.14-.1.4,0,.13a1.31,1.31,0,0,0,0,.3.34.34,0,0,0,0,.17.11.11,0,0,0,.09.06c.07,0,.17-.08.32-.24l.05,0,0,0a3.08,3.08,0,0,1-.27.29.26.26,0,0,1-.16.08.2.2,0,0,1-.17-.1.44.44,0,0,1-.07-.25,1.81,1.81,0,0,1,0-.31l.13-.69a1.67,1.67,0,0,0,0-.23.14.14,0,0,0,0-.1.13.13,0,0,0-.1,0c-.15,0-.33.16-.55.48a3,3,0,0,0-.26.46,5.86,5.86,0,0,0-.23.62l0,.09Z"
          style="fill:#333"/>
    <path d="M152,221.51l-.25,1.08a1.37,1.37,0,0,0,0,.25.29.29,0,0,0,.06.19.18.18,0,0,0,.15.07.28.28,0,0,0,.16,0,1.64,1.64,0,0,0,.22-.21l0,0,0,0a2,2,0,0,1-.32.33.42.42,0,0,1-.25.1.32.32,0,0,1-.25-.1.38.38,0,0,1-.09-.27,1.86,1.86,0,0,1,0-.36l.21-1h-.31l0-.11h.31l.18-.87.31-.12-.23,1h.52l0,.11Z"
          style="fill:#333"/>
    <path d="M152.9,223.27l.86-4.43.34-.17-.9,3.94v0l.07-.17a2.76,2.76,0,0,1,.48-.75.74.74,0,0,1,.5-.29.26.26,0,0,1,.2.08.3.3,0,0,1,.07.21.92.92,0,0,1,0,.21l0,.14-.1.4,0,.13a1.33,1.33,0,0,0,0,.3.34.34,0,0,0,0,.17.1.1,0,0,0,.09.06c.07,0,.17-.08.32-.24l0,0,0,0a3,3,0,0,1-.27.29.26.26,0,0,1-.16.08.2.2,0,0,1-.17-.11.44.44,0,0,1-.07-.25,1.92,1.92,0,0,1,0-.31l.12-.69a1.34,1.34,0,0,0,0-.23.14.14,0,0,0,0-.1.13.13,0,0,0-.1,0,.44.44,0,0,0-.27.14,1.89,1.89,0,0,0-.31.39,3.51,3.51,0,0,0-.27.53,3.08,3.08,0,0,0-.17.58Z"
          style="fill:#333"/>
    <path d="M156.63,222.73l.06,0a1.53,1.53,0,0,1-.39.38.77.77,0,0,1-.41.12.54.54,0,0,1-.42-.17.66.66,0,0,1-.16-.46,1.29,1.29,0,0,1,.15-.59,1.6,1.6,0,0,1,.39-.5.71.71,0,0,1,.46-.2.31.31,0,0,1,.22.08.26.26,0,0,1,.09.2.7.7,0,0,1-.27.5,2.26,2.26,0,0,1-.74.42.49.49,0,0,0,0,.06.53.53,0,0,0,.12.36.4.4,0,0,0,.32.14.52.52,0,0,0,.29-.1A1.41,1.41,0,0,0,156.63,222.73Zm-1-.25a1.73,1.73,0,0,0,.54-.35,1.19,1.19,0,0,0,.2-.28.6.6,0,0,0,.08-.27q0-.15-.14-.15t-.43.33A1.59,1.59,0,0,0,155.6,222.49Z"
          style="fill:#333"/>
    <path d="M158.73,222.61a1.21,1.21,0,0,1,.16-.58,1.39,1.39,0,0,1,.41-.47.85.85,0,0,1,.51-.18.57.57,0,0,1,.44.18.65.65,0,0,1,.17.46,1.27,1.27,0,0,1-.15.6,1.4,1.4,0,0,1-.4.48.85.85,0,0,1-.51.19.57.57,0,0,1-.44-.19A.7.7,0,0,1,158.73,222.61Zm1.39-.71a.52.52,0,0,0-.1-.32.29.29,0,0,0-.24-.13.45.45,0,0,0-.26.09.85.85,0,0,0-.23.26,1.93,1.93,0,0,0-.19.45,1.65,1.65,0,0,0-.08.46.62.62,0,0,0,.09.37.31.31,0,0,0,.27.13c.19,0,.35-.13.5-.39a1.94,1.94,0,0,0,.17-.45A1.87,1.87,0,0,0,160.11,221.9Z"
          style="fill:#333"/>
    <path d="M162.36,222.75a1.64,1.64,0,0,1-.38.41.71.71,0,0,1-.41.13.52.52,0,0,1-.41-.17.65.65,0,0,1-.16-.45,1.3,1.3,0,0,1,.15-.59,1.53,1.53,0,0,1,.39-.5.73.73,0,0,1,.46-.2.34.34,0,0,1,.24.08.29.29,0,0,1,.09.22.38.38,0,0,1-.1.24.27.27,0,0,1-.21.11.12.12,0,0,1-.09,0,.35.35,0,0,0,.21-.35.2.2,0,0,0,0-.14.16.16,0,0,0-.12,0,.38.38,0,0,0-.24.1,1,1,0,0,0-.23.27,1.57,1.57,0,0,0-.17.37,1.35,1.35,0,0,0-.06.4.63.63,0,0,0,.11.39.36.36,0,0,0,.3.15.55.55,0,0,0,.31-.1,1.42,1.42,0,0,0,.31-.31Z"
          style="fill:#333"/>
    <path d="M164.24,222.73l.06,0a1.53,1.53,0,0,1-.39.38.77.77,0,0,1-.41.12.54.54,0,0,1-.42-.17.66.66,0,0,1-.16-.46,1.29,1.29,0,0,1,.15-.59,1.6,1.6,0,0,1,.39-.5.71.71,0,0,1,.46-.2.31.31,0,0,1,.22.08.26.26,0,0,1,.09.2.7.7,0,0,1-.27.5,2.26,2.26,0,0,1-.74.42.49.49,0,0,0,0,.06.53.53,0,0,0,.12.36.4.4,0,0,0,.32.14.52.52,0,0,0,.29-.1A1.41,1.41,0,0,0,164.24,222.73Zm-1-.25a1.73,1.73,0,0,0,.54-.35,1.19,1.19,0,0,0,.2-.28.6.6,0,0,0,.08-.27q0-.15-.14-.15t-.43.33A1.59,1.59,0,0,0,163.2,222.49Z"
          style="fill:#333"/>
    <path d="M166.68,221.32l-.3,1.19a1.34,1.34,0,0,0,0,.3.32.32,0,0,0,0,.17.12.12,0,0,0,.1.07c.06,0,.17-.08.31-.23l0,0,0,0a2.78,2.78,0,0,1-.26.28.27.27,0,0,1-.16.08.22.22,0,0,1-.18-.11.43.43,0,0,1-.08-.25,3.07,3.07,0,0,1,.08-.47l0-.12a2.39,2.39,0,0,1-.32.54.9.9,0,0,1-.64.43.36.36,0,0,1-.29-.13.55.55,0,0,1-.11-.36,1.38,1.38,0,0,1,.17-.64,1.74,1.74,0,0,1,.43-.55.79.79,0,0,1,.5-.21.43.43,0,0,1,.38.19l0-.12Zm-.37.41a.37.37,0,0,0-.13-.19.34.34,0,0,0-.21-.07.49.49,0,0,0-.3.13,1.3,1.3,0,0,0-.29.37,2.08,2.08,0,0,0-.17.41,1.3,1.3,0,0,0-.07.37.46.46,0,0,0,.06.26.2.2,0,0,0,.18.09.49.49,0,0,0,.31-.14,1.7,1.7,0,0,0,.32-.4,1.53,1.53,0,0,0,.15-.3c0-.1.08-.24.12-.42Z"
          style="fill:#333"/>
    <path d="M167.37,223.27l.34-1.79.31-.13-.28,1.19a3.61,3.61,0,0,1,.53-.86.72.72,0,0,1,.51-.29.25.25,0,0,1,.19.08.3.3,0,0,1,.07.21.89.89,0,0,1,0,.21l0,.14-.1.4,0,.13a1.31,1.31,0,0,0,0,.3.34.34,0,0,0,0,.17.11.11,0,0,0,.09.06c.07,0,.17-.08.32-.24l.05,0,0,0a3.08,3.08,0,0,1-.27.29.26.26,0,0,1-.16.08.2.2,0,0,1-.17-.1.44.44,0,0,1-.07-.25,1.81,1.81,0,0,1,0-.31l.13-.69a1.67,1.67,0,0,0,0-.23.14.14,0,0,0,0-.1.13.13,0,0,0-.1,0c-.15,0-.33.16-.55.48a3,3,0,0,0-.26.46,5.86,5.86,0,0,0-.23.62l0,.09Z"
          style="fill:#333"/>
    <path d="M171.3,222.61a1.21,1.21,0,0,1,.16-.58,1.39,1.39,0,0,1,.41-.47.85.85,0,0,1,.51-.18.57.57,0,0,1,.44.18.65.65,0,0,1,.17.46,1.27,1.27,0,0,1-.15.6,1.4,1.4,0,0,1-.4.48.85.85,0,0,1-.51.19.57.57,0,0,1-.44-.19A.7.7,0,0,1,171.3,222.61Zm1.39-.71a.52.52,0,0,0-.1-.32.29.29,0,0,0-.24-.13.45.45,0,0,0-.26.09.85.85,0,0,0-.23.26,1.93,1.93,0,0,0-.19.45,1.65,1.65,0,0,0-.08.46.62.62,0,0,0,.09.37.31.31,0,0,0,.27.13c.19,0,.35-.13.5-.39a1.94,1.94,0,0,0,.17-.45A1.87,1.87,0,0,0,172.69,221.9Z"
          style="fill:#333"/>
    <path d="M174,221.51h-.32l0-.11H174l.3-1.42a4.09,4.09,0,0,1,.16-.56,1.53,1.53,0,0,1,.19-.36.84.84,0,0,1,.69-.37.72.72,0,0,1,.26,0l-.12.29a.39.39,0,0,0-.33-.18.3.3,0,0,0-.25.12,1,1,0,0,0-.16.39l-.5,2.05h.52l0,.11h-.52l-.44,1.84a3.18,3.18,0,0,1-.17.55,1.27,1.27,0,0,1-.23.34.76.76,0,0,1-.57.28.65.65,0,0,1-.27-.05l.16-.23a.46.46,0,0,0,.29.11.38.38,0,0,0,.36-.25,3.34,3.34,0,0,0,.18-.62Z"
          style="fill:#333"/>
    <path d="M177.66,218.67l-.85,3.73,0,.13a1.33,1.33,0,0,0,0,.3.32.32,0,0,0,0,.16.11.11,0,0,0,.09.06c.07,0,.17-.08.32-.24l.05,0,0,0a3.15,3.15,0,0,1-.27.29.26.26,0,0,1-.16.08.21.21,0,0,1-.17-.11.43.43,0,0,1-.07-.25,1.76,1.76,0,0,1,0-.31l.75-3.77Z"
          style="fill:#333"/>
    <path d="M177.74,222.61a1.21,1.21,0,0,1,.16-.58,1.39,1.39,0,0,1,.41-.47.85.85,0,0,1,.51-.18.57.57,0,0,1,.44.18.65.65,0,0,1,.17.46,1.27,1.27,0,0,1-.15.6,1.4,1.4,0,0,1-.4.48.85.85,0,0,1-.51.19.57.57,0,0,1-.44-.19A.7.7,0,0,1,177.74,222.61Zm1.39-.71a.52.52,0,0,0-.1-.32.29.29,0,0,0-.24-.13.45.45,0,0,0-.26.09.85.85,0,0,0-.23.26,1.93,1.93,0,0,0-.19.45,1.65,1.65,0,0,0-.08.46.62.62,0,0,0,.09.37.31.31,0,0,0,.27.13c.19,0,.35-.13.5-.39a1.94,1.94,0,0,0,.17-.45A1.87,1.87,0,0,0,179.12,221.9Z"
          style="fill:#333"/>
    <path d="M180.1,221.47l.29-.13v.08q0,.47.05,1c0,.18,0,.32,0,.4a.6.6,0,0,0,0,.18.08.08,0,0,0,.07,0q.12,0,.43-.46a1.34,1.34,0,0,0,.28-.74.58.58,0,0,0,0-.2.45.45,0,0,0-.11-.16l.24-.23a.58.58,0,0,1,.11.36,2.17,2.17,0,0,1-.51,1.14,2.93,2.93,0,0,1-.33.38l-.13.1a.19.19,0,0,1-.1,0,.12.12,0,0,1-.11-.06.68.68,0,0,1-.05-.23Z"
          style="fill:#333"/>
    <path d="M183.36,222.73l.06,0a1.53,1.53,0,0,1-.39.38.77.77,0,0,1-.41.12.54.54,0,0,1-.42-.17.66.66,0,0,1-.16-.46,1.29,1.29,0,0,1,.15-.59,1.6,1.6,0,0,1,.39-.5.71.71,0,0,1,.46-.2.31.31,0,0,1,.22.08.26.26,0,0,1,.09.2.7.7,0,0,1-.27.5,2.26,2.26,0,0,1-.74.42.49.49,0,0,0,0,.06.53.53,0,0,0,.12.36.4.4,0,0,0,.32.14.52.52,0,0,0,.29-.1A1.41,1.41,0,0,0,183.36,222.73Zm-1-.25a1.73,1.73,0,0,0,.54-.35,1.19,1.19,0,0,0,.2-.28.6.6,0,0,0,.08-.27q0-.15-.14-.15t-.43.33A1.59,1.59,0,0,0,182.32,222.49Z"
          style="fill:#333"/>
    <path d="M116.06,229.64l.18-.21a.48.48,0,0,0,.45.34.4.4,0,0,0,.28-.11.32.32,0,0,0,.11-.24.27.27,0,0,0-.06-.17,2,2,0,0,0-.26-.24,1.6,1.6,0,0,1-.26-.25.33.33,0,0,1-.07-.21.48.48,0,0,1,.09-.28.65.65,0,0,1,.24-.21.66.66,0,0,1,.31-.08.41.41,0,0,1,.24.07.22.22,0,0,1,.1.19.2.2,0,0,1-.13.2.37.37,0,0,0-.11-.24.35.35,0,0,0-.24-.09.34.34,0,0,0-.23.09.25.25,0,0,0-.1.2.36.36,0,0,0,.17.27l.19.15a.59.59,0,0,1,.28.44.57.57,0,0,1-.1.32.69.69,0,0,1-.26.23.72.72,0,0,1-.34.09A.59.59,0,0,1,116.06,229.64Z"
          style="fill:#333"/>
    <path d="M118,229.23a1.21,1.21,0,0,1,.16-.58,1.39,1.39,0,0,1,.41-.47.85.85,0,0,1,.51-.18.57.57,0,0,1,.44.18.66.66,0,0,1,.17.46,1.28,1.28,0,0,1-.15.6,1.41,1.41,0,0,1-.4.48.85.85,0,0,1-.51.19.57.57,0,0,1-.44-.19A.7.7,0,0,1,118,229.23Zm1.39-.71a.52.52,0,0,0-.1-.32.29.29,0,0,0-.24-.13.45.45,0,0,0-.26.09.86.86,0,0,0-.23.26,2,2,0,0,0-.19.45,1.66,1.66,0,0,0-.08.46.62.62,0,0,0,.09.37.31.31,0,0,0,.27.13q.28,0,.5-.39a1.93,1.93,0,0,0,.17-.45A1.87,1.87,0,0,0,119.37,228.51Z"
          style="fill:#333"/>
    <path d="M122.08,227.93l-.3,1.18a1.34,1.34,0,0,0,0,.3.32.32,0,0,0,0,.17.12.12,0,0,0,.1.07c.06,0,.17-.08.31-.23l0,0,0,0a2.86,2.86,0,0,1-.26.28.27.27,0,0,1-.16.08.22.22,0,0,1-.18-.11.43.43,0,0,1-.08-.25,3.08,3.08,0,0,1,.08-.47l0-.12a2.36,2.36,0,0,1-.32.53.9.9,0,0,1-.64.43.36.36,0,0,1-.29-.13.55.55,0,0,1-.11-.36,1.39,1.39,0,0,1,.17-.64,1.75,1.75,0,0,1,.43-.55.79.79,0,0,1,.5-.21.43.43,0,0,1,.38.19l0-.12Zm-.37.41a.38.38,0,0,0-.13-.19.34.34,0,0,0-.21-.07.49.49,0,0,0-.3.13,1.28,1.28,0,0,0-.29.36,2.09,2.09,0,0,0-.17.41,1.29,1.29,0,0,0-.07.37.46.46,0,0,0,.06.26.2.2,0,0,0,.18.09.48.48,0,0,0,.31-.14,1.66,1.66,0,0,0,.32-.4,1.5,1.5,0,0,0,.15-.3c0-.1.08-.24.12-.42Z"
          style="fill:#333"/>
    <path d="M122.75,228.93a2,2,0,0,0,.37-.63.46.46,0,0,1-.26-.42.34.34,0,0,1,.06-.21.19.19,0,0,1,.31,0,.41.41,0,0,1,.06.23.82.82,0,0,1,0,.22l.16,0a.47.47,0,0,0,.33-.12h.16l0,0a6.12,6.12,0,0,0-.38.84,2,2,0,0,0-.15.62.2.2,0,0,0,0,.13.12.12,0,0,0,.09.05c.09,0,.23-.09.43-.28l.05.06a2.29,2.29,0,0,1-.28.25.54.54,0,0,1-.32.14.25.25,0,0,1-.2-.08.34.34,0,0,1-.07-.23,1.45,1.45,0,0,1,.19-.62c0-.09.1-.2.17-.32l.27-.42,0,0a.72.72,0,0,1-.21.14.6.6,0,0,1-.23,0l-.12,0a2,2,0,0,1-.39.65Zm.44-.82a.85.85,0,0,0,0-.13.36.36,0,0,0,0-.18.11.11,0,0,0-.1-.07.07.07,0,0,0-.06,0,.12.12,0,0,0,0,.08A.33.33,0,0,0,123.19,228.11Z"
          style="fill:#333"/>
    <path d="M126.64,228l-.28,1.07a1.67,1.67,0,0,0-.07.42.34.34,0,0,0,0,.17.1.1,0,0,0,.09.07c.07,0,.17-.08.32-.24l.05,0,0,0a3.15,3.15,0,0,1-.27.29.26.26,0,0,1-.16.08.2.2,0,0,1-.17-.1.44.44,0,0,1-.07-.25,1.91,1.91,0,0,1,0-.31l.2-1.13Zm.09-1.27a.18.18,0,0,1,.19.19.18.18,0,0,1-.06.13.18.18,0,0,1-.13.06.2.2,0,0,1-.19-.19.18.18,0,0,1,.06-.13A.18.18,0,0,1,126.73,226.68Z"
          style="fill:#333"/>
    <path d="M127.31,229.88l.34-1.79L128,228l-.28,1.19a3.57,3.57,0,0,1,.53-.86.72.72,0,0,1,.51-.29.25.25,0,0,1,.19.08.3.3,0,0,1,.07.21.89.89,0,0,1,0,.21l0,.14-.1.4,0,.13a1.33,1.33,0,0,0,0,.3.33.33,0,0,0,0,.17.11.11,0,0,0,.09.06c.07,0,.17-.08.32-.24l.05,0,0,0a3.08,3.08,0,0,1-.27.29.26.26,0,0,1-.16.08.2.2,0,0,1-.17-.1.44.44,0,0,1-.07-.25,1.8,1.8,0,0,1,0-.31l.13-.69a1.65,1.65,0,0,0,0-.23.14.14,0,0,0,0-.1.13.13,0,0,0-.1,0q-.22,0-.55.48a3,3,0,0,0-.26.46,6,6,0,0,0-.23.62l0,.09Z"
          style="fill:#333"/>
    <path d="M131.86,228.12l-.25,1.08a1.37,1.37,0,0,0,0,.25.29.29,0,0,0,.06.19.17.17,0,0,0,.15.07.28.28,0,0,0,.16-.05,1.64,1.64,0,0,0,.22-.21l0,0,0,0a1.94,1.94,0,0,1-.32.33.42.42,0,0,1-.25.1.32.32,0,0,1-.25-.1.38.38,0,0,1-.09-.27,1.87,1.87,0,0,1,0-.36l.21-1h-.31l0-.11h.31l.18-.87.31-.12-.23,1h.52l0,.11Z"
          style="fill:#333"/>
    <path d="M132.75,229.88l.86-4.43.34-.17-.9,3.94v0l.07-.17a2.74,2.74,0,0,1,.48-.75.74.74,0,0,1,.5-.29.26.26,0,0,1,.2.08.3.3,0,0,1,.07.21.92.92,0,0,1,0,.21l0,.14-.1.4,0,.13a1.35,1.35,0,0,0,0,.3.33.33,0,0,0,0,.17.1.1,0,0,0,.09.06c.07,0,.17-.08.32-.24l0,0,0,0a3,3,0,0,1-.27.29.26.26,0,0,1-.16.08.2.2,0,0,1-.17-.11.44.44,0,0,1-.07-.25,1.91,1.91,0,0,1,0-.31l.12-.69a1.33,1.33,0,0,0,0-.23.14.14,0,0,0,0-.1.13.13,0,0,0-.1,0,.44.44,0,0,0-.27.14,1.87,1.87,0,0,0-.31.39,3.55,3.55,0,0,0-.27.53,3.07,3.07,0,0,0-.17.58Z"
          style="fill:#333"/>
    <path d="M136.48,229.35l.06,0a1.51,1.51,0,0,1-.39.38.76.76,0,0,1-.41.12.54.54,0,0,1-.42-.18.66.66,0,0,1-.16-.46,1.28,1.28,0,0,1,.15-.59,1.6,1.6,0,0,1,.39-.5.72.72,0,0,1,.46-.2.31.31,0,0,1,.22.08.26.26,0,0,1,.09.2.7.7,0,0,1-.27.5,2.26,2.26,0,0,1-.74.42.58.58,0,0,0,.12.42.4.4,0,0,0,.32.14.52.52,0,0,0,.29-.09A1.4,1.4,0,0,0,136.48,229.35Zm-1-.25a1.75,1.75,0,0,0,.54-.35,1.19,1.19,0,0,0,.2-.28.59.59,0,0,0,.08-.27q0-.15-.14-.15c-.14,0-.28.11-.43.33A1.59,1.59,0,0,0,135.45,229.1Z"
          style="fill:#333"/>
    <path d="M138.56,229.88l.86-4.43.34-.17-.9,3.94v0L139,229a2.74,2.74,0,0,1,.48-.75.74.74,0,0,1,.5-.29.26.26,0,0,1,.2.08.3.3,0,0,1,.07.21.92.92,0,0,1,0,.21l0,.14-.1.4,0,.13a1.35,1.35,0,0,0,0,.3.33.33,0,0,0,0,.17.1.1,0,0,0,.09.06c.07,0,.17-.08.32-.24l0,0,0,0a3,3,0,0,1-.27.29.26.26,0,0,1-.16.08.2.2,0,0,1-.17-.11.44.44,0,0,1-.07-.25,1.91,1.91,0,0,1,0-.31l.12-.69a1.33,1.33,0,0,0,0-.23.14.14,0,0,0,0-.1.13.13,0,0,0-.1,0,.44.44,0,0,0-.27.14,1.87,1.87,0,0,0-.31.39,3.55,3.55,0,0,0-.27.53,3.07,3.07,0,0,0-.17.58Z"
          style="fill:#333"/>
    <path d="M142.8,227.93l-.3,1.18a1.34,1.34,0,0,0,0,.3.32.32,0,0,0,0,.17.12.12,0,0,0,.1.07c.06,0,.17-.08.31-.23l0,0,0,0a2.86,2.86,0,0,1-.26.28.27.27,0,0,1-.16.08.22.22,0,0,1-.18-.11.43.43,0,0,1-.08-.25,3.08,3.08,0,0,1,.08-.47l0-.12a2.36,2.36,0,0,1-.32.53.9.9,0,0,1-.64.43.36.36,0,0,1-.29-.13.55.55,0,0,1-.11-.36,1.39,1.39,0,0,1,.17-.64,1.75,1.75,0,0,1,.43-.55.79.79,0,0,1,.5-.21.43.43,0,0,1,.38.19l0-.12Zm-.37.41a.38.38,0,0,0-.13-.19.34.34,0,0,0-.21-.07.49.49,0,0,0-.3.13,1.28,1.28,0,0,0-.29.36,2.09,2.09,0,0,0-.17.41,1.29,1.29,0,0,0-.07.37.46.46,0,0,0,.06.26.2.2,0,0,0,.18.09.48.48,0,0,0,.31-.14,1.66,1.66,0,0,0,.32-.4,1.5,1.5,0,0,0,.15-.3c0-.1.08-.24.12-.42Z"
          style="fill:#333"/>
    <path d="M143.24,231.13l.61-3,.31-.13-.21.93a2.73,2.73,0,0,1,.45-.69.65.65,0,0,1,.46-.21.37.37,0,0,1,.31.14.61.61,0,0,1,.11.39,1.45,1.45,0,0,1-.1.52,1.66,1.66,0,0,1-.29.48,1,1,0,0,1-.73.4.63.63,0,0,1-.41-.13l-.33,1.35Zm.56-1.57a.42.42,0,0,0,.38.27q.36,0,.62-.58a1.94,1.94,0,0,0,.22-.78.46.46,0,0,0-.06-.27.21.21,0,0,0-.18-.09.57.57,0,0,0-.41.26,2.64,2.64,0,0,0-.35.56c0,.08-.07.17-.1.26l-.09.29Z"
          style="fill:#333"/>
    <path d="M145.66,231.13l.61-3,.31-.13-.21.93a2.73,2.73,0,0,1,.45-.69.65.65,0,0,1,.46-.21.37.37,0,0,1,.31.14.61.61,0,0,1,.11.39,1.45,1.45,0,0,1-.1.52,1.66,1.66,0,0,1-.29.48,1,1,0,0,1-.73.4.63.63,0,0,1-.41-.13l-.33,1.35Zm.56-1.57a.42.42,0,0,0,.38.27q.36,0,.62-.58a1.94,1.94,0,0,0,.22-.78.46.46,0,0,0-.06-.27.21.21,0,0,0-.18-.09.57.57,0,0,0-.41.26,2.64,2.64,0,0,0-.35.56c0,.08-.07.17-.1.26l-.09.29Z"
          style="fill:#333"/>
    <path d="M148,231l.16-.21a.57.57,0,0,0,.42.2.48.48,0,0,0,.4-.2,1.68,1.68,0,0,0,.25-.65l.15-.67a1,1,0,0,1-.64.42.34.34,0,0,1-.26-.1.4.4,0,0,1-.1-.28,1.29,1.29,0,0,1,0-.26l.22-1.16L149,228l-.31,1.3a1.12,1.12,0,0,0,0,.24.25.25,0,0,0,.07.18.23.23,0,0,0,.18.07.46.46,0,0,0,.26-.11,2,2,0,0,0,.32-.32l.28-1.24.3-.13-.47,1.9a4.42,4.42,0,0,1-.16.54,1.29,1.29,0,0,1-.18.32,1,1,0,0,1-.77.41A.63.63,0,0,1,148,231Z"
          style="fill:#333"/>
    <path d="M151.88,229.64l.18-.21a.48.48,0,0,0,.45.34.4.4,0,0,0,.28-.11.32.32,0,0,0,.11-.24.27.27,0,0,0-.06-.17,2,2,0,0,0-.26-.24,1.6,1.6,0,0,1-.26-.25.33.33,0,0,1-.07-.21.48.48,0,0,1,.09-.28.65.65,0,0,1,.24-.21.66.66,0,0,1,.31-.08.41.41,0,0,1,.24.07.22.22,0,0,1,.1.19.2.2,0,0,1-.13.2.37.37,0,0,0-.11-.24.35.35,0,0,0-.24-.09.34.34,0,0,0-.23.09.25.25,0,0,0-.1.2.36.36,0,0,0,.17.27l.19.15a.59.59,0,0,1,.28.44.57.57,0,0,1-.1.32.69.69,0,0,1-.26.23.72.72,0,0,1-.34.09A.59.59,0,0,1,151.88,229.64Z"
          style="fill:#333"/>
    <path d="M155,225.29l-.88,3.83a2.27,2.27,0,0,1,.18-.34,2.74,2.74,0,0,1,.24-.32,1.88,1.88,0,0,1,.26-.25,1.23,1.23,0,0,1,.32-.19,1.2,1.2,0,0,1,.36-.07l-.06.26-.15,0a.94.94,0,0,0-.71.38,5.71,5.71,0,0,0,.28.64l.15.26a.63.63,0,0,0,.12.14.16.16,0,0,0,.1,0c.08,0,.19-.07.31-.2l0,0,0,0q-.33.4-.48.4a.26.26,0,0,1-.19-.09,1.4,1.4,0,0,1-.2-.3,6,6,0,0,1-.33-.71,2.85,2.85,0,0,0-.39,1l-.21.07.87-4.43Z"
          style="fill:#333"/>
    <path d="M155.76,231l.16-.21a.57.57,0,0,0,.42.2.48.48,0,0,0,.4-.2,1.68,1.68,0,0,0,.25-.65l.15-.67a1,1,0,0,1-.64.42.34.34,0,0,1-.26-.1.4.4,0,0,1-.1-.28,1.29,1.29,0,0,1,0-.26l.22-1.16.31-.13-.31,1.3a1.12,1.12,0,0,0,0,.24.25.25,0,0,0,.07.18.23.23,0,0,0,.18.07.46.46,0,0,0,.26-.11,2,2,0,0,0,.32-.32l.28-1.24.3-.13-.47,1.9a4.42,4.42,0,0,1-.16.54,1.29,1.29,0,0,1-.18.32,1,1,0,0,1-.77.41A.63.63,0,0,1,155.76,231Z"
          style="fill:#333"/>
    <path d="M109.43,232.06l.34-.16-.93,4q.58-1.3,1.14-1.3a.35.35,0,0,1,.2.06.39.39,0,0,1,.14.18.62.62,0,0,1,0,.25,1.52,1.52,0,0,1-.12.55,1.82,1.82,0,0,1-.29.51.9.9,0,0,1-.7.39.68.68,0,0,1-.23,0,1.15,1.15,0,0,1-.25-.13l-.23.14Zm-.59,4.07a.45.45,0,0,0,.42.3.51.51,0,0,0,.36-.17,1.49,1.49,0,0,0,.3-.49,2.55,2.55,0,0,0,.12-.39,1.6,1.6,0,0,0,0-.34q0-.3-.21-.3a.51.51,0,0,0-.32.17,2.25,2.25,0,0,0-.36.49A5.22,5.22,0,0,0,108.84,236.13Z"
          style="fill:#333"/>
    <path d="M112.3,236l.06,0a1.52,1.52,0,0,1-.39.38.77.77,0,0,1-.41.12.54.54,0,0,1-.42-.17.66.66,0,0,1-.16-.46,1.28,1.28,0,0,1,.15-.59,1.59,1.59,0,0,1,.39-.5.72.72,0,0,1,.46-.2.32.32,0,0,1,.22.08.26.26,0,0,1,.09.2.7.7,0,0,1-.27.5,2.24,2.24,0,0,1-.74.42.53.53,0,0,0,0,.06.53.53,0,0,0,.12.36.4.4,0,0,0,.32.14.53.53,0,0,0,.29-.09A1.43,1.43,0,0,0,112.3,236Zm-1-.25a1.75,1.75,0,0,0,.54-.35,1.19,1.19,0,0,0,.2-.28.59.59,0,0,0,.08-.27q0-.15-.14-.15t-.43.33A1.59,1.59,0,0,0,111.26,235.71Z"
          style="fill:#333"/>
    <path d="M114.22,236.25l.18-.21a.47.47,0,0,0,.45.34.4.4,0,0,0,.28-.11.32.32,0,0,0,.11-.24.28.28,0,0,0-.06-.17,1.91,1.91,0,0,0-.26-.24,1.64,1.64,0,0,1-.26-.25.34.34,0,0,1-.07-.21.48.48,0,0,1,.09-.28.68.68,0,0,1,.55-.29.4.4,0,0,1,.24.07.22.22,0,0,1,.1.19.2.2,0,0,1-.13.2.37.37,0,0,0-.11-.24.35.35,0,0,0-.24-.09.34.34,0,0,0-.23.09.25.25,0,0,0-.1.2.36.36,0,0,0,.17.27l.19.15a.59.59,0,0,1,.28.44.57.57,0,0,1-.1.32.68.68,0,0,1-.26.23.72.72,0,0,1-.34.09A.59.59,0,0,1,114.22,236.25Z"
          style="fill:#333"/>
    <path d="M118,234.55l-.3,1.18a1.36,1.36,0,0,0,0,.3.32.32,0,0,0,0,.17.12.12,0,0,0,.1.07c.06,0,.17-.08.31-.23l0,0,0,0a3,3,0,0,1-.26.28.27.27,0,0,1-.16.08.22.22,0,0,1-.18-.11.43.43,0,0,1-.08-.25,3.1,3.1,0,0,1,.08-.47l0-.12a2.38,2.38,0,0,1-.32.53.9.9,0,0,1-.64.43.35.35,0,0,1-.29-.13.55.55,0,0,1-.11-.36,1.39,1.39,0,0,1,.17-.64,1.78,1.78,0,0,1,.43-.55.79.79,0,0,1,.5-.21.43.43,0,0,1,.38.19l0-.12Zm-.37.41a.38.38,0,0,0-.13-.19.34.34,0,0,0-.21-.07.48.48,0,0,0-.3.13,1.28,1.28,0,0,0-.29.36,2.12,2.12,0,0,0-.17.41,1.29,1.29,0,0,0-.07.37.46.46,0,0,0,.06.26.2.2,0,0,0,.18.09.48.48,0,0,0,.31-.14,1.66,1.66,0,0,0,.32-.4,1.48,1.48,0,0,0,.15-.3c0-.1.08-.24.12-.41Z"
          style="fill:#333"/>
    <path d="M119,234.73h-.32l0-.11h.32l.3-1.42a4.07,4.07,0,0,1,.16-.56,1.52,1.52,0,0,1,.19-.36.84.84,0,0,1,.69-.37.68.68,0,0,1,.26,0l-.12.29a.39.39,0,0,0-.33-.18.3.3,0,0,0-.25.12,1,1,0,0,0-.16.39l-.5,2.05h.52l0,.11h-.52l-.44,1.84a3.18,3.18,0,0,1-.17.55,1.29,1.29,0,0,1-.23.34.76.76,0,0,1-.57.28.65.65,0,0,1-.27-.05l.16-.23a.46.46,0,0,0,.29.11.38.38,0,0,0,.36-.25,3.3,3.3,0,0,0,.18-.62Z"
          style="fill:#333"/>
    <path d="M121.34,236l.06,0a1.52,1.52,0,0,1-.39.38.77.77,0,0,1-.41.12.54.54,0,0,1-.42-.17.66.66,0,0,1-.16-.46,1.28,1.28,0,0,1,.15-.59,1.59,1.59,0,0,1,.39-.5.72.72,0,0,1,.46-.2.32.32,0,0,1,.22.08.26.26,0,0,1,.09.2.7.7,0,0,1-.27.5,2.24,2.24,0,0,1-.74.42.53.53,0,0,0,0,.06.53.53,0,0,0,.12.36.4.4,0,0,0,.32.14.53.53,0,0,0,.29-.09A1.43,1.43,0,0,0,121.34,236Zm-1-.25a1.75,1.75,0,0,0,.54-.35,1.19,1.19,0,0,0,.2-.28.59.59,0,0,0,.08-.27q0-.15-.14-.15t-.43.33A1.59,1.59,0,0,0,120.31,235.71Z"
          style="fill:#333"/>
    <path d="M125.26,234.55l-.3,1.18a1.36,1.36,0,0,0,0,.3.32.32,0,0,0,0,.17.12.12,0,0,0,.1.07c.06,0,.17-.08.31-.23l0,0,0,0a3,3,0,0,1-.26.28.27.27,0,0,1-.16.08.22.22,0,0,1-.18-.11.43.43,0,0,1-.08-.25,3.1,3.1,0,0,1,.08-.47l0-.12a2.38,2.38,0,0,1-.32.53.9.9,0,0,1-.64.43.35.35,0,0,1-.29-.13.55.55,0,0,1-.11-.36,1.39,1.39,0,0,1,.17-.64,1.78,1.78,0,0,1,.43-.55.79.79,0,0,1,.5-.21.43.43,0,0,1,.38.19l0-.12Zm-.37.41a.38.38,0,0,0-.13-.19.34.34,0,0,0-.21-.07.48.48,0,0,0-.3.13,1.28,1.28,0,0,0-.29.36,2.12,2.12,0,0,0-.17.41,1.29,1.29,0,0,0-.07.37.46.46,0,0,0,.06.26.2.2,0,0,0,.18.09.48.48,0,0,0,.31-.14,1.66,1.66,0,0,0,.32-.4,1.48,1.48,0,0,0,.15-.3c0-.1.08-.24.12-.41Z"
          style="fill:#333"/>
    <path d="M126,236.49l.34-1.79.31-.13-.28,1.19a3.61,3.61,0,0,1,.53-.86.73.73,0,0,1,.51-.29.25.25,0,0,1,.19.08.29.29,0,0,1,.07.21.88.88,0,0,1,0,.21l0,.14-.1.39,0,.13a1.33,1.33,0,0,0,0,.3.34.34,0,0,0,0,.17.11.11,0,0,0,.09.06q.1,0,.32-.24l.05,0,0,0a3.08,3.08,0,0,1-.27.29.26.26,0,0,1-.16.08.2.2,0,0,1-.17-.1.44.44,0,0,1-.07-.25,1.79,1.79,0,0,1,0-.31l.13-.69a1.64,1.64,0,0,0,0-.23.14.14,0,0,0,0-.1.13.13,0,0,0-.1,0c-.15,0-.33.16-.55.48a3.1,3.1,0,0,0-.26.46,6,6,0,0,0-.23.62l0,.09Z"
          style="fill:#333"/>
    <path d="M130.75,231.9l-.86,3.73a2.24,2.24,0,0,0-.07.41.34.34,0,0,0,0,.17.11.11,0,0,0,.1.07.32.32,0,0,0,.2-.13l.09-.09h0l0,0,0,0-.13.14-.11.11-.12.1-.08,0a.21.21,0,0,1-.18-.11.46.46,0,0,1-.07-.25,1.86,1.86,0,0,1,0-.31l0-.18a2.08,2.08,0,0,1-.27.44.88.88,0,0,1-.63.42.35.35,0,0,1-.29-.13.57.57,0,0,1-.11-.36,1.42,1.42,0,0,1,.17-.65,1.68,1.68,0,0,1,.43-.54.82.82,0,0,1,.52-.21.62.62,0,0,1,.36.11l.53-2.65Zm-.91,3a.26.26,0,0,0-.12-.14.38.38,0,0,0-.19-.05.49.49,0,0,0-.31.14,1.44,1.44,0,0,0-.3.39,2,2,0,0,0-.17.4,1.38,1.38,0,0,0-.07.4.42.42,0,0,0,.07.25.21.21,0,0,0,.18.09.46.46,0,0,0,.29-.14,1.76,1.76,0,0,0,.32-.4,1.79,1.79,0,0,0,.17-.37c0-.16.08-.29.11-.39Z"
          style="fill:#333"/>
    <path d="M132.31,236.49l.86-4.43.34-.16-.9,3.94v0l.07-.17a2.75,2.75,0,0,1,.48-.75.74.74,0,0,1,.5-.29.26.26,0,0,1,.2.08.29.29,0,0,1,.07.21.9.9,0,0,1,0,.21l0,.14-.1.39,0,.13a1.35,1.35,0,0,0,0,.3.34.34,0,0,0,0,.17.11.11,0,0,0,.09.06q.1,0,.32-.24l0,0,0,0a3,3,0,0,1-.27.29.26.26,0,0,1-.16.08.21.21,0,0,1-.17-.11.44.44,0,0,1-.07-.25,1.9,1.9,0,0,1,0-.31l.12-.69a1.31,1.31,0,0,0,0-.23.14.14,0,0,0,0-.1.13.13,0,0,0-.1,0,.44.44,0,0,0-.27.14,1.87,1.87,0,0,0-.31.39,3.5,3.5,0,0,0-.27.53,3,3,0,0,0-.17.58Z"
          style="fill:#333"/>
    <path d="M136.55,234.55l-.3,1.18a1.36,1.36,0,0,0,0,.3.32.32,0,0,0,0,.17.12.12,0,0,0,.1.07c.06,0,.17-.08.31-.23l0,0,0,0a3,3,0,0,1-.26.28.27.27,0,0,1-.16.08.22.22,0,0,1-.18-.11.43.43,0,0,1-.08-.25,3.1,3.1,0,0,1,.08-.47l0-.12a2.38,2.38,0,0,1-.32.53.9.9,0,0,1-.64.43.35.35,0,0,1-.29-.13.55.55,0,0,1-.11-.36,1.39,1.39,0,0,1,.17-.64,1.78,1.78,0,0,1,.43-.55.79.79,0,0,1,.5-.21.43.43,0,0,1,.38.19l0-.12Zm-.37.41a.38.38,0,0,0-.13-.19.34.34,0,0,0-.21-.07.48.48,0,0,0-.3.13,1.28,1.28,0,0,0-.29.36,2.12,2.12,0,0,0-.17.41,1.29,1.29,0,0,0-.07.37.46.46,0,0,0,.06.26.2.2,0,0,0,.18.09.48.48,0,0,0,.31-.14,1.66,1.66,0,0,0,.32-.4,1.48,1.48,0,0,0,.15-.3c0-.1.08-.24.12-.41Z"
          style="fill:#333"/>
    <path d="M137,237.74l.61-3,.31-.13-.21.93a2.72,2.72,0,0,1,.45-.69.65.65,0,0,1,.46-.21.37.37,0,0,1,.31.14.62.62,0,0,1,.11.39,1.44,1.44,0,0,1-.1.52,1.65,1.65,0,0,1-.29.48,1,1,0,0,1-.73.4.63.63,0,0,1-.41-.13l-.33,1.35Zm.56-1.57a.42.42,0,0,0,.38.27q.36,0,.62-.58a1.94,1.94,0,0,0,.22-.78.47.47,0,0,0-.06-.27.21.21,0,0,0-.18-.09.58.58,0,0,0-.41.26,2.64,2.64,0,0,0-.35.56c0,.08-.07.17-.1.26l-.09.29Z"
          style="fill:#333"/>
    <path d="M139.41,237.74l.61-3,.31-.13-.21.93a2.72,2.72,0,0,1,.45-.69.65.65,0,0,1,.46-.21.37.37,0,0,1,.31.14.62.62,0,0,1,.11.39,1.44,1.44,0,0,1-.1.52,1.65,1.65,0,0,1-.29.48,1,1,0,0,1-.73.4.63.63,0,0,1-.41-.13l-.33,1.35Zm.56-1.57a.42.42,0,0,0,.38.27q.36,0,.62-.58a1.94,1.94,0,0,0,.22-.78.47.47,0,0,0-.06-.27.21.21,0,0,0-.18-.09.58.58,0,0,0-.41.26,2.64,2.64,0,0,0-.35.56c0,.08-.07.17-.1.26l-.09.29Z"
          style="fill:#333"/>
    <path d="M141.77,237.61l.16-.21a.57.57,0,0,0,.42.2.48.48,0,0,0,.4-.2,1.67,1.67,0,0,0,.25-.65l.15-.67a1,1,0,0,1-.64.42.34.34,0,0,1-.26-.1.39.39,0,0,1-.1-.28,1.29,1.29,0,0,1,0-.26l.22-1.16.31-.13-.31,1.3a1.11,1.11,0,0,0,0,.24.25.25,0,0,0,.07.18.23.23,0,0,0,.18.07.46.46,0,0,0,.26-.11,1.93,1.93,0,0,0,.32-.31l.28-1.24.3-.13-.47,1.9a4.42,4.42,0,0,1-.16.54,1.28,1.28,0,0,1-.18.32,1,1,0,0,1-.77.41A.63.63,0,0,1,141.77,237.61Z"
          style="fill:#333"/>
    <path d="M146.86,235.4l0,.15H146l0-.15Z" style="fill:#333"/>
    <path d="M150.51,236l.06,0a1.52,1.52,0,0,1-.39.38.77.77,0,0,1-.41.12.54.54,0,0,1-.42-.17.66.66,0,0,1-.16-.46,1.28,1.28,0,0,1,.15-.59,1.59,1.59,0,0,1,.39-.5.72.72,0,0,1,.46-.2.32.32,0,0,1,.22.08.26.26,0,0,1,.09.2.7.7,0,0,1-.27.5,2.24,2.24,0,0,1-.74.42.53.53,0,0,0,0,.06.53.53,0,0,0,.12.36.4.4,0,0,0,.32.14.53.53,0,0,0,.29-.09A1.43,1.43,0,0,0,150.51,236Zm-1-.25a1.75,1.75,0,0,0,.54-.35,1.19,1.19,0,0,0,.2-.28.59.59,0,0,0,.08-.27q0-.15-.14-.15t-.43.33A1.59,1.59,0,0,0,149.47,235.71Z"
          style="fill:#333"/>
    <path d="M151.74,234.73l-.25,1.08a1.38,1.38,0,0,0,0,.25.3.3,0,0,0,.06.19.17.17,0,0,0,.15.07.27.27,0,0,0,.16-.05,1.57,1.57,0,0,0,.22-.21l0,0,0,0a2,2,0,0,1-.32.33.42.42,0,0,1-.25.1.32.32,0,0,1-.25-.1.38.38,0,0,1-.09-.27,1.88,1.88,0,0,1,0-.36l.21-1h-.31l0-.11h.31l.18-.87.31-.12-.23,1h.52l0,.11Z"
          style="fill:#333"/>
    <path d="M154,236l.06,0a1.52,1.52,0,0,1-.39.38.77.77,0,0,1-.41.12.54.54,0,0,1-.42-.17.66.66,0,0,1-.16-.46,1.28,1.28,0,0,1,.15-.59,1.59,1.59,0,0,1,.39-.5.72.72,0,0,1,.46-.2.32.32,0,0,1,.22.08.26.26,0,0,1,.09.2.7.7,0,0,1-.27.5,2.24,2.24,0,0,1-.74.42.53.53,0,0,0,0,.06.53.53,0,0,0,.12.36.4.4,0,0,0,.32.14.53.53,0,0,0,.29-.09A1.43,1.43,0,0,0,154,236Zm-1-.25a1.75,1.75,0,0,0,.54-.35,1.19,1.19,0,0,0,.2-.28.59.59,0,0,0,.08-.27q0-.15-.14-.15t-.43.33A1.59,1.59,0,0,0,152.93,235.71Z"
          style="fill:#333"/>
    <path d="M154.58,235.54a2,2,0,0,0,.37-.63.46.46,0,0,1-.26-.42.34.34,0,0,1,.06-.21.19.19,0,0,1,.16-.08.19.19,0,0,1,.16.09.4.4,0,0,1,.06.23.82.82,0,0,1,0,.22l.16,0a.47.47,0,0,0,.33-.12h.16l0,0a6.12,6.12,0,0,0-.38.84,2,2,0,0,0-.15.62.19.19,0,0,0,0,.12.11.11,0,0,0,.09.05c.09,0,.23-.09.43-.28l.05.06a2.22,2.22,0,0,1-.28.25.53.53,0,0,1-.32.14.25.25,0,0,1-.2-.08.34.34,0,0,1-.07-.23,1.45,1.45,0,0,1,.19-.62q.07-.14.17-.32l.27-.42,0,0a.73.73,0,0,1-.21.14.6.6,0,0,1-.23,0l-.12,0a2,2,0,0,1-.39.65Zm.44-.82a.86.86,0,0,0,0-.14.36.36,0,0,0,0-.18.11.11,0,0,0-.1-.07.07.07,0,0,0-.06,0,.12.12,0,0,0,0,.08A.33.33,0,0,0,155,234.72Z"
          style="fill:#333"/>
    <path d="M156.38,236.49l.34-1.79.31-.13-.28,1.19a3.61,3.61,0,0,1,.53-.86.73.73,0,0,1,.51-.29.25.25,0,0,1,.19.08.29.29,0,0,1,.07.21.88.88,0,0,1,0,.21l0,.14-.1.39,0,.13a1.33,1.33,0,0,0,0,.3.34.34,0,0,0,0,.17.11.11,0,0,0,.09.06q.1,0,.32-.24l.05,0,0,0a3.08,3.08,0,0,1-.27.29.26.26,0,0,1-.16.08.2.2,0,0,1-.17-.1.44.44,0,0,1-.07-.25,1.79,1.79,0,0,1,0-.31l.13-.69a1.64,1.64,0,0,0,0-.23.14.14,0,0,0,0-.1.13.13,0,0,0-.1,0c-.15,0-.33.16-.55.48a3.1,3.1,0,0,0-.26.46,6,6,0,0,0-.23.62l0,.09Z"
          style="fill:#333"/>
    <path d="M159.47,234.57l-.28,1.07a1.68,1.68,0,0,0-.07.42.34.34,0,0,0,0,.17.1.1,0,0,0,.09.07q.1,0,.32-.24l.05,0,0,0a3.15,3.15,0,0,1-.27.29.26.26,0,0,1-.16.08.2.2,0,0,1-.17-.1.43.43,0,0,1-.07-.25,1.9,1.9,0,0,1,0-.31l.2-1.13Zm.09-1.27a.19.19,0,0,1,.14.05.19.19,0,0,1,.05.14.18.18,0,0,1-.06.14.18.18,0,0,1-.13.06.19.19,0,1,1,0-.38Z"
          style="fill:#333"/>
    <path d="M160.73,234.73l-.25,1.08a1.38,1.38,0,0,0,0,.25.3.3,0,0,0,.06.19.17.17,0,0,0,.15.07.27.27,0,0,0,.16-.05,1.57,1.57,0,0,0,.22-.21l0,0,0,0a2,2,0,0,1-.32.33.42.42,0,0,1-.25.1.32.32,0,0,1-.25-.1.38.38,0,0,1-.09-.27,1.88,1.88,0,0,1,0-.36l.21-1h-.31l0-.11h.31l.18-.87.31-.12-.23,1h.52l0,.11Z"
          style="fill:#333"/>
    <path d="M161.34,237.61l.16-.21a.57.57,0,0,0,.42.2.48.48,0,0,0,.4-.2,1.67,1.67,0,0,0,.25-.65l.15-.67a1,1,0,0,1-.64.42.34.34,0,0,1-.26-.1.39.39,0,0,1-.1-.28,1.29,1.29,0,0,1,0-.26l.22-1.16.31-.13-.31,1.3a1.11,1.11,0,0,0,0,.24.25.25,0,0,0,.07.18.23.23,0,0,0,.18.07.46.46,0,0,0,.26-.11,1.93,1.93,0,0,0,.32-.31l.28-1.24.3-.13-.47,1.9a4.42,4.42,0,0,1-.16.54,1.28,1.28,0,0,1-.18.32,1,1,0,0,1-.77.41A.63.63,0,0,1,161.34,237.61Z"
          style="fill:#333"/>
    <path d="M164.45,236a.25.25,0,0,1,.26.26.26.26,0,0,1-.26.26.26.26,0,0,1-.19-.08.25.25,0,0,1-.08-.19.25.25,0,0,1,.08-.19A.26.26,0,0,1,164.45,236Zm1-3.61-.82,3.3-.09,0,.48-3.15Z"
          style="fill:#333"/>
    <g style="clip-path:url(#clip-path-16)" class="select-btn">
        <rect x="42.83" y="265.93" width="189.08" height="252" class="select-area"/>
        <image x="42.83" y="265.93" width="189.08" height="252" xlink:href='http://pic09.babytreeimg.com/contentplatform/20190213/FkPVLj4o6OkfVp9NmTp3oPCmI9ta_b.img' class="select-icon"/>
    </g>
    <g style="clip-path:url(#clip-path-16-2)" class="select-btn">
        <rect x="253.91" y="49" width="258" height="392" class="select-area"/>
        <image x="253.91" y="49" width="258" height="392" xlink:href='http://pic09.babytreeimg.com/contentplatform/20190213/FkPVLj4o6OkfVp9NmTp3oPCmI9ta_b.img' class="select-icon"/>
    </g>
</svg>