<svg xmlns="http://www.w3.org/2000/svg" xmlns:xlink="http://www.w3.org/1999/xlink" viewBox="0 0 566.93 566.93">
    <defs>
        <clipPath id="clip-path3">
            <circle cx="283.46" cy="262.5" r="232.5" style="fill:none"/>
        </clipPath>
    </defs>
    <rect x="-8.5" y="-8.5" width="583.94" height="583.94" style="fill:#fff"/>
    <g style="clip-path:url(#clip-path3)">
        <circle selectBtn="true" cx="283.46" cy="262.5" r="232.5" style="fill:#aaa">
            <text fill='red' x='150' y='150' style='dominant-baseline:middle;text-anchor:middle;'>
                添加图片
            </text>
        </circle>
    </g>
    <path d="M44.72,89.51h.2a1.06,1.06,0,0,1,.42,0l0,.94,2.37,0,0,1.86a1.19,1.19,0,0,1,0,.44,1.11,1.11,0,0,1,0,.42H45.52c-.08,0-.11,0-.1.14a1.6,1.6,0,0,1,0,.52l.48,0a3.08,3.08,0,0,1,.5,0,1.45,1.45,0,0,1,.54,0,.63.63,0,0,1,.32,0l.44,0,.8-.08.52,0,.46,0,.54,0,0,0s0,0,0,0a.07.07,0,0,0,0,.07,2.15,2.15,0,0,0,0,.42l0,.5,0,.46s0,.1,0,.17,0,.13,0,.17a2.13,2.13,0,0,0,0,.42.59.59,0,0,0,0,.33c0,.09,0,.13-.06.13H50a5.52,5.52,0,0,1-.58.06H49a.38.38,0,0,1-.24,0l-.58,0-.46,0-.58,0-.46,0-.58,0a2.34,2.34,0,0,0-.42,0l-.64,0-.4.06a.88.88,0,0,0-.42,0c-.08,0-.11,0-.08.06a.25.25,0,0,0,0,.11,2.32,2.32,0,0,1,.11.24l.11.25a.62.62,0,0,0,.08.22,1,1,0,0,0,.08.2l.12.34.24.58q.1.26.24.56c0,.08.13.11.28.1a.8.8,0,0,1,.36,0l.58,0,.52,0a1.18,1.18,0,0,0,.44,0c.05,0,.06,0,0,0a.2.2,0,0,0-.1,0l-.56-.12-.44-.12c-.07,0-.08-.08,0-.16q.16-.42.28-.84l.12-.42a.77.77,0,0,0,.08-.22v0a2.29,2.29,0,0,0,.1-.25c0-.11.07-.2.08-.25a2.64,2.64,0,0,1,.46.12l.22.06.14,0,.2.06.3.08.28.07.26.07a1.11,1.11,0,0,1,.3.08c.07,0,.1,0,.11,0a.18.18,0,0,1-.05.13l0,.17-.05.18-.06.23c0,.08,0,.15,0,.2a3.31,3.31,0,0,0-.16.48c0,.05,0,.14-.08.26l-.06.14h.86a2.21,2.21,0,0,1,.6,0,3.16,3.16,0,0,1,.52,0l.15,0c.06,0,.09,0,.09.09a.13.13,0,0,1,0,.14,2.29,2.29,0,0,1,0,.6,1.66,1.66,0,0,1,0,.52c0,.13,0,.3,0,.5a1.19,1.19,0,0,1,0,.44.88.88,0,0,1,0,.42l-.38,0a1.91,1.91,0,0,1-.56,0,1.8,1.8,0,0,1-.6,0,2.09,2.09,0,0,1-.58,0,2.11,2.11,0,0,1-.58,0,1.09,1.09,0,0,1-.3,0,.32.32,0,0,0-.26,0l0,.56,1.16,0h.34l0,2.37a.57.57,0,0,1,0,.3l-1.5,0,0,2.45a.6.6,0,0,0,0,.33c0,.09,0,.13-.13.13l-2.14,0a1.06,1.06,0,0,1-.42,0l0-2.87-2.18,0c-.09,0-.15,0-.18,0s0-.07,0-.14v-.24l0-2.17q-.06-.12.06-.12h.16l2.1,0,0-.44a1.83,1.83,0,0,0-.6,0l-.62,0-.54,0a.63.63,0,0,0-.32,0l-1.14,0a1.84,1.84,0,0,1-.56,0,3.06,3.06,0,0,1-.7,0l-.52,0a2.44,2.44,0,0,1-.64,0l-.58,0a2,2,0,0,1-.48.06c-.09,0-.14,0-.14-.08v-.2a1.76,1.76,0,0,1,0-.6,4.56,4.56,0,0,1,0-.64,1.75,1.75,0,0,1,0-.6,3.24,3.24,0,0,1,0-.54.3.3,0,0,1,.24,0l.26,0,.58,0h.52a2.8,2.8,0,0,1,.62-.06l.5,0a1.94,1.94,0,0,1,.62,0,.5.5,0,0,1,.32,0,.67.67,0,0,0,.3-.06,1.24,1.24,0,0,0,.66-.06,3.19,3.19,0,0,0-.16-.4l-.1-.28a2.52,2.52,0,0,1-.18-.4,3.41,3.41,0,0,1-.2-.56,1.66,1.66,0,0,1-.18-.42c0-.08,0-.13,0-.14l.19-.07L42.5,97l.19-.08.19-.1c.07,0,.08,0,0,0a.09.09,0,0,0-.12,0,1.65,1.65,0,0,1-.52,0,1.91,1.91,0,0,1-.56,0,1.06,1.06,0,0,1-.46,0,2.09,2.09,0,0,1-.58,0,1.26,1.26,0,0,1-.5,0,1.6,1.6,0,0,1-.52,0,1.66,1.66,0,0,1-.52,0,.89.89,0,0,1-.42,0,1.57,1.57,0,0,0-.34,0,1.09,1.09,0,0,1,0-.6,5.29,5.29,0,0,1,0-.66l0-.5a2.4,2.4,0,0,1-.06-.54.8.8,0,0,1,0-.4,1.68,1.68,0,0,1,.36,0l.72,0,.48,0a3.21,3.21,0,0,1,.52,0,.52.52,0,0,1,.32,0l.3,0q-.12,0,0,0l.8,0a3.58,3.58,0,0,1,.58,0,.65.65,0,0,1,.36,0v-.86l-1.66,0V90.55l1.58,0,0-.4,0-.54.72,0,1,0A.59.59,0,0,0,44.72,89.51Z"
          style="fill:#6e8ea0"/>
    <path d="M55.66,95.22a.31.31,0,0,0,.22.06.25.25,0,0,1,.22,0,4.37,4.37,0,0,1,.58,0l.41,0a1.77,1.77,0,0,1,.43.07l.58,0a1,1,0,0,0,.42,0,.44.44,0,0,0,.2,0,.17.17,0,0,1,.18,0,4.16,4.16,0,0,1,.58,0h.18l.26,0a.44.44,0,0,0,.2,0c.09,0,.16,0,.2,0a3.68,3.68,0,0,1,.56,0,2.34,2.34,0,0,0,.42,0,.45.45,0,0,0,.2,0q.14,0,.2,0c.12,0,.18,0,.19.11a.36.36,0,0,0,.11.23l.05.17,0,.17q-.38.52-.78,1l-.18.24-.41.52-.41.5a1.21,1.21,0,0,0-.14.18l-.09.11-.13.16-.16.17a1.51,1.51,0,0,0-.24.34h.34a1.06,1.06,0,0,1,.42,0v1.8a1,1,0,0,0,0,.32.19.19,0,0,1,.08-.1q.3-.34.6-.64a.73.73,0,0,0,.22-.26.45.45,0,0,1,.24-.18L63,102.16q-.72-.66.12.1a.46.46,0,0,1,.16.16s0,0,0,0,0,0,0,.06l-.38.43-.4.43-.44.42q0,.1,0,.07l0-.05-.07,0q-.3-.3-.6-.56-.46-.44-.94-.86l0,2.71-2,0,0-3.91c0-.07,0-.1,0-.09s0,0-.05.11q-.72.72-1.44,1.48c-.05.05-.11,0-.18,0q-.7-.6-.1-.08-.6-.52-1.2-1.08l0,0-.08,0s-.06-.06,0-.13a7.74,7.74,0,0,0,.56-.58l.22-.26.1-.12.6-.6a3.31,3.31,0,0,1,.26-.34,3.35,3.35,0,0,1,.34-.38l.18-.2L58,98l.18-.24.05-.05,0-.05s0-.07,0-.1a1,1,0,0,0-.44,0l-.34-.08h-.6a2.13,2.13,0,0,0-.42,0,.21.21,0,0,0-.2,0,.42.42,0,0,1-.22,0l-.54,0q.26,0,0,0a.16.16,0,0,1-.1,0s0,0,0-.06a.8.8,0,0,1,0-.4v0a1,1,0,0,0,0-.3,1.09,1.09,0,0,0,0-.3,1.32,1.32,0,0,0,0-.19,1.55,1.55,0,0,0,0-.18v-.13a1.78,1.78,0,0,0,0-.2A2.06,2.06,0,0,0,55.66,95.22Zm2.83-3.11h0a2.6,2.6,0,0,0,.44.42,1.78,1.78,0,0,0,.34.3q.36.36.72.68l.36.36q-.36.36-.72.76a.43.43,0,0,0-.08.1q-.24.24-.48.52a.07.07,0,0,1-.12,0c0-.08-.08-.12-.12-.12a5.16,5.16,0,0,0-.56-.52l-1.12-1.06a5.21,5.21,0,0,1,.52-.56Q58.11,92.58,58.49,92.12Zm5.25,6.83,0,0,6.61,0,1,0,.86,0,1.22,0,.54,0v.46a1.35,1.35,0,0,0,0,.52,2,2,0,0,0,0,.42,1.14,1.14,0,0,0,0,.48,3,3,0,0,0,0,.5,2.64,2.64,0,0,0,0,.48,1.73,1.73,0,0,0,0,.6,1.21,1.21,0,0,0,0,.46,3,3,0,0,0,0,.5l0,.48a2.18,2.18,0,0,0,0,.46,1,1,0,0,0,0,.46,3.27,3.27,0,0,0-.06.64v.36a2.15,2.15,0,0,0-.06.52v.48a2.24,2.24,0,0,0,0,.44,3,3,0,0,0,0,.5.4.4,0,0,0,0,.29q0,.19-.08.25a1.69,1.69,0,0,0-.37,0l-.35,0a1.14,1.14,0,0,1-.44,0,2.73,2.73,0,0,1-.48,0,1.46,1.46,0,0,1-.38,0,1.06,1.06,0,0,1-.42,0l-.3,0h-.2a.79.79,0,0,1-.36,0l-.44,0-.74,0a4,4,0,0,0-.53,0,2.67,2.67,0,0,1-.47-.05h-.5a3.08,3.08,0,0,1-.5,0,4.4,4.4,0,0,1-.54,0,3.87,3.87,0,0,0-.48,0,2.2,2.2,0,0,0-.39,0l-.29,0a1.06,1.06,0,0,1-.42,0h-.5c-.15,0-.24,0-.28-.12a.67.67,0,0,1-.06-.3l0-.56a1.11,1.11,0,0,1,0-.6,39.72,39.72,0,0,0-.08-1.5l0-.8a3.16,3.16,0,0,1-.06-.62v-.78a3.59,3.59,0,0,1-.06-.66l0-.86,0-.6,0-.54,0-.7c0-.05,0-.09,0-.1s0,0,.08,0S63.72,99,63.74,98.95Zm1.6-9.64h.48a.37.37,0,0,0,.2,0,.17.17,0,0,1,.18,0,3.33,3.33,0,0,1,.62.06.37.37,0,0,0,.2,0,.21.21,0,0,1,.2,0,3,3,0,0,1,.5,0h.4a.28.28,0,0,0,.2,0,.29.29,0,0,1,.18,0l.56,0a.9.9,0,0,0,.38,0,.42.42,0,0,0,.22,0,.17.17,0,0,1,.18,0,3.08,3.08,0,0,1,.5,0h.4a.36.36,0,0,0,.24,0q.18,0,.2.08a1.12,1.12,0,0,0,0,.34,2.69,2.69,0,0,0,0,.34,1.34,1.34,0,0,0-.06.42.17.17,0,0,0,0,.18.33.33,0,0,1,0,.18A3.6,3.6,0,0,1,71,92q-.06.12-.23.07a1.25,1.25,0,0,0-.35,0,.21.21,0,0,0-.2,0,.37.37,0,0,1-.2,0,4.76,4.76,0,0,0-.62,0,.17.17,0,0,0-.18,0,.33.33,0,0,1-.18,0,3,3,0,0,1-.5,0l-.42,0a.14.14,0,0,0-.16,0,.33.33,0,0,1-.18,0h0a3.3,3.3,0,0,0-.54,0,.17.17,0,0,0-.18,0,.37.37,0,0,1-.2,0,4.53,4.53,0,0,0-.6,0,.16.16,0,0,0-.18,0,.32.32,0,0,1-.18,0h-.48a.3.3,0,0,1-.24-.12.28.28,0,0,0,0-.16.17.17,0,0,1,0-.18,2.57,2.57,0,0,1,0-.46,1,1,0,0,0,0-.4.24.24,0,0,0,.06-.18.17.17,0,0,1,0-.18c0-.05,0-.13,0-.24S65.35,89.36,65.35,89.31Zm5.53,3.51h0l0,1.26,0,1.36,0,1.34,0,1.14a1.09,1.09,0,0,1-.3,0l-.52,0a2.38,2.38,0,0,0-.42,0l-.56,0a1.88,1.88,0,0,0-.4,0l-.58,0a1.51,1.51,0,0,0-.36,0l-.64,0h-.36a2.06,2.06,0,0,0-.44,0,.67.67,0,0,0-.23,0c-.09,0-.12,0-.11-.1a.17.17,0,0,1,0-.18.33.33,0,0,0,0-.18.34.34,0,0,0,0-.1,1.84,1.84,0,0,1,0-.3.51.51,0,0,1,0-.32.62.62,0,0,1,0-.32.59.59,0,0,1,0-.34.75.75,0,0,1,0-.36,1,1,0,0,1,0-.3.59.59,0,0,1,0-.34.25.25,0,0,1,0-.2.58.58,0,0,0,0-.2l0-.62a.17.17,0,0,1,0-.18.38.38,0,0,0,0-.2,2,2,0,0,0,0-.42,2.76,2.76,0,0,0,0-.28v-.18l1,0a3,3,0,0,1,.48,0l.48,0a1.88,1.88,0,0,1,.4,0,1.35,1.35,0,0,1,.52,0,3.43,3.43,0,0,1,.56,0,2.68,2.68,0,0,1,.48,0l.58,0,.44,0Zm-3.63,8.08-1.3,0h-.2c-.08,0-.11,0-.1.1l0,1.1,0,1.26,0,.72v.8a6.25,6.25,0,0,1,0,1l.58,0,.42,0a1,1,0,0,0,.4,0,.59.59,0,0,1,.34,0q.16,0,.17-.1t0-.26a2.89,2.89,0,0,0,0-.76q0-.22-.24-.1l-1.12,0-.19,0c-.07,0-.09,0-.05-.12a1.39,1.39,0,0,1,0-.52v-.4l0-.88c0-.13,0-.2.16-.2l.68,0,.58,0a.62.62,0,0,1,.28-.06v-1.7Zm1.86-6.15a.62.62,0,0,0-.28.06.88.88,0,0,0-.42,0l-.74.06a.88.88,0,0,0,0,.42.5.5,0,0,0,0,.32,3.3,3.3,0,0,0,0,.54q0,.14.08.14H68a1,1,0,0,1,.4,0,1.08,1.08,0,0,1,.34-.06,2.25,2.25,0,0,1,.4,0c.08,0,.12,0,.12-.08v-.22a4,4,0,0,1,0-.58.54.54,0,0,1,0-.32C69.22,94.84,69.18,94.77,69.11,94.74ZM70,101l0,1.62h1.18a.52.52,0,0,1,.32,0v1.56a1.84,1.84,0,0,0,0,.56.29.29,0,0,1-.28,0l-.94,0a.73.73,0,0,0-.24,0l0,1s0,.11,0,.22a.45.45,0,0,1,0,.2l.38,0,.42,0a3.56,3.56,0,0,0,.76,0q.18,0,.12-.2c0-.2,0-.39.06-.56v-.92c0-.24,0-.49.06-.76l0-.4,0-1a.93.93,0,0,0,0-.4q0-.08,0-.27c0-.13,0-.22,0-.29a1,1,0,0,0,0-.4l-1.08,0Z"
          style="fill:#6e8ea0"/>
    <path d="M79.48,92.1h.06a4.43,4.43,0,0,1,.54.32l.29.16.29.14.2.1.38.22q.18.06,0,.24l-.6,1.22-.05.11a.32.32,0,0,1-.05.09l-.11.22-.11.2-.16.3-.12.24c-.08.08-.09.13,0,.16l.7,0a4.83,4.83,0,0,1,.64,0h.4l1.1,0a2,2,0,0,1,.42,0v.6l0,.94,0,1,0,1,0,.94,0,.92,0,.82a2.86,2.86,0,0,0,0,.76.78.78,0,0,1,0,.28l-.54,0-.58,0a7.92,7.92,0,0,1-1.14,0l-1.24,0-1.14,0-1.78,0h-.2c-.08,0-.12,0-.12-.05l0-.66a2.07,2.07,0,0,1-.06-.5l0-.44a1.76,1.76,0,0,1,0-.6,3.3,3.3,0,0,1,0-.54,1.69,1.69,0,0,1,0-.58,3.7,3.7,0,0,1-.06-.64v-.54a3.61,3.61,0,0,1-.06-.7l0-.56a.94.94,0,0,1,0-.44v-.06a1.74,1.74,0,0,1,0-.38v-.22c0-.08,0-.12.08-.12a2.28,2.28,0,0,1,.44,0,4.45,4.45,0,0,1,.58,0l.58,0a5.57,5.57,0,0,1,.68,0,1,1,0,0,0-.42-.22.12.12,0,0,0-.1-.06.12.12,0,0,1-.06-.1,2.42,2.42,0,0,1,.2-.36,1.45,1.45,0,0,1,.26-.46l.52-1a2.93,2.93,0,0,1,.16-.34,1,1,0,0,1,.06-.14l.16-.34Zm1.76,5.53-.5,0-.52,0-1.1,0-.64,0a2.29,2.29,0,0,0-.6,0q-.18,0-.12.18a3.91,3.91,0,0,1,0,.42c0,.07,0,.11.08.12l1.8,0,1.52,0v1.3a3.9,3.9,0,0,1,0,.42s0,.07,0,.12l-.38,0-.6,0-.76,0-.84,0a1.07,1.07,0,0,1-.46,0q-.14,0-.14.08v.2a.42.42,0,0,1,0,.22.25.25,0,0,0,0,.22h1l.7,0,.52,0a7.29,7.29,0,0,0,1.08,0q.14,0,.13-.12a.77.77,0,0,1,0-.22l0-1.16,0-1.2,0-.62c0-.08,0-.12-.08-.13A.63.63,0,0,0,81.24,97.63Zm4.39-5.31a.08.08,0,0,0,.08.06,2.51,2.51,0,0,0,.56.18,1.4,1.4,0,0,1,.3.12l.14,0,.22.08q.26.06.78.24a.93.93,0,0,1,.26.12l-.07.17a1.32,1.32,0,0,0-.07.18,2,2,0,0,1-.08.21,2,2,0,0,1-.08.28,2.28,2.28,0,0,1-.16.42.06.06,0,0,1,0,0,.7.7,0,0,0-.06.18l.66.18a.53.53,0,0,1,.24.06q.7.14,1.38.32l.25.07.25.07a.89.89,0,0,1,.3.08,4.48,4.48,0,0,0,.64.16l.18,0a2.56,2.56,0,0,1,.52.12l.44.14.2,0a5.07,5.07,0,0,1,.6.16c.07,0,.1,0,.11.06s0,.07,0,.12l-.06.24a2.67,2.67,0,0,0-.08.32l-.06.26a7.19,7.19,0,0,0-.2.72l-.13.49-.13.49-.24.84a1.62,1.62,0,0,1-.06.24c0,.05,0,.12,0,.2l-.06.24-.12.42-.12.46a.69.69,0,0,1,0,.12,4,4,0,0,1-.1.42c0,.07,0,.16-.07.28l-.07.26-.05.23,0,.23a1.34,1.34,0,0,0-.1.3l-.06.23-.06.23c0,.16-.07.32-.1.48a.88.88,0,0,0-.12.28c0,.07,0,.16-.07.29s-.06.22-.07.29l-.06.18-.12.48a.64.64,0,0,1,0,.14l-.36-.1-.58-.22a1.09,1.09,0,0,1-.26-.1l-.1,0c-.23-.07-.44-.14-.64-.22a4.7,4.7,0,0,1-.62-.2l-.32-.12c-.12,0-.19,0-.2-.14l.05-.17.05-.17a3.55,3.55,0,0,1,.1-.44.42.42,0,0,1,.06-.22l.12-.58a.63.63,0,0,1,0-.12.16.16,0,0,1,0-.11s0,0,.07,0l.6.2.46.14a8.27,8.27,0,0,0,.2-.82q.06-.28.12-.52s0-.11.05-.2l0-.22.12-.42a.33.33,0,0,0,0-.1.59.59,0,0,0,.08-.3q.06-.28.12-.52t.12-.52l.05-.17.05-.17.06-.2.06-.24a1.08,1.08,0,0,1,0-.2,1.19,1.19,0,0,0,.05-.18.43.43,0,0,1,0-.22l.06-.28a.9.9,0,0,0-.28-.12,5.91,5.91,0,0,1-.7-.16l-.28-.06-1-.24L87.64,97l-.53-.13-.24-.06-.28-.06-.13.29-.13.29a.88.88,0,0,1-.16.34l-.05.16a1,1,0,0,1,0,.14.18.18,0,0,0-.06.16.08.08,0,0,1-.08.06,1.71,1.71,0,0,1-.42-.16,4.34,4.34,0,0,0-.46-.2,5.13,5.13,0,0,1-.58-.24l-.08,0-.2-.08-.22-.1-.3-.12c-.05,0-.09,0-.1,0s0-.05,0-.1l.13-.25,0-.08A1.48,1.48,0,0,1,84,96.3l.12-.3q.14-.36.32-.72a4.9,4.9,0,0,1,.24-.62,2.12,2.12,0,0,1,.16-.44q.16-.32.3-.68a1.52,1.52,0,0,1,.1-.26,1.76,1.76,0,0,1,.14-.32l0-.1Q85.47,92.66,85.63,92.32Zm.8,6.43h0l.42.24.47.29.48.3.35.23a4.23,4.23,0,0,1,.5.3c.09,0,.14.06.14.14a2.65,2.65,0,0,0-.26.42l-.08.12-.07.11-.2.31q-.15.24-.31.54a.53.53,0,0,1-.14.1l-.31-.19-.31-.18-.28-.17-.16-.1-.66-.42-.36-.22a.69.69,0,0,0-.18-.12s-.06,0-.06-.05a.11.11,0,0,1,0-.07,3.24,3.24,0,0,1,.28-.46,7.91,7.91,0,0,1,.48-.8Z"
          style="fill:#6e8ea0"/>
    <path d="M102,95.72s.05,0,0,.1a1.33,1.33,0,0,1,0,.46l0,.72c0,.24,0,.49.06.76l0,1,0,.88v.68a4.36,4.36,0,0,1,0,.84,2.4,2.4,0,0,1,0,.62l0,.64a1.31,1.31,0,0,1,0,.6.94.94,0,0,0-.23.07l-.17.07-.3,0a.5.5,0,0,0-.22.06l-.32,0a.45.45,0,0,0-.2.08l-.36,0,0,0s0,0-.07,0-.09,0-.12,0l-.38,0a.21.21,0,0,1-.12,0c-.08,0-.13,0-.14,0l-.44,0a.24.24,0,0,1-.14,0,.11.11,0,0,0-.14,0l-.42,0a.86.86,0,0,0-.28.08l-.42,0a.9.9,0,0,1-.38,0,.24.24,0,0,1-.16-.16l0-.28a1.56,1.56,0,0,0-.06-.24l0-.24a.47.47,0,0,1-.06-.2l0-.3a.47.47,0,0,1-.06-.2l0-.28a.72.72,0,0,0-.06-.2l0-.34a1,1,0,0,0-.06-.22,1.7,1.7,0,0,0,0-.22v-.12a.21.21,0,0,1,0-.12c0-.07,0-.1-.06-.1l0-.3a.29.29,0,0,1-.06-.18l0-.3a.45.45,0,0,0-.06-.16l0-.3a.7.7,0,0,0-.06-.2l0-.34a.09.09,0,0,1,0-.12c0-.08,0-.13,0-.14a1.48,1.48,0,0,0,0-.24l-.06-.42-.08-.56a.7.7,0,0,0,0-.13.63.63,0,0,0,0-.13.33.33,0,0,1,.18,0l.26-.08a1,1,0,0,0,.26-.06l.06,0,.22,0,.18-.06.24-.06.18-.06a1,1,0,0,0,.25,0l.19-.07.26,0,.24-.06.16,0,.86-.18.36-.07.36-.07a.7.7,0,0,0,.2-.06l.28,0,.2-.06.28,0,.18-.06.26,0A.57.57,0,0,1,102,95.72ZM99.8,98.43l-.46.06-.38.08-.3,0c-.07,0-.11,0-.13,0a.13.13,0,0,0,0,.13l0,.34a.47.47,0,0,0,.06.2l0,.36a.45.45,0,0,0,.08.2l0,.34.06.2,0,.36s0,0,0,.1a.09.09,0,0,0,0,.12,2.9,2.9,0,0,0,0,.48h.26a.11.11,0,0,1,.14,0,.21.21,0,0,0,.12,0,2.29,2.29,0,0,1,.4,0s.07,0,.12,0l.08,0,0,0q.12,0,.13-.06c0-.07,0-.14,0-.22a1.34,1.34,0,0,1,0-.48,1.68,1.68,0,0,1,0-.4.8.8,0,0,1,0-.4.28.28,0,0,1,0-.24.43.43,0,0,0,0-.22,2,2,0,0,0,0-.42.63.63,0,0,0,0-.32Q100,98.35,99.8,98.43Zm7.08-7.66h.92a3.56,3.56,0,0,0,.76,0h.28q.16,0,.18.14c0,.16,0,.32,0,.48l0,1.16s0,.05,0,.07a.09.09,0,0,0,.08,0l.16,0,1,0a3.1,3.1,0,0,0,.52,0,1.45,1.45,0,0,1,.54,0h.16q.12,0,0,.14v.22l0,.42a4.37,4.37,0,0,0,0,.44,1.82,1.82,0,0,0,0,.4,1,1,0,0,1,0,.17l0,.18s0,.12,0,.23,0,.19,0,.24h-.84l-.6,0-.88,0L109,99h.34l.48,0a2.28,2.28,0,0,1,.4,0h.4a1.1,1.1,0,0,1,.3,0l.32,0q-.14,0,.06,0h.34a1.65,1.65,0,0,1,.36,0h.34a1.65,1.65,0,0,1,.36,0l.2,0q.08-.06.14.06a.62.62,0,0,0,0,.38,1,1,0,0,0,0,.32l0,.6a1.37,1.37,0,0,0,0,.34,1.06,1.06,0,0,0,0,.46c0,.08,0,.12-.08.11h-.2a.28.28,0,0,1-.16,0,.17.17,0,0,0-.18,0l-.6,0a.26.26,0,0,1-.19.06.35.35,0,0,0-.19,0l-.64,0a.91.91,0,0,1-.38,0l0,0-.18,0c-.11,0-.18,0-.22,0l-.68,0a.45.45,0,0,1-.2,0c-.09,0-.16,0-.2,0l0,1.86a.36.36,0,0,0,.06.36l.44.2a10,10,0,0,0,1,.42l.3.1a3.18,3.18,0,0,0,.44.16l.34.1.42.12.66.16.23.05.24.05a.13.13,0,0,1,.11.08l-.06.26-.06.2a.45.45,0,0,1,0,.2l-.06.28a.34.34,0,0,1,0,.08q0,.12-.12.3a.06.06,0,0,1,0,0,1.3,1.3,0,0,1-.14.46.16.16,0,0,1-.14.14.37.37,0,0,0-.28-.06l-.3-.1a.68.68,0,0,1-.3-.08l-.24-.07-.24-.07-.6-.18-.38-.16-.14,0a1.73,1.73,0,0,0-.4-.12,4,4,0,0,0-.48-.24q-.1-.1-.16,0l0,.78a.08.08,0,0,0,0,.11s0,.06,0,.07l-.8,0a1,1,0,0,1-.4,0h-.52a.36.36,0,0,1-.24,0c-.11,0-.16,0-.16-.08a.81.81,0,0,0,0-.11.8.8,0,0,1,0-.09l0-1.24a2.3,2.3,0,0,1-.06-.56.3.3,0,0,0,0-.3,4.12,4.12,0,0,1-.76.42l-.07,0-.13.06-.27.09-.3.14-.63.27-.28.12a1.14,1.14,0,0,0-.38.16,1.57,1.57,0,0,0-.5.18c-.09,0-.16-.06-.21-.22a2.34,2.34,0,0,0-.19-.46l-.07-.17-.07-.17c-.05-.11-.12-.27-.2-.48l-.06-.14a1.83,1.83,0,0,1-.1-.32s-.06-.05-.06-.07,0,0,.06,0a.19.19,0,0,1,.14-.06,1.86,1.86,0,0,1,.38-.12l.6-.22.3-.1.16-.05.14-.05.12,0,.12-.05a1.87,1.87,0,0,0,.32-.08l.17-.09.17-.06.14-.05.28-.12a1.19,1.19,0,0,0,.34-.18,2.21,2.21,0,0,0,.44-.2l.32-.18c.11,0,.16-.08.16-.16a.88.88,0,0,0,0-.28q0-.18-.22-.12a1.12,1.12,0,0,1-.48,0,2164761.05,2164761.05,0,0,1-.88.08.78.78,0,0,1-.4,0,1.33,1.33,0,0,1-.46,0,1.69,1.69,0,0,1-.58,0l-.4.06c-.05,0-.08,0-.08-.07v-.17q0-.54,0-1.08a2.55,2.55,0,0,1,0-.72.55.55,0,0,1,0-.34,1.8,1.8,0,0,1,.6,0,2.73,2.73,0,0,1,.48,0,.17.17,0,0,1,.18,0,.28.28,0,0,0,.16,0,.92.92,0,0,0,.4,0l.6,0,.5,0,.58,0,0-3.51a1.29,1.29,0,0,0,0-.48l-.5,0a3,3,0,0,0-.48,0,1.32,1.32,0,0,0-.52,0,2.14,2.14,0,0,0-.42,0q-.2,0-.18-.18l0-2.26h.86l.62,0,.7,0v-1a.9.9,0,0,0,0-.38A2,2,0,0,1,106.88,90.77Z"
          style="fill:#6e8ea0"/>
    <path d="M119.48,93l.06,0q.16.2.28.38a6.7,6.7,0,0,1,.5.82l.25.37.25.37.34.52q.12.12,0,.18l-.72.42-.58.32a1.8,1.8,0,0,1-.32.18l-.46-.6a3.47,3.47,0,0,0-.24-.32l-.54-.78a.65.65,0,0,1-.22-.26,3.26,3.26,0,0,1-.28-.46.87.87,0,0,1,.24-.2l.24-.18.32-.22.52-.3.19-.13Zm-1.12,4.77.06.06h0a1.77,1.77,0,0,1,.34.08l.22.07.2.07.22.06.18,0,.3.12.08,0,.4.12.18.05.18,0a1.4,1.4,0,0,0,.34.08l.16.06.12,0a.55.55,0,0,1,.23,0q.11.05,0,.19l-.06.26a.62.62,0,0,0-.06.28,1.3,1.3,0,0,0-.1.3.44.44,0,0,1,0,.11.66.66,0,0,1,0,.11,6.07,6.07,0,0,0-.16.62L121,101q-.12.34-.2.66t-.14.46a.29.29,0,0,0,0,.34q.46.54.88,1.08a.25.25,0,0,1,.06.18,2.22,2.22,0,0,1-.18.5,6.17,6.17,0,0,1-.5,1s0,.06,0,.07l.1,0,.32,0,.28.06.36.06.8.1.4.06a.24.24,0,0,0,.14,0,.11.11,0,0,1,.14,0l.5,0a.29.29,0,0,0,.16,0,.11.11,0,0,1,.14,0h.4a1.33,1.33,0,0,0,.46,0,1.93,1.93,0,0,0,.56,0,3.15,3.15,0,0,0,.52,0l.68,0a.78.78,0,0,1,.4,0s0,0,.06,0,0,0,0,.11a3.79,3.79,0,0,0,0,.42s0,.11,0,.22a.56.56,0,0,1,0,.24.75.75,0,0,1,0,.24,3.17,3.17,0,0,1-.06.62c-.08,0-.13,0-.14,0a.6.6,0,0,1-.4,0,2,2,0,0,0-.64,0,.07.07,0,0,0-.11,0s-.08,0-.11,0l-.7,0a.88.88,0,0,0-.42,0,2.21,2.21,0,0,0-.44,0,.16.16,0,0,0-.18,0,.37.37,0,0,1-.2,0,2.56,2.56,0,0,1-.46,0l-.36,0a.57.57,0,0,0-.26-.06l-.36,0-.4-.06-.13,0-.13,0a.65.65,0,0,1-.24,0l-.58-.12-.24,0h0l-.34-.08a.59.59,0,0,0-.22,0l-.11,0-.11,0a4.33,4.33,0,0,1-.66-.16.83.83,0,0,0-.38-.14.4.4,0,0,0-.18,0l-.18-.06-.3-.1.06-.32a1.1,1.1,0,0,0,.06-.24.16.16,0,0,0,0-.06l.12-.46.12-.48.05-.13a1.31,1.31,0,0,0,0-.14s0-.05,0-.06a.18.18,0,0,1,.11,0l.38.12a4.14,4.14,0,0,0,.28-.54,1.13,1.13,0,0,0,.16-.38q-.34-.38-.64-.78a.67.67,0,0,1-.2-.3,2.13,2.13,0,0,0,.06-.29.65.65,0,0,1,.08-.25,2.36,2.36,0,0,1,.14-.46.46.46,0,0,1,.06-.18.06.06,0,0,0,0,0q.12-.4.26-.82c0-.05,0-.13.07-.23l.07-.22a1.37,1.37,0,0,1,.07-.18c0-.07,0-.11-.07-.11l-.26-.06-.24-.06-.35-.07-.35-.07a2.71,2.71,0,0,0-.4-.08q-.08-.06,0-.18l0-.18a5.07,5.07,0,0,1,.2-.68l0-.24c0-.12,0-.22.06-.3A1.41,1.41,0,0,1,118.36,97.73Zm5.05-3.57H131l0,1.76-2.16,0c-.08,0-.1,0-.05,0a.28.28,0,0,0,.14,0,.47.47,0,0,1,.19.06.16.16,0,0,1,.11,0s0,.06,0,.11-.08.23-.12.32q-.14.48-.3.92l-.07.17-.07.17h.78l1.1,0,.78,0a.83.83,0,0,1,.26,0l0,.52,0,1.18,0,1.26-.08,2.85,0,1.16,0,.56a.43.43,0,0,1-.26,0l-.92,0-1,0-.94,0-1,0-1,0-.58,0a1.32,1.32,0,0,1-.46,0l0-.66,0-1.72,0-1.66,0-.58,0-2.41a.15.15,0,0,1,0-.11s0,0,.07,0h.23l1,0a3.74,3.74,0,0,1,.72-.06l-.34-.14a.18.18,0,0,0,0-.08,1.54,1.54,0,0,0,.08-.2q.22-.56.4-1.14a.06.06,0,0,1,0,0,.67.67,0,0,0,.06-.3l-3.89,0Zm2.53-4.31.08,0,.06.1a3.14,3.14,0,0,0,.2.28l0,.06a1.94,1.94,0,0,1,.22.36,4.85,4.85,0,0,1,.38.54l.08.12a2.85,2.85,0,0,0,.28.42l.05.07.05.07s0,.08,0,.12l-.52.34-.36.25-.36.25,0,0-.1.06a0,0,0,0,1,0,0,0,0,0,0,1,0,0l-.42-.61-.42-.61,0-.06a.93.93,0,0,0-.18-.24.42.42,0,0,1-.08-.14l-.14-.2a.3.3,0,0,1-.1-.22q.48-.34,1-.64A2.68,2.68,0,0,1,125.94,89.85Zm2.89,9.8-1.12,0-.64,0c-.08,0-.12,0-.13.05s0,.14,0,.19l2.53,0,0,1.4h-2.19a1.18,1.18,0,0,0-.32,0v.22c0,.08,0,.12.09.12l.31,0q-.12,0,0,0l.3,0a1.59,1.59,0,0,0,.52,0,1.47,1.47,0,0,0,.48,0l.64,0q.12-.06.12.06v.2a1.06,1.06,0,0,1,0,.42,1,1,0,0,1,0,.46.33.33,0,0,1,0,.18c0,.05,0,.08-.12.08l-.48,0-.4,0-.92.06a2.39,2.39,0,0,0-.42,0q-.28-.06-.22.22l.44,0a6.89,6.89,0,0,0,1.08,0,4.59,4.59,0,0,0,1,0c.09,0,.14,0,.14-.1a.57.57,0,0,1,0-.22l0-1.06,0-1.14,0-.76a3.16,3.16,0,0,1,0-.52Zm.5-9.24a.71.71,0,0,1,.2.1,3.07,3.07,0,0,1,.54.32,2.67,2.67,0,0,0,.42.26l.12.08a1.22,1.22,0,0,1,.26.2q-.2.3-.38.62t-.44.72l-.3.48-.22.32-.14.24a.88.88,0,0,1-.08.16,1.3,1.3,0,0,1-.32-.2,2,2,0,0,1-.36-.22l-.06,0q-.42-.24-.78-.48.22-.42.48-.84l.64-1Q129.12,90.77,129.32,90.41Z"
          style="fill:#6e8ea0"/>
    <path d="M42.29,115.51q2,0,3.21-.1a12.37,12.37,0,0,0,1.83-.26,2.12,2.12,0,0,0,.86-.36,1.11,1.11,0,0,0,.3-.4q0-.1.2-.1t.2.1a1.15,1.15,0,0,0-.13.3l-.22.63q-.13.37-.27.79l-.26.81q-.12.39-.2.69a2,2,0,0,0-.08.4h-.22q-.18,0-.18-.12a1.74,1.74,0,0,1,0-.24,1.73,1.73,0,0,0,0-.24.34.34,0,0,0,0-.14q-.1-.2-.67-.3a11.25,11.25,0,0,0-1.31-.14q-.74,0-1.52,0H42.59a3,3,0,0,0-1.5.43,4.36,4.36,0,0,0-1.33,1.22,6.66,6.66,0,0,0-1,2,8.73,8.73,0,0,0-.37,2.63,9.32,9.32,0,0,0,.29,2.38,6.41,6.41,0,0,0,.82,1.91,4,4,0,0,0,1.31,1.27,3.37,3.37,0,0,0,1.75.46,3.6,3.6,0,0,0,2.82-1.25,3.91,3.91,0,0,0,.73-1.27,4.46,4.46,0,0,0,.25-1.47,4.1,4.1,0,0,0-.13-1,2.9,2.9,0,0,0-.39-.88,1.86,1.86,0,0,0-1.61-.84,1.55,1.55,0,0,0-1.17.37,1.14,1.14,0,0,0-.34.79,1.07,1.07,0,0,0,.22.67.69.69,0,0,0,.58.29c.15,0,.22.05.22.16a.17.17,0,0,1-.06.12,1.15,1.15,0,0,1-.56.28,3.78,3.78,0,0,1-1.09.14,1.94,1.94,0,0,1-1.27-.41,1.23,1.23,0,0,1-.5-1,1,1,0,0,1,.36-.74,3.38,3.38,0,0,1,1-.65,6.6,6.6,0,0,1,1.5-.46,10,10,0,0,1,1.89-.17,7.13,7.13,0,0,1,1.65.18,4.57,4.57,0,0,1,1.3.51,2.72,2.72,0,0,1,.86.8,1.82,1.82,0,0,1,.32,1,3.79,3.79,0,0,1-.56,1.86,6.72,6.72,0,0,1-1.53,1.81,8.42,8.42,0,0,1-2.3,1.36,7.46,7.46,0,0,1-2.83.54,7.87,7.87,0,0,1-2.75-.45,5.7,5.7,0,0,1-2-1.25,5.43,5.43,0,0,1-1.26-1.91,6.49,6.49,0,0,1-.44-2.41,5.76,5.76,0,0,1,.3-1.87,7.69,7.69,0,0,1,.77-1.63,9.14,9.14,0,0,1,1.05-1.37,11.7,11.7,0,0,1,1.12-1.06,7.28,7.28,0,0,1,1-.71,3.43,3.43,0,0,1,.68-.32l-1.44.06q-.77,0-1.46.11t-1.23.18a1.84,1.84,0,0,0-.74.27,1.22,1.22,0,0,0-.36.42,3.88,3.88,0,0,0-.24.54.58.58,0,0,1-.26,0,.37.37,0,0,1-.16-.23,3.48,3.48,0,0,0,.39-.75q.21-.52.42-1.08t.36-1q.15-.48.21-.62a.39.39,0,0,1,.18,0,.36.36,0,0,1,.16,0,1.64,1.64,0,0,0-.06.38.25.25,0,0,0,.2.26,7,7,0,0,0,1.44.21q.86,0,2,0Z"
          style="fill:#333"/>
    <path d="M54.41,121.77q.4-.36.89-.75a10.33,10.33,0,0,1,1-.72,6.18,6.18,0,0,1,1.14-.54,3.65,3.65,0,0,1,1.21-.21,3.88,3.88,0,0,1,1.34.23,3.28,3.28,0,0,1,1.1.67,3.17,3.17,0,0,1,1,2.4,7.33,7.33,0,0,1-.53,2.81,10.61,10.61,0,0,1-1.23,2.25,10.81,10.81,0,0,1-1.4,1.6,7.34,7.34,0,0,1-1,.83.15.15,0,0,1-.2,0,.14.14,0,0,1,0-.22,3,3,0,0,0,.49-.59,8.07,8.07,0,0,0,.67-1.18,10.5,10.5,0,0,0,.6-1.63,7.22,7.22,0,0,0,.26-2,5.26,5.26,0,0,0-.21-1.55A3.49,3.49,0,0,0,59,122a2.47,2.47,0,0,0-.82-.7,2.17,2.17,0,0,0-1-.24,2.86,2.86,0,0,0-.76.11,3,3,0,0,0-.74.31,4.28,4.28,0,0,0-.7.54,2.2,2.2,0,0,0-.5.66l-.07.15a1.21,1.21,0,0,0-.06.2q0,.13-.06.33t0,.54q-.06.58-.09,1.12t0,1.3a7.2,7.2,0,0,0,.12,1.5.75.75,0,0,0,.7.61h.14l.18,0,.2-.06a.1.1,0,0,1,.09.06.27.27,0,0,1,0,.12s-.07.1-.22.18a4.7,4.7,0,0,1-.56.25l-.75.26-.77.25-.65.18a1.6,1.6,0,0,1-.37.08q-.6,0-.6-.46a1.42,1.42,0,0,1,.1-.38A4,4,0,0,0,52,128q.08-.83.16-1.84t.13-2q0-1,.08-2t0-1.75q0-1.43,0-2.42t-.09-1.41a3.82,3.82,0,0,0-.12-.69,1.9,1.9,0,0,0-.14-.31.57.57,0,0,0-.25-.25,1,1,0,0,0-.28-.09h-.22c-.06,0-.09,0-.09,0a.62.62,0,0,1,.18-.46.65.65,0,0,1,.48-.18l1.19,0,1.13-.06a6.63,6.63,0,0,0,.81-.12l.49-.12c.11,0,.16,0,.17,0a2.13,2.13,0,0,1,0,.25.2.2,0,0,1-.1.18l-.22.1-.23.07a.25.25,0,0,0-.15.09,2.41,2.41,0,0,0-.16.74q-.08.62-.15,1.56t-.12,2.1q0,1.15-.07,2.33Z"
          style="fill:#333"/>
    <path d="M73.85,127.17q-.22.24-.68.66a8.38,8.38,0,0,1-1.1.83,7.52,7.52,0,0,1-1.44.72,4.77,4.77,0,0,1-1.69.3,5.18,5.18,0,0,1-1.59-.25,4.17,4.17,0,0,1-1.39-.76,3.64,3.64,0,0,1-1-1.29,4.39,4.39,0,0,1-.37-1.88,8.6,8.6,0,0,1,.12-1.54,5.74,5.74,0,0,1,.32-1.13,4.08,4.08,0,0,1,.45-.83,6.31,6.31,0,0,1,.51-.63,4.35,4.35,0,0,1,.78-.68,7.53,7.53,0,0,1,1-.58,5.72,5.72,0,0,1,1.11-.41,4.77,4.77,0,0,1,1.18-.15,3.32,3.32,0,0,1,1.68.36,1.11,1.11,0,0,1,.61,1,1.25,1.25,0,0,1-.24.74,4.27,4.27,0,0,0,.51-.2l.63-.29.57-.27a2.31,2.31,0,0,0,.33-.18.1.1,0,0,1,.09,0,.06.06,0,0,1,0,.07.83.83,0,0,1-.1.43.86.86,0,0,1-.24.27q-.32.2-.91.5t-1.32.63l-1.5.66-1.46.63-1.19.53-.69.33a3,3,0,0,0,.27,1.26,3.16,3.16,0,0,0,.75,1,3.45,3.45,0,0,0,1.14.69,4.15,4.15,0,0,0,1.46.25,5.16,5.16,0,0,0,1.29-.15,5.45,5.45,0,0,0,1-.34,5.53,5.53,0,0,0,.63-.34l.25-.15a.24.24,0,0,1,.16.07A.2.2,0,0,1,73.85,127.17Zm-7-3,.76-.29q.43-.17.83-.37l.75-.38a3.65,3.65,0,0,0,.52-.32,1,1,0,0,0,.36-.87,1.52,1.52,0,0,0-.09-.5,1.42,1.42,0,0,0-.27-.47,1.39,1.39,0,0,0-.44-.34,1.27,1.27,0,0,0-.58-.13,1.17,1.17,0,0,0-.6.19,1.89,1.89,0,0,0-.6.62,4,4,0,0,0-.47,1.13A6.74,6.74,0,0,0,66.85,124.13Z"
          style="fill:#333"/>
    <path d="M87.56,115.51q2,0,3.21-.1a12.37,12.37,0,0,0,1.83-.26,2.12,2.12,0,0,0,.86-.36,1.11,1.11,0,0,0,.3-.4q0-.1.2-.1t.2.1a1.15,1.15,0,0,0-.13.3l-.22.63q-.13.37-.27.79l-.26.81q-.12.39-.2.69a2,2,0,0,0-.08.4h-.22q-.18,0-.18-.12a1.74,1.74,0,0,1,0-.24,1.73,1.73,0,0,0,0-.24.34.34,0,0,0,0-.14q-.1-.2-.67-.3a11.25,11.25,0,0,0-1.31-.14q-.74,0-1.52,0H87.86a3,3,0,0,0-1.5.43A4.36,4.36,0,0,0,85,118.45a6.66,6.66,0,0,0-1,2A8.73,8.73,0,0,0,83.7,123a9.32,9.32,0,0,0,.29,2.38,6.41,6.41,0,0,0,.82,1.91,4,4,0,0,0,1.31,1.27,3.37,3.37,0,0,0,1.75.46,3.6,3.6,0,0,0,2.82-1.25,3.91,3.91,0,0,0,.73-1.27,4.46,4.46,0,0,0,.25-1.47,4.1,4.1,0,0,0-.13-1,2.9,2.9,0,0,0-.39-.88,1.86,1.86,0,0,0-1.61-.84,1.55,1.55,0,0,0-1.17.37,1.14,1.14,0,0,0-.34.79,1.07,1.07,0,0,0,.22.67.69.69,0,0,0,.58.29c.15,0,.22.05.22.16a.17.17,0,0,1-.06.12,1.15,1.15,0,0,1-.56.28,3.78,3.78,0,0,1-1.09.14,1.94,1.94,0,0,1-1.27-.41,1.23,1.23,0,0,1-.5-1,1,1,0,0,1,.36-.74,3.38,3.38,0,0,1,1-.65,6.6,6.6,0,0,1,1.5-.46,10,10,0,0,1,1.89-.17,7.13,7.13,0,0,1,1.65.18,4.57,4.57,0,0,1,1.3.51,2.72,2.72,0,0,1,.86.8,1.82,1.82,0,0,1,.32,1,3.79,3.79,0,0,1-.56,1.86,6.72,6.72,0,0,1-1.53,1.81,8.42,8.42,0,0,1-2.3,1.36,7.46,7.46,0,0,1-2.83.54,7.87,7.87,0,0,1-2.75-.45,5.7,5.7,0,0,1-2-1.25,5.43,5.43,0,0,1-1.26-1.91,6.49,6.49,0,0,1-.44-2.41,5.76,5.76,0,0,1,.3-1.87,7.69,7.69,0,0,1,.77-1.63,9.14,9.14,0,0,1,1.05-1.37A11.7,11.7,0,0,1,84,117.84a7.28,7.28,0,0,1,1-.71,3.43,3.43,0,0,1,.68-.32l-1.44.06q-.77,0-1.46.11t-1.23.18a1.84,1.84,0,0,0-.74.27,1.22,1.22,0,0,0-.36.42,3.88,3.88,0,0,0-.24.54.58.58,0,0,1-.26,0,.37.37,0,0,1-.16-.23,3.48,3.48,0,0,0,.39-.75q.21-.52.42-1.08t.36-1q.15-.48.21-.62a.39.39,0,0,1,.18,0,.36.36,0,0,1,.16,0,1.64,1.64,0,0,0-.06.38.25.25,0,0,0,.2.26,7,7,0,0,0,1.44.21q.86,0,2,0Z"
          style="fill:#333"/>
    <path d="M102.51,123.32a9.24,9.24,0,0,0-.28-1.1,2.92,2.92,0,0,0-.4-.81,1.59,1.59,0,0,0-.58-.5,1.86,1.86,0,0,0-.83-.17,2,2,0,0,0-.81.16,2.69,2.69,0,0,0-.64.38,2.14,2.14,0,0,0-.42.44,1,1,0,0,0-.17.34.16.16,0,0,1-.18.16.79.79,0,0,1-.52-.2.6.6,0,0,1-.24-.48.55.55,0,0,1,0-.24q.46-.26,1.11-.56t1.36-.56a13.09,13.09,0,0,1,1.4-.43,5.38,5.38,0,0,1,1.25-.17,2.78,2.78,0,0,1,1.28.24,1.53,1.53,0,0,1,.67.68,2.81,2.81,0,0,1,.27,1q0,.59.09,1.26.06,1,.16,2a10.51,10.51,0,0,0,.3,1.67,3.86,3.86,0,0,0,.51,1.17.91.91,0,0,0,.77.45,1.62,1.62,0,0,0,.48-.08,4,4,0,0,0,.5-.19l.43-.22.25-.15a.2.2,0,0,1,.22.18.39.39,0,0,1,0,.18l-.3.2-.64.38-.83.47-.9.47q-.45.22-.82.36a1.86,1.86,0,0,1-.6.14.58.58,0,0,1-.45-.21,1.84,1.84,0,0,1-.33-.56,5.09,5.09,0,0,1-.24-.8q-.1-.46-.18-1-.36.3-.91.71a10.84,10.84,0,0,1-1.21.77,9.71,9.71,0,0,1-1.34.61,3.86,3.86,0,0,1-1.32.25,2.38,2.38,0,0,1-.93-.17,2,2,0,0,1-.67-.45,1.76,1.76,0,0,1-.4-.65,2.3,2.3,0,0,1-.13-.77,1.45,1.45,0,0,1,.39-1,4.83,4.83,0,0,1,1.2-.84l1.05-.53,1.38-.67,1.31-.65Q102.23,123.5,102.51,123.32Zm.58,3.08q-.06-.34-.12-.74t-.12-.76q-.06-.36-.11-.62c0-.17-.06-.28-.07-.34l-.72.28q-.4.16-.79.35l-.76.38q-.36.19-.6.35a2.94,2.94,0,0,0-.7.6,1.11,1.11,0,0,0-.24.72,1.61,1.61,0,0,0,.34,1,1.25,1.25,0,0,0,1.05.44,2.43,2.43,0,0,0,.79-.14,5.58,5.58,0,0,0,.75-.32,5.45,5.45,0,0,0,.61-.36,2.85,2.85,0,0,0,.36-.28l.25-.27A.41.41,0,0,0,103.08,126.4Z"
          style="fill:#333"/>
    <path d="M108.57,129a1,1,0,0,0-.3.33,1.93,1.93,0,0,0-.18.35.19.19,0,0,1-.11.07l-.13,0a.16.16,0,0,1-.18-.18,1.05,1.05,0,0,1,.16-.32l.38-.63.53-.87.5-.81a5,5,0,0,1,.33-.49.19.19,0,0,1,.24,0c.09,0,.12.1.08.17a.24.24,0,0,0-.06.1.68.68,0,0,0,0,.2q0,.18.31.45a4,4,0,0,0,.79.52,6.33,6.33,0,0,0,1.05.43,3.81,3.81,0,0,0,1.13.18,1.43,1.43,0,0,0,1-.38,1.32,1.32,0,0,0,.39-1,1.23,1.23,0,0,0-.44-1,3.11,3.11,0,0,0-1.08-.52,11.36,11.36,0,0,0-1.41-.29,7.87,7.87,0,0,1-1.41-.33,2.88,2.88,0,0,1-1.08-.64,1.6,1.6,0,0,1-.44-1.21,2.24,2.24,0,0,1,.43-1.25,4.4,4.4,0,0,1,1.13-1.13,6.51,6.51,0,0,1,1.62-.81,5.77,5.77,0,0,1,1.91-.32,4.79,4.79,0,0,1,.7.06q.4.06.79.15l.72.18.49.15s0,.05,0,.16a2.81,2.81,0,0,1-.3.55,8.79,8.79,0,0,1-.53.73q-.29.36-.54.64t-.35.28h-.12a.19.19,0,0,1-.14,0,1.37,1.37,0,0,0,0-.26,1.23,1.23,0,0,0-.63-1.09,3.41,3.41,0,0,0-1.82-.4,1.34,1.34,0,0,0-.94.34,1.07,1.07,0,0,0-.37.81,1.44,1.44,0,0,0,.44,1.15,2.84,2.84,0,0,0,1.09.57,9.61,9.61,0,0,0,1.41.29,8.17,8.17,0,0,1,1.41.31,2.77,2.77,0,0,1,1.09.63,1.65,1.65,0,0,1,.44,1.25,1.79,1.79,0,0,1-.16.74,3,3,0,0,1-.42.68,4.42,4.42,0,0,1-.58.59,5.55,5.55,0,0,1-.64.47q-.3.2-.68.41a7.74,7.74,0,0,1-.81.39,6.05,6.05,0,0,1-.89.29,3.93,3.93,0,0,1-.91.11,4.26,4.26,0,0,1-.7-.09l-1-.21-.86-.23A1.21,1.21,0,0,1,108.57,129Z"
          style="fill:#333"/>
    <path d="M128.1,126.74s0,0,.07,0a.35.35,0,0,1,0,.14.63.63,0,0,1,0,.19.3.3,0,0,1-.08.16,8.66,8.66,0,0,1-1,.79q-.6.42-1.23.77l-.5.26q-.32.16-.71.31a8.08,8.08,0,0,1-.79.26,3,3,0,0,1-.77.11,3.34,3.34,0,0,1-1.35-.28,3.45,3.45,0,0,1-1.86-1.93,4,4,0,0,1-.27-1.47,5.33,5.33,0,0,1,.24-1.61,8.56,8.56,0,0,1,.55-1.35,9.6,9.6,0,0,1,.59-1,6,6,0,0,0,.38-.61l-.69,0h-1.66a3.81,3.81,0,0,0-.77.09.73.73,0,0,0-.3.16,1.83,1.83,0,0,1-.24.18l-.11-.11a.21.21,0,0,1-.07-.15.08.08,0,0,1,0-.06,1.63,1.63,0,0,1,.26-.23l.65-.5.85-.64.89-.65.74-.51a3,3,0,0,1,.41-.25.26.26,0,0,1,.24,0c.08.05.11.09.08.12l-.18.15c-.08.07-.11.14-.08.19a2.06,2.06,0,0,0,.76.32,10.16,10.16,0,0,0,1.21.23q.68.09,1.39.14t1.29,0q.85,0,1.37,0a6.54,6.54,0,0,0,.85-.13l.42-.12.08.06a.19.19,0,0,1,.06.14s-.1.09-.29.2l-.59.34-.43.26q-.25.16-.54.31a5.55,5.55,0,0,1-.61.27,2.14,2.14,0,0,1-.62.14l-.7.06-.83,0-.88,0h-.82l-.19.33a3.36,3.36,0,0,0-.25.59,7.81,7.81,0,0,0-.22.81,4.67,4.67,0,0,0-.1,1,4.36,4.36,0,0,0,.25,1.5,3.55,3.55,0,0,0,.7,1.18,3.16,3.16,0,0,0,1.06.77,3.32,3.32,0,0,0,2.14.18,4.39,4.39,0,0,0,.74-.26,5.38,5.38,0,0,0,.65-.35,5.18,5.18,0,0,0,.52-.37Z"
          style="fill:#333"/>
    <path d="M138.26,127.17q-.22.24-.68.66a8.38,8.38,0,0,1-1.1.83,7.52,7.52,0,0,1-1.44.72,4.77,4.77,0,0,1-1.69.3,5.18,5.18,0,0,1-1.59-.25,4.17,4.17,0,0,1-1.39-.76,3.64,3.64,0,0,1-1-1.29,4.39,4.39,0,0,1-.37-1.88,8.6,8.6,0,0,1,.12-1.54,5.74,5.74,0,0,1,.32-1.13,4.08,4.08,0,0,1,.45-.83,6.31,6.31,0,0,1,.51-.63,4.35,4.35,0,0,1,.78-.68,7.53,7.53,0,0,1,1-.58,5.72,5.72,0,0,1,1.11-.41,4.77,4.77,0,0,1,1.18-.15,3.32,3.32,0,0,1,1.68.36,1.11,1.11,0,0,1,.61,1,1.25,1.25,0,0,1-.24.74,4.27,4.27,0,0,0,.51-.2l.63-.29.57-.27a2.31,2.31,0,0,0,.33-.18.1.1,0,0,1,.09,0,.06.06,0,0,1,0,.07.83.83,0,0,1-.1.43.86.86,0,0,1-.24.27q-.32.2-.91.5t-1.32.63l-1.5.66-1.46.63-1.19.53-.69.33a3,3,0,0,0,.27,1.26,3.16,3.16,0,0,0,.75,1,3.45,3.45,0,0,0,1.14.69,4.15,4.15,0,0,0,1.46.25,5.16,5.16,0,0,0,1.29-.15,5.45,5.45,0,0,0,1-.34,5.53,5.53,0,0,0,.63-.34L138,127a.24.24,0,0,1,.16.07A.2.2,0,0,1,138.26,127.17Zm-7-3,.76-.29q.43-.17.83-.37l.75-.38a3.65,3.65,0,0,0,.52-.32,1,1,0,0,0,.36-.87,1.52,1.52,0,0,0-.09-.5,1.42,1.42,0,0,0-.27-.47,1.39,1.39,0,0,0-.44-.34,1.27,1.27,0,0,0-.58-.13,1.17,1.17,0,0,0-.6.19,1.89,1.89,0,0,0-.6.62,4,4,0,0,0-.47,1.13A6.74,6.74,0,0,0,131.26,124.13Z"
          style="fill:#333"/>
    <path d="M43,146.91l-.6.48a8.37,8.37,0,0,1-.87.6,5.93,5.93,0,0,1-1.09.51,3.76,3.76,0,0,1-1.25.21,4.28,4.28,0,0,1-1.77-.35,3.83,3.83,0,0,1-1.3-.93,3.91,3.91,0,0,1-.79-1.38,5.24,5.24,0,0,1-.27-1.69,5.1,5.1,0,0,1,.32-1.87,5.69,5.69,0,0,1,.78-1.42,5.37,5.37,0,0,1,1-1,7.93,7.93,0,0,1,1-.65,5,5,0,0,1,.51-.26,6.51,6.51,0,0,1,.68-.26,7.59,7.59,0,0,1,.79-.21,4.27,4.27,0,0,1,.88-.09,6.31,6.31,0,0,1,1.66.22,4.12,4.12,0,0,1,1.42.69,3.47,3.47,0,0,1,1,1.2,3.83,3.83,0,0,1,.38,1.77,4,4,0,0,1-.31,1.57,6.52,6.52,0,0,1-.73,1.31,8.11,8.11,0,0,1-.82,1Zm-2.25.32a2,2,0,0,0,1.74-.85,4.57,4.57,0,0,0,.61-2.62,5.35,5.35,0,0,0-.25-1.66,4.37,4.37,0,0,0-.7-1.34,3.38,3.38,0,0,0-1-.9,2.64,2.64,0,0,0-1.29-.33,1.86,1.86,0,0,0-.94.26,2.46,2.46,0,0,0-.78.75,4,4,0,0,0-.54,1.18,5.71,5.71,0,0,0-.2,1.57,4.54,4.54,0,0,0,.29,1.67,3.82,3.82,0,0,0,.77,1.24,3.33,3.33,0,0,0,1.08.78A3.09,3.09,0,0,0,40.76,147.23Z"
          style="fill:#333"/>
    <path d="M50.8,148.4l.15,0,.15,0c.08,0,.13.05.15.16s0,.18,0,.22l-.4.28-.53.33-.57.33-.48.28-.35.19-.46.26-.43.22a.88.88,0,0,1-.26.09.26.26,0,0,1-.19-.1.29.29,0,0,1-.09-.18c0-.07,0-.1,0-.11l.08,0,.33-.2a.78.78,0,0,0,.31-.52,9.92,9.92,0,0,0,.16-1q.08-.7.14-1.62t.1-2q0-1.1,0-2.28v-.84c0-.27,0-.51,0-.73l-.31,0-.57-.07-.55-.09c-.17,0-.25-.08-.25-.13a1.13,1.13,0,0,0,0-.12c0-.05,0-.13.15-.24l.39-.36.45-.4.41-.36.29-.26q0-.6,0-1.08t0-.88a2.66,2.66,0,0,1,.16-.78,2.06,2.06,0,0,1,.34-.55,4.23,4.23,0,0,1,.93-.71,18.29,18.29,0,0,1,1.65-.88l.59-.28a3.23,3.23,0,0,1,.49-.19,3.92,3.92,0,0,1,.5-.11,4,4,0,0,1,.6,0,5.25,5.25,0,0,1,1.5.19,2.57,2.57,0,0,1,1,.49q0,.08-.26.34l-.6.59-.68.67a4,4,0,0,0-.5.58.14.14,0,0,1-.18.06c-.08,0-.11-.07-.08-.12l.07-.16a.57.57,0,0,0,0-.2,1.15,1.15,0,0,0-.54-.93,2.25,2.25,0,0,0-1.37-.4,1.14,1.14,0,0,0-.79.29,2,2,0,0,0-.5,1,9.32,9.32,0,0,0-.23,1.48q-.07.85-.11,2.16a5.22,5.22,0,0,0,.73.09q.45,0,1,0h.75l.79,0,.74,0a3.28,3.28,0,0,0,.57-.09.25.25,0,0,1,.08.18,2,2,0,0,1-.87.69,7.46,7.46,0,0,1-1.28.44,8.93,8.93,0,0,1-1.37.23q-.69.06-1.12.06,0,.34,0,.94t0,1.3q0,.7,0,1.4t0,1.26q0,.46,0,.89t0,.77a3.68,3.68,0,0,0,.07.57Q50.7,148.36,50.8,148.4Z"
          style="fill:#333"/>
    <path d="M72.4,149.63s.05,0,.08.12a.26.26,0,0,1,0,.2,1.47,1.47,0,0,1-.29.4,2.62,2.62,0,0,1-.54.42,3.61,3.61,0,0,1-.75.34,2.92,2.92,0,0,1-.9.14,1.38,1.38,0,0,1-.66-.14,1.55,1.55,0,0,1-.43-.33,1.2,1.2,0,0,1-.31-.75,1,1,0,0,1,.21-.57q.21-.29.54-.68t.7-.92a7.66,7.66,0,0,0,.7-1.3,9.19,9.19,0,0,0,.54-1.81,12.78,12.78,0,0,0,.21-2.47,5.24,5.24,0,0,0-1-3.44,3.18,3.18,0,0,0-2.56-1.19,2.94,2.94,0,0,0-1,.23,4.78,4.78,0,0,0-1.14.64,4.24,4.24,0,0,0-.94,1,2.23,2.23,0,0,0-.42,1.24q0,.36,0,.83t0,1v2.19q0,1.07.08,1.91a3.28,3.28,0,0,0,.18,1.05.7.7,0,0,0,.55.28,7,7,0,0,0,.73,0c.12,0,.18.09.18.26a.21.21,0,0,1-.24.24h-3.4l-1.09,0-.9,0-.51,0s-.07,0-.08-.08a.42.42,0,0,1,0-.18.45.45,0,0,1,.08-.18.16.16,0,0,1,.12-.08,4.78,4.78,0,0,0,.81-.07,1.36,1.36,0,0,0,.51-.15,1.49,1.49,0,0,0,.29-.78q.13-.66.23-1.63t.16-2.14q.06-1.16.06-2.28,0-2.25,0-3.52a16.49,16.49,0,0,0-.11-1.9,1.35,1.35,0,0,0-.26-.77.68.68,0,0,0-.45-.14H61l-.31,0-.29,0h-.17s0,0,0-.08a1.23,1.23,0,0,1,0-.16,1.58,1.58,0,0,1,0-.22c0-.09.05-.14.12-.14h.76l.9,0h1.48a44.9,44.9,0,0,0,5.34-.28,23.87,23.87,0,0,0,4-.79c.12,0,.2,0,.23,0a.24.24,0,0,1,0,.17.69.69,0,0,1-.17.37,3.23,3.23,0,0,1-.42.46,2.76,2.76,0,0,1-.54.39,1.13,1.13,0,0,1-.55.16l-.83,0-1.07,0-1.21,0H67.07a7.21,7.21,0,0,0-1.62.15q-.63.15-.73.45a3.77,3.77,0,0,0-.22,1.24q0,.82,0,2.41.2-.2.75-.64a11.69,11.69,0,0,1,1.29-.88,11.12,11.12,0,0,1,1.62-.79,4.7,4.7,0,0,1,1.75-.35,4.32,4.32,0,0,1,1.61.31,4.53,4.53,0,0,1,1.37.84,4.15,4.15,0,0,1,1,1.26,3.48,3.48,0,0,1,.36,1.56,5.89,5.89,0,0,1-.26,1.75,9.68,9.68,0,0,1-.66,1.6q-.4.77-.85,1.48t-.85,1.39a9.78,9.78,0,0,0-.66,1.32,3.38,3.38,0,0,0-.26,1.26.94.94,0,0,0,.25.67,1,1,0,0,0,.79.27,1.11,1.11,0,0,0,.46-.09.57.57,0,0,0,.26-.19Z"
          style="fill:#333"/>
    <path d="M82.15,142.32a9.24,9.24,0,0,0-.28-1.1,2.92,2.92,0,0,0-.4-.81,1.59,1.59,0,0,0-.58-.5,1.86,1.86,0,0,0-.83-.17,2,2,0,0,0-.81.16,2.69,2.69,0,0,0-.64.38,2.14,2.14,0,0,0-.42.44A1,1,0,0,0,78,141a.16.16,0,0,1-.18.16.79.79,0,0,1-.52-.2.6.6,0,0,1-.24-.48.55.55,0,0,1,0-.24q.46-.26,1.11-.56t1.36-.56a13.09,13.09,0,0,1,1.4-.43,5.38,5.38,0,0,1,1.25-.17,2.78,2.78,0,0,1,1.28.24,1.53,1.53,0,0,1,.67.68,2.81,2.81,0,0,1,.27,1q0,.59.09,1.26.06,1,.16,2a10.51,10.51,0,0,0,.3,1.67,3.86,3.86,0,0,0,.51,1.17.91.91,0,0,0,.77.45,1.62,1.62,0,0,0,.48-.08,4,4,0,0,0,.5-.19l.43-.22.25-.15a.2.2,0,0,1,.22.18.39.39,0,0,1,0,.18l-.3.2-.64.38-.83.47-.9.47q-.45.22-.82.36a1.86,1.86,0,0,1-.6.14.58.58,0,0,1-.45-.21,1.84,1.84,0,0,1-.33-.56,5.09,5.09,0,0,1-.24-.8q-.1-.46-.18-1-.36.3-.91.71a10.84,10.84,0,0,1-1.21.77,9.71,9.71,0,0,1-1.34.61,3.86,3.86,0,0,1-1.32.25,2.38,2.38,0,0,1-.93-.17,2,2,0,0,1-.67-.45,1.76,1.76,0,0,1-.4-.65,2.3,2.3,0,0,1-.13-.77,1.45,1.45,0,0,1,.39-1,4.83,4.83,0,0,1,1.2-.84l1.05-.53,1.38-.67,1.31-.65Q81.88,142.5,82.15,142.32Zm.58,3.08q-.06-.34-.12-.74t-.12-.76q-.06-.36-.11-.62c0-.17-.06-.28-.07-.34l-.72.28q-.4.16-.79.35L80,144q-.36.19-.6.35a2.94,2.94,0,0,0-.7.6,1.11,1.11,0,0,0-.24.72,1.61,1.61,0,0,0,.34,1,1.25,1.25,0,0,0,1.05.44,2.43,2.43,0,0,0,.79-.14,5.58,5.58,0,0,0,.75-.32,5.45,5.45,0,0,0,.61-.36,2.85,2.85,0,0,0,.36-.28l.25-.27A.41.41,0,0,0,82.73,145.4Z"
          style="fill:#333"/>
    <path d="M95.69,147.58a7.58,7.58,0,0,1-1.57.72,5.22,5.22,0,0,1-2.43.28l-.57-.08q0,.38,0,.77l0,.77q0,.37,0,.69c0,.21,0,.39,0,.54a3.68,3.68,0,0,0,.17,1.37.55.55,0,0,0,.53.36,3.29,3.29,0,0,0,.49,0,1.91,1.91,0,0,0,.55-.17s.06,0,.09.08a.57.57,0,0,1,0,.22.94.94,0,0,1-.28.11l-.71.22-.92.28L90,154l-.79.21a2.59,2.59,0,0,1-.41.08l-.22,0c-.07,0-.1-.07-.1-.18a.12.12,0,0,1,.07-.13.25.25,0,0,0,.11-.09.81.81,0,0,0,.12-.45q0-.33.06-.65.06-.77.13-1.84t.13-2.23q.06-1.16.11-2.33t0-2.12a15.84,15.84,0,0,0-.11-2.12,3.56,3.56,0,0,0-.31-1.13.9.9,0,0,0-.45-.46,1.55,1.55,0,0,0-.53-.09h-.38c-.05,0-.08,0-.08-.14a.53.53,0,0,1,0-.13s0,0,.09-.07l.37-.2.62-.31.75-.36.75-.34.61-.25a1.23,1.23,0,0,1,.36-.1.4.4,0,0,1,.41.26,2.08,2.08,0,0,1,.13.7q0,.18,0,.57c0,.26,0,.55,0,.88q.26-.28.71-.69a8.49,8.49,0,0,1,1-.78,7.36,7.36,0,0,1,1.19-.65,3.09,3.09,0,0,1,1.22-.27,3.59,3.59,0,0,1,1.52.31,3.22,3.22,0,0,1,1.1.81,3.57,3.57,0,0,1,.67,1.15,4,4,0,0,1,.23,1.32,5.19,5.19,0,0,1-.29,1.76,6.56,6.56,0,0,1-.71,1.43,6,6,0,0,1-.91,1.08,6.23,6.23,0,0,1-.91.72Zm-4.47-1.53a1,1,0,0,0,.32.45,2.72,2.72,0,0,0,.67.42,5.14,5.14,0,0,0,.93.32,4.71,4.71,0,0,0,1.12.13,2.57,2.57,0,0,0,1-.21,2.17,2.17,0,0,0,.84-.66,3.34,3.34,0,0,0,.57-1.16,6.24,6.24,0,0,0,.21-1.73,4.51,4.51,0,0,0-.2-1.35,3.42,3.42,0,0,0-.58-1.11,2.75,2.75,0,0,0-.89-.75,2.42,2.42,0,0,0-1.13-.27,2.11,2.11,0,0,0-.71.14,3.44,3.44,0,0,0-.75.38,4.08,4.08,0,0,0-.67.56,2,2,0,0,0-.45.68,3.16,3.16,0,0,0-.17.75q-.07.51-.1,1.11t0,1.22Q91.22,145.58,91.22,146.05Z"
          style="fill:#333"/>
    <path d="M108.55,147.58a7.58,7.58,0,0,1-1.57.72,5.22,5.22,0,0,1-2.43.28l-.57-.08q0,.38,0,.77l0,.77q0,.37,0,.69c0,.21,0,.39,0,.54a3.68,3.68,0,0,0,.17,1.37.55.55,0,0,0,.53.36,3.29,3.29,0,0,0,.49,0,1.91,1.91,0,0,0,.55-.17s.06,0,.09.08a.57.57,0,0,1,0,.22.94.94,0,0,1-.28.11l-.71.22-.92.28-1,.28-.79.21a2.59,2.59,0,0,1-.41.08l-.22,0c-.07,0-.1-.07-.1-.18a.12.12,0,0,1,.07-.13.25.25,0,0,0,.11-.09.81.81,0,0,0,.12-.45q0-.33.06-.65.06-.77.13-1.84t.13-2.23q.06-1.16.11-2.33t0-2.12a15.84,15.84,0,0,0-.11-2.12,3.56,3.56,0,0,0-.31-1.13.9.9,0,0,0-.45-.46,1.55,1.55,0,0,0-.53-.09h-.38c-.05,0-.08,0-.08-.14a.53.53,0,0,1,0-.13s0,0,.09-.07l.37-.2.62-.31.75-.36.75-.34.61-.25a1.23,1.23,0,0,1,.36-.1.4.4,0,0,1,.41.26,2.08,2.08,0,0,1,.13.7q0,.18,0,.57c0,.26,0,.55,0,.88q.26-.28.71-.69a8.49,8.49,0,0,1,1-.78,7.36,7.36,0,0,1,1.19-.65,3.09,3.09,0,0,1,1.22-.27,3.59,3.59,0,0,1,1.52.31,3.22,3.22,0,0,1,1.1.81,3.57,3.57,0,0,1,.67,1.15,4,4,0,0,1,.23,1.32,5.19,5.19,0,0,1-.29,1.76,6.56,6.56,0,0,1-.71,1.43,6,6,0,0,1-.91,1.08,6.23,6.23,0,0,1-.91.72Zm-4.47-1.53a1,1,0,0,0,.32.45,2.72,2.72,0,0,0,.67.42,5.14,5.14,0,0,0,.93.32,4.71,4.71,0,0,0,1.12.13,2.57,2.57,0,0,0,1-.21,2.17,2.17,0,0,0,.84-.66,3.34,3.34,0,0,0,.57-1.16,6.24,6.24,0,0,0,.21-1.73,4.51,4.51,0,0,0-.2-1.35,3.42,3.42,0,0,0-.58-1.11,2.75,2.75,0,0,0-.89-.75,2.42,2.42,0,0,0-1.13-.27,2.11,2.11,0,0,0-.71.14,3.44,3.44,0,0,0-.75.38,4.08,4.08,0,0,0-.67.56,2,2,0,0,0-.45.68,3.16,3.16,0,0,0-.17.75q-.07.51-.1,1.11t0,1.22Q104.07,145.58,104.07,146.05Z"
          style="fill:#333"/>
    <path d="M117,145q0,.42,0,.8a1.93,1.93,0,0,0,.14.67,1,1,0,0,0,.36.45,1.16,1.16,0,0,0,.68.17,2.86,2.86,0,0,0,.5,0,4.07,4.07,0,0,0,.53-.13l.44-.16a.92.92,0,0,0,.23-.12s.07,0,.08,0a.36.36,0,0,1,0,.15.61.61,0,0,1,0,.18.3.3,0,0,1-.1.13l-.7.36q-.5.26-1.17.54a12.1,12.1,0,0,1-1.24.47,3.53,3.53,0,0,1-1,.19.93.93,0,0,1-.72-.28,1,1,0,0,1-.26-.7,2.37,2.37,0,0,1,0-.24c0-.07,0-.15,0-.26l.07-.73q0-.53.1-1.18T115,144q0-.67,0-1.14v-.7a6.25,6.25,0,0,0-.06-.91,1.61,1.61,0,0,0-.2-.62.82.82,0,0,0-.25-.23.7.7,0,0,0-.37-.09.62.62,0,0,0-.24,0,.52.52,0,0,1-.18,0s-.07,0-.13-.12-.06-.14,0-.18a5.12,5.12,0,0,1,.58-.32l1-.48q.56-.28,1.07-.49a2.35,2.35,0,0,1,.74-.21.32.32,0,0,1,.3.13.54.54,0,0,1,.08.29v.08a5.24,5.24,0,0,1-.06.64q-.06.44-.13,1.07t-.13,1.47q-.06.83-.06,1.81Zm-.79-10.33a1,1,0,0,1,.33.22,6.16,6.16,0,0,1,.47.46,6.24,6.24,0,0,1,.42.5.79.79,0,0,1,.18.32q0,.1-.24.3t-.55.41q-.31.21-.6.37a1,1,0,0,1-.41.16.8.8,0,0,1-.29-.19q-.23-.19-.47-.43t-.43-.47a.72.72,0,0,1-.19-.31q0-.1.26-.31l.57-.44a6.72,6.72,0,0,1,.6-.4Z"
          style="fill:#333"/>
    <path d="M123.49,143.25c0,.12,0,.23,0,.32s0,.2,0,.32,0,.27,0,.45,0,.41,0,.71a11.22,11.22,0,0,0,0,1.17,3.12,3.12,0,0,0,.15.73.73.73,0,0,0,.25.37.65.65,0,0,0,.37.1,1.22,1.22,0,0,0,.3,0s0,0,.07.11,0,.12,0,.15a3.25,3.25,0,0,1-.47.29,7.9,7.9,0,0,1-.79.37q-.44.18-.9.32a2.86,2.86,0,0,1-.79.14,1.11,1.11,0,0,1-.44-.07c-.11,0-.16-.1-.16-.17a.21.21,0,0,1,0-.12l.06-.1a1.05,1.05,0,0,0,.06-.25c0-.1,0-.22.06-.35s.05-.42.08-.71.05-.6.08-.93,0-.69.07-1.05,0-.72,0-1.06c0-.15,0-.33,0-.55s0-.5,0-.84a4.47,4.47,0,0,0-.13-1,2.19,2.19,0,0,0-.28-.66,1.17,1.17,0,0,0-.38-.37.82.82,0,0,0-.41-.12h-.2l-.2,0c-.05,0-.08-.06-.08-.18a.1.1,0,0,1,0-.07l.19-.13q.26-.18.7-.44t.89-.48q.46-.22.86-.38a1.9,1.9,0,0,1,.63-.16q.58,0,.58.66,0,.1,0,.36c0,.17,0,.35,0,.53s0,.35,0,.51,0,.27,0,.32q.42-.4.89-.81a8,8,0,0,1,1-.77,6,6,0,0,1,1.17-.57,3.77,3.77,0,0,1,1.27-.22,2.82,2.82,0,0,1,2,.69,2.79,2.79,0,0,1,.76,2.18q0,.4,0,.93t-.11,1.11q-.06.58-.11,1.13t0,1q0,1.59,1,1.59a1.67,1.67,0,0,0,.45-.07l.48-.16.41-.18a1,1,0,0,0,.24-.15s0,0,0,0a.49.49,0,0,1,0,.13.36.36,0,0,1,0,.14.16.16,0,0,1,0,.08l-.69.38q-.53.28-1.17.57t-1.28.52a3.2,3.2,0,0,1-1,.23.75.75,0,0,1-.63-.22.74.74,0,0,1-.17-.46,2,2,0,0,1,0-.4q0-.24.13-.78t.15-1.35q.07-.78.07-1.67a4.55,4.55,0,0,0-.65-2.65,1.93,1.93,0,0,0-1.62-.9,2.41,2.41,0,0,0-1.09.24,2.5,2.5,0,0,0-.81.65,3.26,3.26,0,0,0-.54.93A4.43,4.43,0,0,0,123.49,143.25Z"
          style="fill:#333"/>
    <path d="M142.89,146.17q-.22.24-.68.66a8.38,8.38,0,0,1-1.1.83,7.52,7.52,0,0,1-1.44.72,4.77,4.77,0,0,1-1.69.3,5.18,5.18,0,0,1-1.59-.25,4.17,4.17,0,0,1-1.39-.76,3.64,3.64,0,0,1-1-1.29,4.39,4.39,0,0,1-.37-1.88,8.6,8.6,0,0,1,.12-1.54,5.74,5.74,0,0,1,.32-1.13,4.08,4.08,0,0,1,.45-.83,6.31,6.31,0,0,1,.51-.63,4.35,4.35,0,0,1,.78-.68,7.53,7.53,0,0,1,1-.58,5.72,5.72,0,0,1,1.11-.41,4.77,4.77,0,0,1,1.18-.15,3.32,3.32,0,0,1,1.68.36,1.11,1.11,0,0,1,.61,1,1.25,1.25,0,0,1-.24.74,4.27,4.27,0,0,0,.51-.2l.63-.29.57-.27a2.31,2.31,0,0,0,.33-.18.1.1,0,0,1,.09,0,.06.06,0,0,1,0,.07.83.83,0,0,1-.1.43.86.86,0,0,1-.24.27q-.32.2-.91.5t-1.32.63l-1.5.66-1.46.63-1.19.53-.69.33a3,3,0,0,0,.27,1.26,3.16,3.16,0,0,0,.75,1,3.45,3.45,0,0,0,1.14.69,4.15,4.15,0,0,0,1.46.25,5.16,5.16,0,0,0,1.29-.15,5.45,5.45,0,0,0,1-.34,5.53,5.53,0,0,0,.63-.34l.25-.15a.24.24,0,0,1,.16.07A.2.2,0,0,1,142.89,146.17Zm-7-3,.76-.29q.43-.17.83-.37l.75-.38a3.65,3.65,0,0,0,.52-.32,1,1,0,0,0,.36-.87,1.52,1.52,0,0,0-.09-.5,1.42,1.42,0,0,0-.27-.47,1.39,1.39,0,0,0-.44-.34,1.27,1.27,0,0,0-.58-.13,1.17,1.17,0,0,0-.6.19,1.89,1.89,0,0,0-.6.62,4,4,0,0,0-.47,1.13A6.74,6.74,0,0,0,135.89,143.13Z"
          style="fill:#333"/>
    <path d="M144,148a1,1,0,0,0-.3.33,1.93,1.93,0,0,0-.18.35.19.19,0,0,1-.11.07l-.13,0a.16.16,0,0,1-.18-.18,1.05,1.05,0,0,1,.16-.32l.38-.63.53-.87.5-.81a5,5,0,0,1,.33-.49.19.19,0,0,1,.24,0c.09,0,.12.1.08.17a.24.24,0,0,0-.06.1.68.68,0,0,0,0,.2q0,.18.31.45a4,4,0,0,0,.79.52,6.33,6.33,0,0,0,1.05.43,3.81,3.81,0,0,0,1.13.18,1.43,1.43,0,0,0,1-.38,1.32,1.32,0,0,0,.39-1,1.23,1.23,0,0,0-.44-1,3.11,3.11,0,0,0-1.08-.52,11.36,11.36,0,0,0-1.41-.29,7.87,7.87,0,0,1-1.41-.33,2.88,2.88,0,0,1-1.08-.64,1.6,1.6,0,0,1-.44-1.21,2.24,2.24,0,0,1,.43-1.25,4.4,4.4,0,0,1,1.13-1.13,6.51,6.51,0,0,1,1.62-.81,5.77,5.77,0,0,1,1.91-.32,4.79,4.79,0,0,1,.7.06q.4.06.79.15l.72.18.49.15s0,.05,0,.16a2.81,2.81,0,0,1-.3.55,8.79,8.79,0,0,1-.53.73q-.29.36-.54.64t-.35.28H150a.19.19,0,0,1-.14,0,1.37,1.37,0,0,0,0-.26,1.23,1.23,0,0,0-.63-1.09,3.41,3.41,0,0,0-1.82-.4,1.34,1.34,0,0,0-.94.34,1.07,1.07,0,0,0-.37.81,1.44,1.44,0,0,0,.44,1.15,2.84,2.84,0,0,0,1.09.57,9.61,9.61,0,0,0,1.41.29,8.17,8.17,0,0,1,1.41.31,2.77,2.77,0,0,1,1.09.63A1.65,1.65,0,0,1,152,145a1.79,1.79,0,0,1-.16.74,3,3,0,0,1-.42.68,4.42,4.42,0,0,1-.58.59,5.55,5.55,0,0,1-.64.47q-.3.2-.68.41a7.74,7.74,0,0,1-.81.39,6.05,6.05,0,0,1-.89.29,3.93,3.93,0,0,1-.91.11,4.26,4.26,0,0,1-.7-.09l-1-.21-.86-.23A1.21,1.21,0,0,1,144,148Z"
          style="fill:#333"/>
    <path d="M154.23,148a1,1,0,0,0-.3.33,1.93,1.93,0,0,0-.18.35.19.19,0,0,1-.11.07l-.13,0a.16.16,0,0,1-.18-.18,1.05,1.05,0,0,1,.16-.32l.38-.63.53-.87.5-.81a5,5,0,0,1,.33-.49.19.19,0,0,1,.24,0c.09,0,.12.1.08.17a.24.24,0,0,0-.06.1.68.68,0,0,0,0,.2q0,.18.31.45a4,4,0,0,0,.79.52,6.33,6.33,0,0,0,1.05.43,3.81,3.81,0,0,0,1.13.18,1.43,1.43,0,0,0,1-.38,1.32,1.32,0,0,0,.39-1,1.23,1.23,0,0,0-.44-1,3.11,3.11,0,0,0-1.08-.52,11.36,11.36,0,0,0-1.41-.29,7.87,7.87,0,0,1-1.41-.33,2.88,2.88,0,0,1-1.08-.64,1.6,1.6,0,0,1-.44-1.21,2.24,2.24,0,0,1,.43-1.25,4.4,4.4,0,0,1,1.13-1.13,6.51,6.51,0,0,1,1.62-.81,5.77,5.77,0,0,1,1.91-.32,4.79,4.79,0,0,1,.7.06q.4.06.79.15l.72.18.49.15s0,.05,0,.16a2.81,2.81,0,0,1-.3.55,8.79,8.79,0,0,1-.53.73q-.29.36-.54.64t-.35.28h-.12a.19.19,0,0,1-.14,0,1.37,1.37,0,0,0,0-.26,1.23,1.23,0,0,0-.63-1.09,3.41,3.41,0,0,0-1.82-.4,1.34,1.34,0,0,0-.94.34,1.07,1.07,0,0,0-.37.81,1.44,1.44,0,0,0,.44,1.15,2.84,2.84,0,0,0,1.09.57,9.61,9.61,0,0,0,1.41.29,8.17,8.17,0,0,1,1.41.31,2.77,2.77,0,0,1,1.09.63,1.65,1.65,0,0,1,.44,1.25,1.79,1.79,0,0,1-.16.74,3,3,0,0,1-.42.68,4.42,4.42,0,0,1-.58.59,5.55,5.55,0,0,1-.64.47q-.3.2-.68.41a7.74,7.74,0,0,1-.81.39,6.05,6.05,0,0,1-.89.29,3.93,3.93,0,0,1-.91.11,4.26,4.26,0,0,1-.7-.09l-1-.21-.86-.23A1.21,1.21,0,0,1,154.23,148Z"
          style="fill:#333"/>
    <path d="M47.6,541.45l.55-.32q.58,1.06,1.34,1.06a1.22,1.22,0,0,0,.85-.32,1,1,0,0,0,.35-.78,1.21,1.21,0,0,0-.3-.75,5.47,5.47,0,0,0-1-.9,7.87,7.87,0,0,1-.93-.77,1.7,1.7,0,0,1-.35-.55,1.63,1.63,0,0,1-.11-.59,1.44,1.44,0,0,1,.45-1.07,1.54,1.54,0,0,1,1.12-.44,1.63,1.63,0,0,1,.93.27,3,3,0,0,1,.77.79l-.52.4a3.22,3.22,0,0,0-.52-.57,1,1,0,0,0-.66-.23.89.89,0,0,0-.64.23.78.78,0,0,0-.25.59,1,1,0,0,0,.22.63,6.61,6.61,0,0,0,1,.84A5.36,5.36,0,0,1,51,540.05a1.71,1.71,0,0,1,.36,1,1.63,1.63,0,0,1-.54,1.22,1.78,1.78,0,0,1-1.26.52A2.18,2.18,0,0,1,47.6,541.45Z"
          style="fill:#666"/>
    <path d="M84,542.65l.92-6.46H85l2.63,5.3,2.61-5.3h.1l.93,6.46H90.6L90,538l-2.29,4.63h-.16L85.21,538l-.63,4.66Z"
          style="fill:#666"/>
    <path d="M126.66,535.93l3,6.72H129l-1-2.21h-2.79l-1,2.21h-.72l3.05-6.72Zm-.08,1.43-1.11,2.43h2.2Z"
          style="fill:#666"/>
    <path d="M162.18,536.19h.66V542h2.48v.62h-3.14Z" style="fill:#666"/>
    <path d="M197.83,536.19h.66V542H201v.62h-3.14Z" style="fill:#666"/>
    <path d="M267.24,542.65v-6.46h1.34a7.3,7.3,0,0,1,2,.2,2.86,2.86,0,0,1,1.11.64,2.92,2.92,0,0,1,.72,1.07,4,4,0,0,1,.25,1.47,3.34,3.34,0,0,1-.39,1.58,2.68,2.68,0,0,1-1.06,1.12,4,4,0,0,1-1.93.38Zm.62-.61h.75a8.68,8.68,0,0,0,1.7-.12,2.05,2.05,0,0,0,.92-.46,2.26,2.26,0,0,0,.6-.84,2.92,2.92,0,0,0,.21-1.13,2.89,2.89,0,0,0-.24-1.18,2.31,2.31,0,0,0-.68-.89,2.41,2.41,0,0,0-1-.47,9.5,9.5,0,0,0-1.76-.12h-.46Z"
          style="fill:#666"/>
    <path d="M305.47,536.19h1.29a7.54,7.54,0,0,1,1.48.09,1.79,1.79,0,0,1,.68.31,1.49,1.49,0,0,1,.45.56,1.74,1.74,0,0,1,.16.76,1.58,1.58,0,0,1-.58,1.3,2.44,2.44,0,0,1-1.66.44l2.33,3h-.8l-2.32-3h-.37v3h-.65Zm.65.63V539h1.12a2.17,2.17,0,0,0,1.22-.26,1.1,1.1,0,0,0,0-1.68,2.17,2.17,0,0,0-1.2-.26Z"
          style="fill:#666"/>
    <path d="M342.41,536.19h3.71v.64h-3.06v2h3v.63h-3V542h3v.64h-3.68Z" style="fill:#666"/>
    <path d="M381.37,535.93l3,6.72h-.69l-1-2.21h-2.79l-1,2.21h-.72l3.05-6.72Zm-.08,1.43-1.11,2.43h2.2Z"
          style="fill:#666"/>
    <path d="M416.6,542.65l.92-6.46h.1l2.63,5.3,2.61-5.3h.1l.93,6.46h-.64l-.63-4.63-2.29,4.63h-.16L417.85,538l-.63,4.66Z"
          style="fill:#666"/>
    <path d="M456,541.45l.55-.32q.58,1.06,1.34,1.06a1.22,1.22,0,0,0,.85-.32,1,1,0,0,0,.35-.78,1.21,1.21,0,0,0-.3-.75,5.47,5.47,0,0,0-1-.9,7.87,7.87,0,0,1-.93-.77,1.7,1.7,0,0,1-.35-.55,1.63,1.63,0,0,1-.11-.59,1.44,1.44,0,0,1,.45-1.07A1.54,1.54,0,0,1,458,536a1.63,1.63,0,0,1,.93.27,3,3,0,0,1,.77.79l-.52.4a3.22,3.22,0,0,0-.52-.57,1,1,0,0,0-.66-.23.89.89,0,0,0-.64.23.78.78,0,0,0-.25.59,1,1,0,0,0,.22.63,6.61,6.61,0,0,0,1,.84,5.36,5.36,0,0,1,1.13,1.06,1.71,1.71,0,0,1,.36,1,1.63,1.63,0,0,1-.54,1.22,1.78,1.78,0,0,1-1.26.52A2.18,2.18,0,0,1,456,541.45Z"
          style="fill:#666"/>
    <path d="M529,535.93l3,6.72h-.69l-1-2.21h-2.79l-1,2.21h-.72l3.05-6.72Zm-.08,1.43-1.11,2.43H530Z" style="fill:#666"/>
    <path d="M564.56,542.65v-6.46h.14l4.29,5v-5h.64v6.46h-.14l-4.27-4.89v4.89Z" style="fill:#666"/>
</svg>